<mxfile host="app.diagrams.net" modified="2024-05-28T06:01:17.666Z" agent="Mozilla/5.0 (Windows NT 10.0; Win64; x64) AppleWebKit/537.36 (KHTML, like Gecko) Chrome/125.0.0.0 Safari/537.36" etag="TXbOIVoNu8_hbraFEFp2" version="24.4.6" type="device">
  <diagram name="Page-1" id="LE05OwEF1dqKEYw-Ce8s">
    <mxGraphModel dx="3930" dy="2463" grid="1" gridSize="10" guides="1" tooltips="1" connect="1" arrows="1" fold="1" page="1" pageScale="1" pageWidth="850" pageHeight="1100" math="0" shadow="0">
      <root>
        <mxCell id="0" />
        <mxCell id="1" parent="0" />
        <mxCell id="sUhHi8_-dVoYqIUpFttH-4" value="" style="shape=image;verticalLabelPosition=bottom;labelBackgroundColor=default;verticalAlign=top;aspect=fixed;imageAspect=0;image=data:image/png,iVBORw0KGgoAAAANSUhEUgAAB6gAAAOFCAYAAADXqrxCAACAAElEQVR42uzdC5BeZX34cVslu5sAgUAuhEASLc5QRHuzirdCR+oF1IIGtFPvl+ltrK3FUQRsAAMoFq12rGPV2mqRS6Ig1tvoOLb1BkHCVYRyDwQSEgEh2aWd5///nfq8Pnv2vHvL7ua9fJj5zPvuZtnL2fO++57zPc/zPOEJT3hCmoz//98TAAAAAAAAAOgvk23KkyRQAwAAAAAAACBQAwAAAAAAACBQAwAAAAAAACBQC9QAAAAAAAAACNQAAAAAAAAACNQCNQAAAAAAAAACNQAAAAAAAAACNQAAAAAAAAACtUANAAAAAAAAQEcEahsUAAAAAAAAAIEaAAAAAAAAAIEaAAAAAAAAAIFaoAYAAAAAAABAoAYAAAAAAABAoAYAAAAAAAAAgRoAAAAAAAAAgRoAAAAAAAAAgVqgBgAAAAAAAECgBgAAAAAAAECgBgAAAAAAAACBGgAAAAAAAACBGgAAAAAAAACBWqAGAAAAAAAAQKAGAAAAAAAAQKAGAAAAAAAAQKAWqAEAAAAAAAAQqAEAAAAAAAAQqAVqAAAAAAAAAARqAAAAAAAAAARqAAAAAAAAAARqgRoAAAAAAAAAgRoAAAAAAAAAgdoGBQAAAAAAAECgBgAAAAAAAECgBgAAAAAAAECgFqgBAAAAAAAAEKgBAAAAAAAAEKgBAAAAAAAAQKAGAAAAAAAAQKAGAAAAAAAAQKAWqAEAAAAAAAAQqAEAAAAAAAAQqAEAAAAAAABAoAYAAAAAAABAoAYAAAAAAABAoBaoAQAAAAAAABCoAQAAAAAAABCoAQAAAAAAABCoBWoAAAAAAAAABGoAAAAAAAAABGqBGgAAAAAAAACBGgAAAAAAAACBGgAAAAAAAACBWqAGAAAAAAAAQKAGAAAAAAAAQKC2MQEAAAAAAAAQqAEAAAAAAAAQqAEAAAAAAAAQqAVqAAAAAAAAAARqAAAAAAAAAARqAAAAAAAAABCoAQAAAAAAABCoAQAAAAAAABCoBWoAAAAAAAAABGoAAAAAAAAABGoAAAAAAAAAEKgBAAAAAAAAEKgBAAAAAAAAEKgFagAAAAAAAAAEagAAAAAAAAAEagAAAAAAAAAEaoEaAAAAAAAAAIEaAAAAAAAAAIFaoAYAAAAAAABAoAYAAAAAAABAoAYAAAAAAABAoBaoAQAAAAAAABCoAQAAAAAAABCoBWoAAAAAAAAABGoAAAAAAAAABGoAAAAAAAAABGqBGgAAAAAAAACBGgAAAAAAAACBGgAAAAAAAAAEagAAAAAAAAAEagAAAAAAAAAEaoEaAAAAAAAAAIEaAAAAAAAAAIEaAAAAAAAAAARqAAAAAAAAAARqAAAAAAAAAARqgRoAAAAAAAAAgRoAAAAAAAAAgRoAAAAAAAAAgVqgBgAAAAAAAECgBgAAAAAAAECgFqgBAAAAAAAAEKgBAAAAAAAAEKgBAAAAAAAAEKgFagAAAAAAAAAEagAAAAAAAAAEaoEaAAAAAAAAAIEaAAAAAAAAAIEaAAAAAAAAAIFaoAYAAAAAAABAoAYAAAAAAABAoAYAAAAAAAAAgRoAAAAAAAAAgRoAAAAAAAAAgVqgBgAAAAAAAECgBgAAAAAAAECgBgAAAAAAAACBGgAAAAAAAACBGgAAAAAAAACBWqAGAAAAAAAAQKAGAAAAAAAAQKAGAAAAAAAAQKAWqAEAAAAAAAAQqAEAAAAAAAAQqAVqAAAAAAAAAARqAAAAAAAAAARqoPv87//+b8r3H3/88dT0Mf/zP/+Tyo/74Q9/mI466qg0MjKSmj7WdgUAAAAAABCoBWqg0c6dOycVlSNSX3fddWnZsmXpV37lV9JJJ52UcpAuw3QZswEAAAAAABCoBWqgUTmKOofmfHvzzTenwcHB9KQnPal6cthrr73SS1/60rRr165RkTrfCtUAAAAAAAACtUANNAbp8VxzzTVp0aJFVZyO0dNPfOITW5H6hBNOSJP9PAAAAAAAAAjUAjUI1WNGPeeR0Lfcckvaf//9qxhdPjn86q/+anUbsfrEE09Mw8PDo/5fI6gBAAAAAAAEaoEaGFcZlmNa7wjTQ0NDrRhdBuocqWNk9bHHHlv9f3nKbwAAAAAAAARqgRqYlBtuuKGa1juPnM5rTzfJofqkk05K5ehrAAAAAAAABGqBGmgcNZ3DcsTpCNIRp8tR0yHWoG56soiPjVD9vOc9L42MjAjUAAAAAAAAArVADf2mPpq53drQOSpfd911afHixW1DdJP42DyKOkL1mjVrUrtR1NamBgAAAAAAEKgFajCC+gm33357GhwcrEZP10dON2k3unpgYCAdf/zxrZHUOVaL0wAAAAAAAAK1QA19Noq66d9vvPHGNDQ0lObNmzfuetNNo6dLOVpH6H7Zy16WytHZAAAAAAAACNQCNfT4yOjs8ccfT00fc+utt6ZFixZVYTpP1T1Z8fHldODl2/H5TjzxxJS/7q5du4RqAAAAAAAAgVqghn6L1fntm266qTWldxmnJzPFdz1Uh/j/ymAda1I/73nPS+NFcgAAAAAAAARqgRp6IEq3C9MhpvVesmRJKyrnsDzVUdTl+tNlsM6jqOPf1qxZk8o4PdG04wAAAAAAAAjUQBcro/D1118/akrviMj5/mQDdfn/ThSv58+fn57//Ocn03wDAAAAAAAI1AI19JGrrroqLVu2rDUtd/mgz1N7TyZS5zA9XqCuT/ddH0kNAAAAAACAQC1QQ5fJU3dPNHX2LbfckoaGhtLg4GCa0SeLSa5RHaO2X/7yl7cidX0KclN/AwAAAAAACNRAhypHI5extyn0XnvttWnhwoVp3rx5cxqm6++LOP6iF70ojYyMiNEAAAAAAAACtUANvTSqOtx2221pv/32q+JwROOJ1o2e6Uidpw6PEdR5uu+TTjop5ZBu2m8AAAAAAACB2gaFLhg9PdG02DfeeGNreu2prDG9u/LXqt/Pa1PH+5773Oem+vTk9Wm/AQAAAAAAEKiBDgvVTaOnI04vXbo0DQwMjIrDc7n+dPk166O3Y7rxNWvWtKb7FqcBAAAAAAAEaqBLxCjkHHlvueWW1qjpiMI5DOdptudCfO2m0dr5+8nTfx977LFpopHgAAAAAAAACNTAHlKONi7DdLj22mvTgQceWMXoeiCei+m9c5wuR0vX7+fvI+7HCO+XvexlqelnAwAAAAAAQKAGOmjUdPn2TTfdlBYuXJj22muvMVF6LtegbppKvBzJXf/eBgcH0/HHH5+apiwHAAAAAABAoAbmaIR0XqN5Itdff33ab7/95myU9Ewov9cFCxakF73oRSI1AAAAAACAQA3MtXqoHW/q65/85Cetab3zSOlOl0dTl6Oq4/tfs2bNqDWpy59bvAYAAAAAABCogVkeTd0u2IaY1juv5dw0tXY3BOpyvex58+alZz3rWakM0uP9/AAAAAAAAAjUwG5G6cm8/4YbbkiLFy/umlHTE4lQnW9PPvnkVpgXpQEAAAAAAARqYA9E6uyWW26pwnSMOM6Buhun9w559HTclu877rjj0q5du0Zth3I0NQAAAAAAAAI1MAtxOqa7zu/ftGlTWrRoURocHBw1rXdE3Rx7Oz1Ql993fWryMri/8pWvTMPDw6I0AAAAAACAQA3MVajO6zHHmtMHHHBAa7RxU+DtJvl7z2E9v73XXnu17r/qVa9KO3fuFKkBAAAAAAAEamC25Th97bXXpgULFrTWai5HItdDbycrv8c8Wro+1Xc9Vh977LHVCHLrUQMAAAAAAAjUwG7G54n85Cc/SUuWLGnF6V7WNDI8fu7XvOY1qb4GdRmsxWsAAAAAAACBGqiph9SmqbzL0cI333xza7RxN0/nPdVInUdS51HWEamf9axnpZGRkVRutzJai9QAAAAAAAACNTCJUN3kuuuuq0ZOR6SNqa77IU43raudY3VE6pNPPrk1knqyI9ABAAAAAAAQqIFCffrqW2+9tQrTQ0NDjes394P4+cufOcJ1hPoXv/jFaXh4WJwGAAAAAAAQqIHphOlyRPW1116bFi5cmObNm9c303qXEb7pZy7fNzAwkE444YRRkdr03gAAAAAAAAI1MEnlmtOLFi2qRk7n9Zf7af3ppim+66PHYxR1vB2Ruj7yHAAAAAAAAIEaaDAyMjIqrm7atCnNnz9/1HrTEWL7aWrviNNloG63HnVE+8HBwfR7v/d7yQhqAAAAAAAAgRpo4/HHH2/F1DwC+Prrr0/Lli1LT3rSk0atwTzRyOJ+CdXttkNso5NPPlmcBgAAAAAAEKiBybjpppuq6FoP0rSP1+Wo8oj6z3nOc1J9FLVR1QAAAAAAAAI19L0cTuP2uuuuSwceeGDjiGmeMO5a1PX3rVmzptquMXV6HpleRmrBGgAAAAAAQKCGvjQ8PJx++tOfpv33378K0/00ffdMj6DOkTpGUh933HGtkdR5je+I1eI0AAAAAACAQA1968Ybb0x77713K7QK1FMfRd004nzevHnpxBNPTLt27RKkAQAAAAAABGogbNmyJT31qU+tgqrpvac2eropVsdtbMu99torXXrppVWcjlHT5cjpPO03AAAAAAAAAjX0jRxKH3zwwWr96RynjaKe2hTfeXvF/fz2l770pTHTeZveGwAAAAAAQKAGfjGS+sgjjxSep6gccR4jp8PFF188bogWqgEAAAAAAARq6HsxknpoaKg1XTXjy9Oix/Z60pOeVI2cvvDCCxtHTYvSAAAAAAAAAjX0rRxMH3/88eo2T/e9Y8eOdPjhh1exNaJrfY3lfl1jerypz2O96bhdv369CA0AAAAAACBQA01ynK5H6wceeCCtWLGiCrJ5neWmNZf7aQrv8mcup/WOiB+B+qKLLhKnAQAAAAAABGqgSR4x3S5ax3Tfq1atqqax7tcpv+shvoz15RTfV1xxRTKFNwAAAAAAgEANTDJUl4F1165d1f1t27alww47rDViOE9l3Q/KUeN5pHT97dgel19+eXrsscdSfRQ6AAAAAAAAAjVQC6kTBdXt27enRYsWtUYL9+N61OXPG4E6wnTcXnLJJalpmwIAAAAAACBQA21iaruwWq5JfeSRR1ajhsv1l/tpmu98G3E6gvX69etHbbP6et4AAAAAAAAI1MA48nTfcVsPrhGpFy5c2Hdhugzy8b6I9BdffLEYDQAAAAAAIFAD0w3S431MHkkda1IfccQRrfWY+2lq75jiPN7esGGDOA0AAAAAACBQA7MZsfOI6ojUK1eurGJtDrj1Nam7YY3q+vdYn8q7/r7BwcF06aWXpvFiPgAAAAAAAAI1sJvqa1Rv3749rVq1akzk7ab1qXN8zqPB24XpgYGB6v4ll1yS2m0PAAAAAAAABGpghsJ0GWTzCOJYk/rwww9vBdxujNRN0bocFZ5/liuuuCKVPzsAAAAAAAACNTALmqJsDtYRqffdd9+01157jRqB3G3rS8f3Xg/r+e0vfelLaefOncI0AAAAAACAQA3MdazOa1FnsSb1EUccUUXqblqDuilG58g+b9686jbWnG4K80ZSAwAAAAAACNTALEXpCLNllK2vwRyROkZS16f77oY1qMuR3xHW4+1Yl/oLX/hCKn9W604DAAAAAAAI1MAsqY+UbnrfyMhI6+28JnVE3m4aQR1BOkfqPFX5+vXr03jB3v4BAAAAAAAgUAOzFKmbRg83vS8i9apVq7omUJfrTseo6QjUF110UePPLEwDAAAAAAAI1MAe0m7K6+3bt6cVK1ZU6ziXAXhPT+Vdv1+KOB3/tmHDBhEaAAAAAABAoAa6aaT11q1b0xFHHDFqpPKeitV5NHc5lXd+X3xPMWo63s7TeltrGgAAAAAAQKAGumREdZ4K+8EHH0wLFiyoAnAOxDkMz8UU4PH16lE8vm75vvy9XXbZZaI0AAAAAACAQA10uhyky5HHeUR1jKQ+8sgj08DAwITTbM/letMhpiDPcXrnzp0CNQAAAAAAgEANdPqI6XqsrofqGEl94IEHVoE41nreE5E6f908ijridLjwwgtTU2wHAAAAAABAoAY6VB4xnY2MjLRCddxu3749HXbYYVUonqu1qOsRPL+dY/UXv/hFMRoAAAAAAECgFqihG0SEnsyo6iym+45IPVdrUNfDdHzNiNODg4Np/fr1Rk4DAAAAAAAI1AI1dJMySJdrUef355HV+e2I1MuXLx815fZcrTudv2YZp8cL6gAAAAAAAAjU0NURt926zVMZidythoeHq5/p/vvvT7/+678+ZhT1VEdVl1N45/833le+P98fGBhIe+21V9qwYUPq5f2rfLvdPlSfjh0AAAAAAECgFqjpMU0Rul0o7KWAWI+k+Wd78MEHq6m2c1Cux+n6+tETher6x+eR0zFqOsS/X3jhhT07crr+8+T9LW9vU5gDAAAAAAACtUBNH42cHi9W5ymxy/f3WkAtf7a8dnVM9/20pz1tWlG63f9Tj93z5s2rbr/85S/3fKBt2q/afUzT+uEAAAAAAAACtQ1KD0XDpmBYrtfciyOo2/1c+X5E6iVLlrTWh86jnSfzBFGG6Lhfrjddjp7+4he/mHbt2pXGG83ezRdATPZihrzNTfENAAAAAAAI1AI1fTCaugyJZSTctGlTet3rXpd6ddT0RGtw/+xnP0urVq1qRerprEed43SO2zFyOu5HnO6XUfr1UdFnn312uu222xq3vSm/AQAAAAAAgVqgpofjYRkGcxyM24jTMYJ4aGgovfa1r60idS+OcC3jabkNypHUT33qU6vQPJ2pvsu1qONzROy+9NJLRwXycrv20sUATT/LeeedV0X+gw8+ON1xxx2jtoM4DQAAAAAACNQCNT2sDILlqOIY3RoBMQfZ+fPnp2OOOaanIuJUfo6I1EuXLq3C6lQidTnaOuJ0vJ3jdK/F6PECdQ7wa9euHTXt+T777JPuvvvuUZG617cJAAAAAAAgUAvUCNVFnL7qqquqkdN51G8ZWPNI6l4KqOWo8fFG/27ZsiU97WlPG7Oe9GTidEzrXY6cnsxI416J03m7vv/9729tl7xfxbZcvXp12rx5sygNAAAAAAAI1AI1/RSoIyhu3749LVq0aMy6yXkN5oGBgfTiF794zFTfvTo1cz0c79ixo9oG9e1TX2+6jNR5avCLLrqobyPsunXrqu1Q325xG9sz7jdF6nK/MrIaAAAAAAAQqKGLo2uOzPl248aN6YADDmjF6Poo4BwVBwcH0x//8R+npnjYKxGx/Dnyzzk8PJxypD788MOrUdF5u5RhOo8Qjtu8LdevX9/TcbXpAoX8vne/+93VPpP3n7xPlftWbKeVK1eme+65JzWN6ve4BQAAAAAABGoblB4JihEAb7755mqN5aYw3TRCOP791a9+deN0370ymrrpZ8uRetu2bWnFihWjYn55P0/rHbeXXXZZ6uX9Z7xtFiOny5BfD/rlfjY0NJQWLFiQ7rrrLmEaAAAAAAAQqAVqeim0lv920003pcWLF1eBda+99mpFxDIo1uNinpr5ZS97WWu675GRkdRr22y8UbwPPPBAtX5yuwAbt1/5ylfSrl27Uj/tV/H+cNppp42a0rs+HXrTFPIx0vqggw5Kd955Z2r6OqI1AAAAAAAgUEMXR8XrrruuNa13fQRwPSg2Bcbwhje8IZVTfPdyRKyPHI6R1L/2a782akRwbKcIre3WnO6l7ZO3R744IV+scO6551bbJG+PcmR+1m7d7gj+y5cvT3ffffeo7ZQ/d6+udw4AAAAAAAjUAjU9bfPmzVWcjkBYX0M5B8QyLuZRweWo1/i4GHV9zDHH9FSYjp+lDKFN623n98VI6iVLlrTWnY7ttGHDhtT0sb12oUPT73zt2rXVtoj9oxxVXr8AYrxQHftUhOp77703CdIAAAAAAIBALVDTxSOnYyTqVVddlRYtWlSN9C1DdH1t4Bxd6yOp6x8fXv/61/dcSGwK003b9f77709HHHFEFVYjTufRvr08erppG5155plj9ovyfo7Uef/JI6ybRufHx65cuTLdd999ydTeAAAAAACAQG2D0kVRuozTEVPztN5ljK6Pmi7DYhkQy1Gx9dGwsSb18PBw6rVtON6I4Wzr1q3pC1/4Qt+E6frPdM4557RGP9dHSNdHT5f7V96PyvXPy+m+4/auu+7qyZHoAAAAAACAQC1Q0xXajdAdb3Rr2LhxYzrwwANn7IFQj9oLFixIr371q9Nkvz86e1T0ZMJ6fOx73vOeKia3W6d8OnLAjs+7YsWKMWtSN31/AjYAAAAAACBQwxyExCYjIyOj/u26666r1kouR0bvTpiux8j89sDAQDr55JNHTcssHPbmPha/4/PPP3/UCOmZiNT1zzE0NJQWLlxYrUld7ldx3/TfAAAAAACAQA17KBw2Bbv4uBtvvLFaz7e+nvRMjnSNqJjvR6R++ctfbiR1Fxsv/OZ/i5HTMTV3eXHCTO5beYrvEOulxwUWTSOpJ/t9AwAAAAAACNQwCzGxnKL5mmuuqcJe09rSuzOCuj69dzn6NcfqN7zhDaPWpDaSunf2t/e///3VyOZyjemZnOK7/Fw5fMfXWb58edq8eXNq2vddEAEAAAAAAAjUsAdDdYw2Peigg6qwN9Ojp8tpvsv7ZViMEbAvfOELR0VqukMZe+vh9+yzz279ruvTe8/kflZeCBG3cdFD7FMRrO+6665k5DQAAAAAACBQQ4fE6R/96Edp8eLFo6bgzqFvpqf3Hm8EbEwB/frXv9503z0QrGME/BlnnFFF6fJ3n+PxTE8fn4N3HpVfvn/VqlVpy5Ytyah8AAAAAABAoIY5jtL1aY5jdOmiRYuqOFyG5HK06+6oj5qtx8kcwcuv+4pXvEJM7PKLHs4///xRv+u4X8bjmYrU9Ysoyunk89fK+2BM9230NAAAAAAAIFDDHgiIEac3bdqUli5d2orT9ZHTM7VOcDn98kRrCMf9wcHBdNJJJ6WRkRExsYv2rXxRwXvf+97W77zp9z7TI6hzgG73efP04oceemi655577FMAAAAAAIBADdPVNNK4HgybXH/99WnZsmUzPtXy7k4BnmN1rB38qle9Kt12223pjjvuSLFGdsTFuKVz3HnnndXI5Lgft+eee251gUGn7Ff1kH3AAQdU3+tULuYAAAAAAAAQqGESobopusXtrbfempYsWZLmzZu3x6NhfbR2OQ14HtndNNKazrmwoOn3Uv/d7Wn5e4x4vv/++1cxvelxYv1zAAAAAABAoIbdjNPDw8Otf7/qqquqkdPjTbm9pyNi3ObvL0a9hgie+f5472NuRaAOQ0NDrSm9y99jp1wAUe7v8b2uWLFizEhqI6cBAAAAAACBGqZovMi2devWdOCBB44apdwJI3DLiFhGzXajc+nMCwvqv8NO+d2V+1herzqP8G43knoyF34AAAAAAAAI1IjTbUL1xo0b0+LFi8eMJu2UwFlGTVG6uzTtT53yOxxvf4pIvXLlynT//fenPLW3KA0AAAAAAAjUMMUR0/X33X777dXI6XIEaaepf1/10dRlbGwK2uwZ5VrT+XeSR7530gjqPGNAnoa8/Lf4GeojqU33DQAAAAAACNQwxWAdo0I3bdqUli5d2lovuF0Q3pPxsAyc+W2jqLtriu9yOvZOitP1qb3LiJ4/Zt68eenggw9O99xzT8qPH4EaAAAAAAAQqKFBuymJI07fcMMNadmyZaNGuZbRrpNGuNa/t3KUa7vgKWJ31uj38vfUKdPIjzd9fPl2/AxxIUeMpBanAQAAAAAAgRqjoif4t6ZpvQ866CABFSYpLuTYf//901133ZWm+jiEqTyP25emv/1sO/bkY7Yf97/yQkiPQ9hzx3/5sejx17uvCaf6u213oXq7z9fu8+/OPlV+D3GB/Fy97q3/7BNti6l+HAAACNTwiwO6qR58bty4sVpzulNGsUInK9c7j/srV65M9913X3ISg5l6Di+fo+1Tux/HmNq2s88xVxdNAnvmWJDuf43T9JqxNF78neh5eWRkJD388MPV8U1ciBuzrF111VXp29/+dvrHf/zH9I53vCO9/e1vT3/6p3+aXvKSl6Q/+IM/GFf5Mccee2w68cQT09ve9rZ0yimnpHPOOSd95zvfSf/xH/+RfvzjH1df64477kjbtm1LjzzyyJifYTr79nivq9ttC48hAAAEapiDkWU7duyoRoFGcOuUdaahmwwODla3OVJPdCIEphNX7UfTC2Gx3Wy73R95LjJOThkE+u2xW/7s9ecy+w/MzWuI6Y4SpbtD9WT+Xjf9fcrvj5nUPv/5z6d3v/vd6UUvelHrnEA+ximX1MpLbcX9efPmVW9PJM4zxMfH7FP5c5Sfp7z4t1xaKT5/LD/2yle+Mv3N3/xN+td//dfqe52J13f17dHuNaT9DQAAgRpm0PDwcOtA64c//GFasmRJ62BRbISpraOdb+MEyiGHHDJqum8n5JmNEdUYRT2XgX/Xrl22H7sdTjwOYc897jz+ens2inh/jHieaH/42c9+ln7605+mK664Ir3xjW+sRjOvXr067bPPPq0gnG/jvEAc40REHhgYaN3mj4lzB+XMUpM9fiojdDkbVf6acTwVXyfCeP688bXLrxEfG/9+8MEHp6OPProK15deemk1wjsuvN/dGT08XgAAEKhtUOYgcMQBahzY5YPDfBUzMHGYbjeSeu+9964italyma76SUaE6j09Cti2m952i7f7fdvFNvB3EOb2mC+/jvDY682/Me1GQtf/ZscU3TfddFM67bTT0u/+7u+OOtYvR0jXA3PTSOamUFyOpp6J5ZMm+rccxePt+L7LUdjl93HooYemP/mTP0nf+ta30vbt29Njjz02qYumvNYBAECgFqiZozh99dVXp+XLl4860JsovgETx+p4LC1dujTdfffdKZ9AcsKD6Qau8UbCMPnI7zG4+/sguzeSsZ8fgx5/YAYWZv5vS/13GyH2e9/7Xlq7dm16xjOeUc2SVg/Nceyfp+2ux+VyGu/42HqozqYTpfPnq2sK4uOF6/Jr5/8vj/TO7ys/Ji4cfspTnpL+6I/+KH3605+ujs/q63F7vQgAgEAtUDPLJyfKE4abNm2qAlqeSmt3DjahH8XJnaYr9vP9BQsWVCeFyum+YXdGHcY0y3fccUe1T9HePffcU01f6STjzL522Lx5s/1rEuIxGlOomgnh/8Tovfy85fkLZt99991X/Q3Myzn5O9jbkTp+z9u2baum7D7hhBPS/PnzWxfPxrFKebzSdKw/0bF/PRzntaTb/ft0lJ+j3VrUTUG63UXC5bmNmC481D/fypUr09/+7d9Wf5fy6Oqmi6o8fgAAEKhhhkezxEnmiNPlAeZMH2hCL6s/bsr10+qjqxcuXFhdqW9UIrvrsssuS0NDQ62TbTSLk7GxneKko5OLux+m8wnwJz/5ydW2tY9N7IwzzjBi8Rf7zZlnntnab2LEnv0DZk9eJzj+Bm7YsMHfvh4WUfVjH/tYNRtajBAujz3iuKRdvC3vNx3/j3ceoP7xM3X+oN3nGe/rTebj62tW5+nI68dtcawWo6uvueaa5MIyAAAEaoGaaZ5Ensw6Sj/60Y/SgQceKDLCLCvXSour9Lds2dJ2Dc78fkGD8cQ6evnEcx4VE+IkZPl2v4vtE9skRlLbb2bOihUrxux7jH4MRiCK++eee6597xdOP/301nbxXAWz/1wUj7d4rfCVr3zF81CHH79PdWrpHTt2pC9/+cvpJS95SWuJrvoIaSY/Grw+zXg46KCD0qmnnpp+/OMfp507dzZeYNzueM5xHAAAAjV9P83XeAdJEcj23Xff1ppTwNyMsI4RLXF77733pnbTN8NEvvnNb45ZV4+x4uR8XCBiev2ZdfDBB7eey2j/3B/73jnnnGPf+4X3vve9rRFrZuiB2ZcfbxEyPQd17nF7/bac7az+8fF65uSTT26NkC5/1/XZm5h6oG738TGy+j3veU969NFHRx2/lb+byZyHEa4BABCo6fnpN8eL1fGxV155ZVq0aFG1LpUDVJj7EyERzVatWtUYzeJx6+QFE/nGN74x5uQkY+XtI1DP7GuOGFWUR2wx/nP++9//fvveL8RINAEF5n4Gn8svv9zzUAcfv090kWqE0M985jPp2c9+9qhZmZouUqxPZ83uPXbymtX59WScP3nVq16Vvv71rzeOqJ7OORsAABCo6amR000HP/nfb7311rR48eLWiWUHsDD7JzjKx1l+7MUJj7gaP6YebnrMWveMyQbqidbhE6gF6pk+qb5s2TIXR0zwmMvP+2effbZ9r2EEtX0G5mYEddwaQd35kbrpdX8cI8QsHOWxQ9Oa0flYw3Pr7P9dLy8KiNno/vmf/7kaVT3eRQbxe243lTsAAAjU9NyBbnngU17Ve8MNN1RxOqbldAALe+YkYRnO4n0xEnHz5s3J9G8YQT3z4qRu/L0TqI2gNoLaFN/Qb89B+SI2gbq7lubaunVres1rXpOWLFnSei2TL3oqQ3S70dIuQJ9+hJ7MiPR4O7/+jt9NXLR3+umnV+tU14/hpjLCGgAABGp6Zorv+jpIGzdurA6eykgmbMDcnPhoetzlkx3x78uXL68itXWo2Z0R1OVJNvFHoJ5N8ZyVR3I5sT12/cryhPa6devse0WgFk7ACGrGBsw4nr/55pvTO9/5ztYFYHld6fpo6ckcb7D7f9/LbV3er59Dyb+vGFH94Q9/OMUFBvXzM2bGAgBAoKavrsLO9+Pg6O67766uwK6PdnKSEOZumuGmq+/z/ZjVIB6f999/v/WnmVKgdjLSFN97KlAbQT25eC1Q/5I1qMEa1Iy9yHzbtm3VusYLFixo/W2tR9Dy7fKCKM+ps/86Mm/r8ZbVKS8miHWq//Iv/zI9/PDDo6b1zudnXJAMAIBATV+E6jgYuuqqq6o43S5iOKiFuTk5mE8m1dekLk96rF69Ot13331OWmAEtRHUHT/Ft1lYxn/M5ed5U3yb4htM8U2Thx56KJ1yyinV39Ty70b++1qO4q0/Z5aBun6s4fl19qb/rh/D5XMsTb+PQw45JH384x9Pu3btMksWAAACNf01xXcO1WeeeWZ1kJQPnsoDXgevMLeRejwxXe6KFSvSz3/+cycwmNA3v/nNcUdzIFDPJmtQT/55X6AeG6jtH2CK716cwaxcb3i8GZHi/4nXcQsXLmwdA7i4sPcee/nxFyOqb7rpptRuv4j3GV0NAIBATU/J6xzFgfIFF1wwJmI4QQhzH6fro6fz/ThxEWvE33777U5KIFAL1AK1QC1QAwJ1l8TpMirW1xquB8mNGzemF77whWPWLy5HQZvhrLdeC+Tf5x/+4R+m//7v/05Ny7KJ0wAACNR0rYjQTQc0+QA5DozPOOOM1sFRfSoqYO5OEtbfjsC4cuXKUetP19cqA4FaoBaoBWqBGhCoO1NM4zzeLGePPPJIOu2009Lg4GDrtUm5VIblD3p7ivD4vcftwMBA+tznPpd27tyZ2l3oMN7oewAAEKjp+Km+200d9ZGPfKSaQqw8OehEIczdyYn6FH5xgipCzz333JPqJ7icnECgFqgFaoFaoAYE6s4dQR3K1+xN9//rv/4rHX744aOi9Hgjpv197Z3XAOVSa+WI6lWrVlWvTXOUHh4entT08AAAIFDTVWG6LkZSx4FxHCiZPgzmLpLV70esPvTQQ1vhrP74dXICgVqgFqgFaoEaEKg79/h7vOPyhx9+OL3zne+sXofkEdLlhar150PTe/fuxco5TJe/3xhVvW7dulFhuj5FPAAACNR03cFyu6u4szhZWk4l5sARZn8EdT1SL1myJD300ENpqie+QKAWqAVqgVqgBgTqzo3V9913X9p///1bcbLpeCC/r3wt5zmyt47/8m0ZpvNAgfy+pz/96WnHjh0eowAACNR0r1iHuj7lWP3fyrWxzjvvvNZIageRMDcnKeJERDzuli5dmu68885UPj6tO41ALVAL1AK1QA0I1N097XccZ++9997Va7T8OqRdtCyn+q7/O73x+Cvvl+uO530g9pHwta99zeMUAACBmt64ansykeuss85yAAxzuAZ1nJxYuXLluCOnQaAWqAVqgVqgBgTq7joOj+PvE044oVrGpx4iy9dq5f1yrWJxureXeiovQKj/3mOfife/4hWvSC5WBgBAoKYvDqTj9oILLhg1kro8WHKADFML0OOdWIoTDxF16iOnQaAWqAVqgVqgBgTqzg3PE31cvM542tOeZg1ppj0FeD7/8tu//dtjLmYWrQEAEKjpqVHW5bTCa9eubR1M5zWR8sFSRDUHkTD5KdzKEw/5cTU4OJgOOeSQdO+994rTCNQCtUAtUAvUgEDd4UZGRiYVCWNq5vI1h32PqTxG6+uPx2v7JUuWpFtvvXXU8k+WgwIAQKCm6zWtTZ1HUjdNP+XAESYXIfLjJ0/RVkbqiDkPPPDAmDjdND0/CNQCtUAtUAvUgEDdGdpdWDo8PJw+9KEPpfnz54+Z0hsmOwNXOeq+3I+GhobSZz7zmVHHjY4dAQAQqOmJqb3r74twffbZZ7dGT9fXRQLan2DIJxPKYJPD4YoVK9Jtt93mhAICtUAtUAvUArVADQJ1F84+Vn/70UcfTe985zvHff6Hyb5eKPeZ/LjNM9v9wz/8w6iR0/WR/QAAIFDTFVd9l6On200NtW7dulFTTQGTOwGYTyzkx87AwEBaunRpihNYTVMFmp4NgVqgFqgFaoEaEKi7azayGDl9/PHHt7Zv/nvo7yLTeZ2Qjx/rr+dj/8r7VCzJ5tgRAACBmp44qG43kjP/2znnnFNNU+zqb5hYHj0dj5cyVEecjpHT443IMKoagVqgFqgFaoEaEKg7d1ms8u2tW7emo48+uvX6v3xOy/e9LmOyrxHK/SePpK7H6jgvE7d//dd/LVIDACBQ053iSu92oSwf6JTra73vfe8bsw4SMLnpvletWpV27NiRJprVAARqgVqgFqgFakCg7uyZyMLOnTvTC17wgtZFqfXXG03rC8NEj9F2fxfzfpRnt4v97q1vfatIDQCAQE13KUdptgtj9bWM4v/5yEc+4gAbJhGl8+MkTk4tX7483X333eOOnDaCGoFaoBaoBWqBGhCoO//4OWzbti395m/+5qilsMw2xu4eP9b3pfo+VQ4WyDN1veUtb/F4BgBAoKZ3D8DLqczOOuus1lXi9ZOKnTK6uj41Vvm+uTpxUAai/DW7afR5uX5yfT2sPfl77LQTfPVtUo/Tq1evTps3b3ZlOwK1QC1QC9QCtUANAnUPHB8/+OCD6YUvfGFrqmXYk0E7j6R2wTMAAAI1PSuPqI7Q9qEPfWjM9FKdtsZWPQbPZeCsX/lcbpNuOxFbrqc8V7/b+tdqWsttTweuib6fwcHBas3pBx54IBkhjUAtUAvUCNQCNQjU3TeNd/0i04ceeig94xnPGBUH7Vvs6UgdTjnllDGRumlZNwAABGqBmo4WB+L5YLwMauW032efffYejcCTPWiby7DaFKi79aRFXju5E9ZO21MjuCf7feWTfXl7RaRZtmxZNa23II1ALVAL1AjUAjUI1N03i1g9TsfI6aOPPrq6ENX+RCdF6jyaP/6ujnfBBQAAArVATdcdpLc7WI9Inaf6rgfNTjgJXIbNMhbXrzaeDfX1obppBHU9CJfRYS62XXlxQafG6TJG1+PXkiVLUlzMUT8ZIFYjUAvUArVALVAL1CBQd+YF2uMdD8fr+pe//OWNMyl53UUniEgd++QnP/lJF0kDACBQ01thut398847r2NPSueTBe3WC57tE9E53OfvoZtGU3fK9OT1UcqduH/l2zgpEJHmtttuS+0eL6ZZQ6AWqAVqgdo+I1CDQN09sTri9Fve8pbGi2dN8U0nvtb97Gc/m8a78AIAAIFaoKYrpjeL+01X4JbTfa9du7Z1YroTDtLLGFx+PzlMREicTUNDQ61gGbEo66ZoVJ5wyaOFY7vGNpzt7RdfN7Zhvt9poboc6V2umb169eq0devWNJnRGCBQC9QCtUAtUAvUIFB3jnL2o3z8G6/lTz/99FHTenveolOP3fN5kHhNtm3bNo9zAAAEanrjyvHy7Rync7yOg/kLLrigdVDUiSeE84nzufz+6iO4u+XkfdN0dfl7n4vwVf6OBgYGWgG4k/et5cuXp9tvvz1NZ+pAEKgFaoFaoBaoAYG68y7Y3rBhQ9p7773HPFd10sXZ0LQUVRyfxrrpHs8AAAjUdO2BeXn1eH10df1jzzrrrI44SK9/D3nEa5xYePe73502bdo0q6655pp07bXXtuS3v/jFL3bNCfwcuPL3++lPfzpdd9111c8yF9svbm+44Ya0cePG9PrXv751UqhTRlDn+zGa4uCDD0533333uI+P+nrUIFAL1AK1QC1QC9QgUHfuhdo/+MEPWjNj1ZdxMpKaTp39rNw3n/nMZ6Zy5jsAAARqgZqevcI8bs8///wxgThfxTsbI3Dro33rYbUc5fqBD3xgjx6c/exnP6uuwO+mk/j5e80Bdk+dJPrSl75U/W7Lfak+/fhsjyKvH/zHxyxZsiTF77VdmAaBWqAWqBGoBWoQqLvLQw89lA4//HCvqeiqi8vza414O16XxWP+jDPOGPdY1XEsAIBALVDTM1eaxwHOunXrqoOhclrm2RhZXZ4wyF+v3RXu73vf+/Z4RBSop3fhQxZT7MW61PE9lRGufkA+G/tZ/QR6fK1ly5ZNOK03CNQCtUCNQC1Qg0DdPR577LF0/PHHV8cdeSYu+w/ddvxejvT/1re+lcRpAACBWqCmp0ZM16cuLtfYPeecc8aMbJ3Jk5D1ON1u/eK4Pe+88xq/R4G6O0ZQh+Hh4errX3LJJY0XJMxkpG4XvsvR+bGm165du6op0yaa/h4EaoFaoEagFqhBoO4OsbTRbF8AC7N9QXV+X7w+22effdIjjzySypnvOuH8CAAAAjXMyNTeTQc4EYbjyvM4MMpTMc9EOGl3MjOfHM9Xuof4Hjpl/V+BevdHUYevfOUrjdO4z+RJ7vy5Yv/N+1TswyGm9b7zzjuFaQRqgRqBWqAWqEGg7iFXXHFFmj9//qjnpvoSQ9CpmvbVfFxw3HHHjZpRLl8ADgCAQC1Q05XTeZcxul0EPu2000adtJ7JcFKuE1xe5Z6j4llnnZXafe8CdfeMoM77VnlAffHFF1cH4AsWLGgc9TxTo/PrB/qHHnpo2rZtW2v/F6cRqAVqBGqBWqAGgbr7Pfzww+l3fud3Wq+njJ6m215jtDuWz7f/9m//5vgVAECgFqjpnRHU7SJdTH2c7//93/99dVA0Uych61NYxdtxUJZv433nnntu6pQwLVBP7yKIdr+zvL9dfvnlY6b7nqkTSfF5ys8VX2PFihVp8+bNjSPyHegjUAvUArVALVAL1CBQd6/Xvva1Yy58nukLrGG2H9/1C6zzfhwX8S9dujRt3bo1mdYbAECgFqjpamWAnujfIt6dccYZ1YHSTJ3ALtcDLt+Or7F27drGkd3jfc8CdecE6jL25osg2u1jGzZsSIODg631xmdy38oXPMQ+FSOnb7/99saLHvL360AfgVqgFqjtYwK1QA0CdfeJJYTKi53L4wKvq+jGdajrF/Tn+09/+tNTJ13EDwCAQA3TDohN0y+3m/L7Qx/60IwGxHzQlUe7RpiJNafH+5735EhXgXp6U8m3+13mf49IHd9jhOqZDgmxjy1fvjw9+OCD4+4/RlAjUAvUArVALVAL1CBQd6fDDjustUxUnpnL6Gm6cYrv+sj/ckaAPGDgW9/6VmsWvHZLtQEAIFAL1HR9wK5H63Xr1rWmmKof9JdXqNcjdD1O52mr8pXuoRw53YkE6tlz2WWXjRmhXz+h1DT9d96/yv2p3MeWLVuWfvrTnzpoR6AWqBGoBWqBGgTqHjs+jQte3/zmNxspTV89BwwNDaWf//znabzHhwuwAQAEaoGanjkZkKdkjrdzpC5P2JaBsAzPTesolQExnxA/66yzOv4ASqCe3X3swgsvrPaJ+nTf9X2rHqqb9q0YjR3BpTxwB4FaoEagFqgFahCoe8eVV16ZFixY4LUTPf/6t3w9Es8Fb3vb2zwPAAAI1AI1vSeuRG+64rZcA/r888+vQmK7CF1OTVUeUJUnMvP7Y1rvblgHWKCe2SjdtI9dccUV1T5TRrr8dn3q7nJfK/fDGN2/dOnS6meufw3rdCFQC9QI1AK1QA0CdXfauXPnqJ/96KOPNpU3ffU6JI4VwsKFC9PWrVsbj3WNngYAEKgFanoiVI93gHPaaadVJ7TLMN1uKuYyYMdt/phzzjkndcs0VAL1zBseHk71cH3JJZdU05blkdRN62/VR+nnE3bx/6xatSpt2bIllRdUgEAtUCNQC9QCNQjUveNjH/vYmIukoRfVZ6fLr9nWrFkz6oJsF2MDAAjUAjU9E6bLA5ymg504GPrABz7QWo86TzfVNBVVfQrm+NgPfvCD1eeMta274YBKoJ45+XfeTqxJHd93TNlXDwSl8qRUxOkYOX3vvfem+tdpN2IbBGqBGoFaoBaoQaDuHvGa/oEHHkiHHXZY6zgU+ul1cPmcEK+JJzpvAwCAQC1Q01UH/RNNxVw644wzqjhYjnStn7DMV/1GfIl/a7fmtCm++2cEdbtInfe39evXV99/rCcd+0892pXvi487+OCDHaAjUAvUCNQCtUANAnWPH6PGLFz5glUjqOmHEdRNS6mF5z73ual+bO0YGABAoBao6Wr1eNg0dVQ5BXiMpG4aNZ3fLke7nnvuuV0XpwXq2Tm51G5q9zw9d0Tq8sA8n5grL4aIgL3//vunhx9+OI23PxlBjUAtUCNQC9QCNQjU3R2p77zzzmpbeP6hX1+L5Didl8T62te+lsrj3fqAA69ZAAAEaoGarp7uezIHOOedd96okwX1tYJDOXK6KXp38gGUQD3z+9V4v+/8MVdcccWoKb3rU8XHtN5xomqiCypAoBaoEagFaoEaBOruDtR//ud/PubYYLwRp9Arr0Hy/fqI6kWLFqWmZdrEaQAAgVqgpq9i9tlnnz0qjMbBU57We+3atV19gCRQ77mR1pdcckm1D8XPk0/OxRXjy5cvT4888ogDbwRqgRqBWqAWqEGg7tHZvLJ43b9s2bIxF0PbP2Z2OummpZXq/9b0cey51yhf//rXx4RpF2oDAAjUAjU9fxV7OSVzHARdcMEF1QmUckrmmAK8239WgXrPipNx+QA8pvWOoFIfOQ0CtUCNQC1QC9QgUPfG7F11b3zjG6vtUK47Pd5Iaqa+xvFUP268vwMi9tx53ete5/UJAIBALVDTHyOlm6ZozpE63ve+970vzZs3r3Uytxeu3hWo99yoifz2xRdfnIaGhtLq1avHndYbBGqBGoFaoBaoQaDurjDdtHZuvr3llltax5f5OVmcnptR1E1vN338eO/3+nb25LWoy+Njx8YAAAK1QE1fjJ5ud/ATa1KvW7cu5X9vN1WbQC1QtwvNTRc2fOMb30j33HOPacsQqAVq+45ALVAL1CBQ9/BxZunUU0+tnovL5x1/u2Y3UJfTedfXQC5nS6MzXqesWbNGoAYAEKgFavovTMf98v31dY+6PU4L1J01oqLdCaxe2M8QqAVqgVqgFqgFaqDfAnXTa/38vlh7+pBDDml8zvG6afam+G4XqduNkDZSes++Ro6Zxu6//36RGgBAoBao6Y8r2ssYXZen/O6VAySBes9O891u2r9832hqBGqBGoFaoBaoQaDunWPOfDz54Q9/eFQkLaf29rpp7v4Oxj4YtzHVekwrHffL9cAnM+03s3OBQf49/Mu//IvXKQAAArVATW+rx8MyDg4PD6eJQqNALVBPZQTFZPchkRqBWqBGoBaoBWoQqLt/9HT26KOPplWrVjWGaa+ZZn5a79jGWexz8do0r3GcA3X9woD4mPi3/O/1z2WE9ey/Rsnb9vDDD087d+70WgUAQKAWqOn9q9rrU3n3cjAUqDtvanlTlyFQC9QI1AK1QA0Cde/67ne/2wqg9oPZkbdvPTrPnz8/7bvvvmnx4sVp+fLl6ZWvfGU65ZRT0l/91V+ld73rXdX9t7/97dX06/Hv8XHx8YODg6M+Xxmvc0y13Wf+d5hfr3z/+9/3WgUAQKAWqKGXCNSAQC1QC9QCtX1GoAaBeu6sWbPG73+af7PK15T5feUo6PL9CxcuTC94wQuq8Pztb387bd++Pe3YsaMajRtTrceMVuNdGLxr164UHnvssRRrht96663pox/9aHrTm95Uhevya9a/h3JkddP3xuTXEY9jieOPP95rFQAAgVqgBoFaoAYEaoFaoBaoezdQ5+es+hSu/cbjZG6mH+7n/auXA3XTcj4xE1f8vY9RvB4Dk5/muQzR9cdQrB2d347t+hu/8Rvpc5/7XLr66qvTQw891JoZrVyyq5w1bbJTtOdZ1PL7I3DH8ehFF12UjjrqqLTffvtV30NMHZ5ff9Qjdf7+RerJPT+W2+nQQw9NvbLMGgAAAjUgUAMCtUAtUAvUAnVjoPa8BXMzgjoea/00gvqDH/yg3/0U/041vT9P/5yfr2O7xmjn+nJcTVFzd5ZTKv/f/LXiNtYVv/TSS9OSJUtG7d+i9O6H6ng9F9vvq1/9auql5dYAAARqgRoEaoEaEKgFaoFaoGbMCGphQKifqRHStkd/T/GdI2lMFf2MZzzDUgJTOObLf6vqo6nDcccdl3784x+nhx9+eNTo5jIil/fLUdSTNZkgGqOpy4/ftGlTeslLXtKa9rtcS7k+TTnjT+9drkV97LHHer0CACBQC9QgUAvUgEAtUAvUAnVvOfXUUxvXEDXFN7MR+O1fv3weuvzyy/vieWjz5s3Vusj+Pk3/cRT7zDHHHJNuvvnmVIbhqUz/PJkR1E1huv6+8vOU30sW3+MhhxzS+DP43U5+hoVyu/385z/3mgUAQKAWqEGgFqgBgVqgFqgF6t4bQW3/ACOoZ8OHP/xhszRM47gvj6CN6bM///nPp/HWkC7/LYJy/eOmM733VP+f8nuIcB3f8/Lly6ufQ5yenrwPXHHFFV6zAAAI1AI1CNQCNSBQC9QCtUDdO0477bRWQPC8ZYrq2dyetun/bY/8GqEXo1NT1Fy9erW/TdN8/nnmM5+Z4ti1aVvH2tNTicqTDc67s1Z13Y4dO9Lznve86u+LfWDq64/H2/PmzUuvec1rvGYBABCoBWoQqAVqQKAWqAVqgbq3AnXsNzHCkdFytPd8Pr3AFtsvsz/9UgSn2Ca9PCoyTwsdayV7/EzvuO9rX/tamm4sLqf+nurnmMy04VP9nOvXr/e7ncLrlPpyADESfefOnV63AAAI1AI1CNQCNSBQC9QCtUDdGyMdTz/9dPtGwz6Sp2H2XD75EX9N682Wsdr2Gh3yN2zYkGZ6xGqnOe+88zyW2vz+mx4rcX9wcDD94Ac/6Il9Il+oEPv4lVdeWa1Nnaetbvr57Rujt0O+mCVce+21abZHvAMAIFADArVADQK1QI1ALVDPuhgp94lPfCIdc8wx6bnPfW41FWvc9rOjjjoqPf/5z6/kt5/znOcIKFMIbU9+8pOrbZa3Zdw++9nPbm3TfhbbILbNC17wgvSd73xn2qNcu+UCmJe+9KWtyObx0jxKNr8drx0XLlyY7rzzztTtAbJpBHfc3n777Wn+/PljlpWwfzSvU5+3Tbxdf91S3y/yxQAAAAjUgEAtUINA7SSbQC1QC9QdG49GRkbSVKZ07Sfltgmx1uuyZcs8hiYI1BFR4u1PfepTqSmaCCi/jErDw8N9sS2WLl06KrZ5vPxyyYByJHFsowULFqSbbrqp8aKFbnmOLmN0+bgv33/LLbeklStXNoZ6YfqJY55b4wKPuF28eHG1HevPo0ZQAwAI1IBALVADArVALVAL1F0z5aqT2+MHlroY9ed5ffzwlkdFfvKTnxyzdq79bOx2iPu9vF2uv/76NDAw0Bjf+v2Cjhyn87TesZ3KKZzLi2S6dR+p79/l357Nmzen/fbbr/WaJY8S9lz6hNaU3uXfm9hf4vyF51EAAIFaoAaBWqAGBGqBWqAWqHsiVjvhPTnx2tFjaPzwlp9//umf/sk+NcWLRHpxFoO3ve1tjSPtjZJ9Yus2x+l///d/T037Rn67m2YfKL/Xpr8veRTw1VdfXR2Tlxcx0PyaJe8z3/ve99JUL64CAECgBgRqgRoEagRqgVqg7rg41m3xY09to3322cdjaBqButdHCe+OepTupe0UP1uMkDVyerRy5HS+/453vKMxSnfzFN+TvQDjq1/9avV32WuX0a9RmkZQx+1ZZ51ldgoAAIFaoAaBWqAGBGqBWqAWqOmXkHjAAQd4Xm8YDZvvl8Gt3Qhqa533z8jHOGYppysun3/9HfrlqNhDDz00PfbYY6ndPtHNFw9N9L3nn/Ev/uIvvHaZxIUN8Rz7ile8IjU9Z4jUAAACNSBQC9QgUAvUArVALVDTg8Ew1qD2GJo4UMetKb75z//8z1Ejp70maj62u+aaa9JEgbEb42N9rfXxPubRRx9Nq1evdgFDw1rt5TbJ749zGZ5jAAAEaoEaBGqBGhCoBWqBWqCmDyxcuNBjaJKvVz/1qU95fPW5z372s6OmszaCeuwFHqeeemrfPk7K0dVx//bbbx+zvzT97e7Hi4Dy2xGo4za2lecYAACBWqAGgVqgBgRqgVqgFqgRqBGoKUbGvulNb6qCWh716TXR6PA4b968tHPnzlSG2n6YprndzxjTnL/1rW+ttk+5jeqzNPR7oI773//+91N9m3bzVPAAAAK1QA0CtUANCNQCtUAtUINALVCz237rt36rFdTyyFh++frnXe96V+rHNdnrU3+Xb992222t7TPRdNf9eGFD/vmPP/74ZM1pAACBWqAGgVqgBgRqgVqgFqgRqBGoKcLjvvvuO+rvUb9P751HBofBwcEx0zT3U3Csh+nSBz/4wTEXNvTjCOp2gToceeSR1barT5PuuQcAQKAGBGqBGgRqgVqgFqgFagRqgZq+dP311zeG6X4PjFmMLrefNEfrbdu2paVLl7bidMRqa5ePjtRPecpTRu0/w8PD9icAAIEaEKgFahCoBWqBWqAWqBGoBWr7TP/6xCc+MSoq5hGx/Roac5jOP/+3v/3t1DRyuh+m/K6P9I2fuT7t9wknnNDaduX08OV03/1s8eLFaWRkxLrTAAACtY0JArVADQjUArVALVAjUCNQE9785jePGfnaz+tQl4E6brds2eLx0WYUddxu3rw5zZs3b9Q+E297jv2/x1E8tr773e+m8cI/AAACNSBQC9QgUCNQC9QCNQK1QE3fiDVyyxGv+fVQP4ygbnrtV64ffPLJJ3tsTCKqHnXUUa0onfcbr6t/+Rx7ySWXpH5atxwAQKAWqKEvAnU+8M1Xurf7t6mcoGj6nFM9QSNQg0AtUCNQC9QI1AI1nSymHj7kkEPGTMfcj9Mzl9N6Dw4OVrdnnnlmKywKjO1deOGFAnWbEdRxe8EFF4zah+xLAAACNdBjgbo+LVvTVG1TidW7c1AtUINALVAjUAvUCNQCNZ3soYceSsuWLWsM0v0SqePnrB9Txt+eeG24cePGNJ0Rxf0k1qW+5ZZb0sDAwJQvEO91sU3i9rTTTjOCGgBAoLYxoR8C9VSCdLuPK9+ezvR2AjUI1AI1ArVAjUAtUNPJYv3g/fbbrxWj+2Fa73Z/a0IZ5YeGhsY8LkTGsWKbRKRevnz5qNHT/bovNe1bMUtBff+xLwEACNRADwXqpoPgpinGyig9mYBtBDUI1CKGQC1QC9QI1AI1vea2225L++yzT2sq4jyiOJ57++V1Uf3nzKOnI9znEcL2lfZxOt//sz/7s1HH5F5X/99jKT/PDg8PJyPvAQAEaqBPRlBPZx3qppg9nQNsgRoEaoEagVqgRqAWqOlkN998czVSONYP7tcRrznO1y9eXrFiRTUtc46wwuL4rr766lHbk9HPtQ8++KDR0wAAAjXQq4G6aVru8oRDnHjJ4nNlTe+L/y/kad6mMupaoAaBWqBGoBaoEagFajrdpk2bRq27PJXjnV56DJT342eP14VPecpT0kSjhvmlCPj77rtvdVzdT2uYT2RwcLC63bFjh/0GAECgBnp5BHU+oZA/tgzM5cnuppMu5fvKK7/LkxWTDdUCNQjUAjUCtUCNQC1Q08muuuqqNDAw0HY2qn5R/rw5sK5evXrUCGpxeuJY/5znPKfan0zx/YQxF9Fv2bIl5W1mND4AgEAN9FigjpPY5dR0cbXyM5/5zPSmN70p/d3f/V2KNdYirtx///3VFFvbt2+v5Pvbtm2rxMfceuut6Qtf+EJ6y1vekp7//OenBQsWtD6/QA0CtUCNQC1QI1AL1HS7ON7p92mZy2PIfHFzbI+1a9d6XEzRq1/96mpbGj39hDFrum/evNn+BAAgUAPddiV2TIcVgThOopUnD+J+njIrwsn8+fOrtcIiRl955ZVpZGRkRg8CYwq8T3/60+mQQw6p1morpxFvGqEd3+Odd97pQBQEaoEagVqgRqAWqOk455xzTutvfL7gt99Gv5YXHufZuOL+N77xDY+LKfroRz/at6PwJ1rjPEZQGzkNACBQA10Qpsv7Dz30ULWeVT64y9OuZb//+7+fPv7xj6cYaf3YY4+lyUTv6YqDyvD/2HvzKKmqc2E/61u/Jd2ALFAQoyjzDAKSKJOKEwJCQ8ukUROHRKPijdchzmiE5UQcQ6JRlyY4xDgs440xw725SYw3ua44xSHGOBIFZB66mb77x/6t99zvPb61a59TVd3V3VWnnj+eVQNNd9WpXVXn3c877Nixwz399NNu+vTpOVXbutGnl2vXriUIBUBQI6gBQY2gBgQ1ghoqjltuuSXY3jtpJFIWv2P8kVFyn7w3VqxY4WjpXRorV67kfDqwxiRxXdrp2z0F1gsAAAAAghoAqgAR1FJBLRXS+mbu3bu3W758edSKW4O8//mf/3HtEfD5v//jjz92X/va19x+++0Xiy6V6LTyAkBQI6gBQY2gBgQ1ghoqEYmn7PgiW0Vdi/On7fti5MiRvC9K5Pnnn6+Z5IZSWnzL5UUXXZQ30xwAAAAAENQAUKGoCNYZ1Brg3XHHHW7Pnj2uWIFc7lbfgspwy+7du90zzzzj9t133ygol/bjtPgGQFAjqAFBjaAGBDWCGiqRG2+8Mac7lT+2qBbaL4cqyIX+/fvzviixE9pLL71Ee+9AAoS8l8477zzWEwAAAACCGgAqHV/+btiwwckm/r333hu18S5VHLdF8J0mxEVUX3zxxa579+5uzZo1BKIACGoENSCoEdSAoEZQQ8UhXaD8as9aPB/yq37l9sCBA6NqV9oxFx8jv/vuuwjqhPnmCGoAAAAABDUHFKBK2LVrl9NgV6SzVkFbQWxltC+m27Ldt/xu254r6W83NzdHs6pp4wWAoEZQA4IaQQ0IagQ1VBqLFi1ynTp1is6DQm2Ja63Nt211vv/++/O+KBE5T6zFNvHFtPg+66yzXKHEdwAAAABAUANABVVQJ4nmYiulyymoNYgsFEzanyPjHgBBjaAGBDWCGhDUCGqoRE477bSgTKyVcyIr5uU42GMhY5tszIlQLMynn35KBXVCBfXixYujvQGBtQQAAACAoAaAKmkV1tKfs3K4XEFg0u/x72/rVuMAgKBGUCOoEdQACGoENbSGa6+91tXV1eV83ur5UC1VwfrtvbXV+fr162NJbeM9BGM4HpbzRAR1+HO2sbGRNQMAAACAoAYAaDl+RXRoc4INCwAENYIaENQIakBQI6ih0rn11lvjFsT+eVAtnBeFnqO2qBZ++MMfFuzsBZ/zySefIKgTzmPmzZvHugEAAABAUANA1kSxX61s/y0klGWe9c6dO53MiG5qaorQedFpGeFWPO/Zs6foALOUnwUABDWCGkENCGpAUCOooT246aab3F577VXTLZiT2jLL98+3v/3torpnQa6gttX4tYw9FieddBJrBgAAAABBDQDV3DaslGpm/fdt27a5X/7yl+6aa65xp556qhs3bpzbf//9o7livXv3jujZs2fEyJEj3fTp090ll1zinn/+ebd169a8Vm67d+9OfRwhoQ0ACGoENSCoEdSAoEZQQyWxdOlS16lTp/iz1m/zXcviWo5Fly5dnMR+Gte1xQipLAtqQFADAAAAIKgR1ACZFtU+mzZtcr/73e/chRde6IYNG+a6du2at+EgrexkU04QMaW3/Wx6CSjld5x++unuV7/6VTSHLO1x+LJab9MKDgBBjaAGBDWCGhDUCGqoJG677bbg3GkVtLUuqOX6W2+9lfP+8Lt3Qb6g5pw6fx3R4hsAAAAAQc0BBcgIsjHgS9/Vq1e7U045JQ6IZdNNxLMEhXKf3PY3Wmz7Ld2U0ft0HptgW9/Nnj3bSfAtgjqt1ThiGgBBjaAGBDWCGhDUCGqoVJ577rmceMi/XutyUS4XLlzo/ORkqqeLE9S0+KaCGgAAAABBjaAGyAy+8BUp/Ic//MEdeeSRsVC2okkDQiub5T4V0f6HhAptX1j7v0Na4U2ZMsU98cQT0UzrQpsVbGIAIKgR1ICgRlADghpBDZXEa6+9FneS4jwoHzk/lM8SHftE8jEV1C1NdEBQAwAAACCoOaAAGeKNN95wEyZMiN7cMh9MBbIEgbKZ0NJN8FBQaYNs+TtakS23hwwZ4latWuV0NrUV1gCAoEZQA4IaQQ0IagQ1VKqg9hNxfbFWy+hxWbJkCdXTRfDpp5/GnchYP1/I6cpGi28AAAAABDUHFKCK0c2ApqYmd+6557oePXrktd+2YtoK51CAnBQ0+zPX/DZ39t8k4BTq6urcGWec4bZt2+aonAZAUCOoAUGNoAYENYIaKp1333036gylMVQo3uF76P9E8Z5UUduRTsR5YUEtx0vWkx63WkfHjM2fP5/1AgAAAICgBmg7aPlVPvx5zroB8Pe//z2qWLYb+kntujti80Kk+YsvvlhwHbChUd73FscTENQIagQ1ghoAQY2ghtL48MMPXX19fbwWENThhGY5T7z66qudjTv8+GPPnj2uVvcF9Fh89NFHBbuT1SozZ84kkR0AAAAAQQ3QPsEZtJykFtl33313VC2tbbIk6LXV05WyiSFVCFdddZUrZo2Q1FA4ScFPVvBvAyCoEdQIagQ1AIIaQQ2lIzODu3fv3qLxSLU0h1ouu3bt6rZv304icsJzleubN292l1xyibv44ovd4sWL3UUXXVTTXHrppdGlHA8+ZwEAAAAQ1BxQaHd0LjHiumWV04oEuNoiSyWSnTldKRnaIsx11tRZZ53lpB15WiUw66LwGrAJCxwvQFAjqBHUCGoABDWCGsrD+vXr3X777Zczg5rzofwKak2Knjt3rkvr9pVUXU2yOdi1QkwLAAAAgKAGaPOgjMCj5ajIlcvp06fnbZTIhnWltg2zj+24445zsh7kefjrgfXR8o4EvuinEh0Q1AhqBDWCGgBBjaCG0mhubnb7779/zsgk/xJyY7ynnnrK+ZXDtSxlbRym4p44F3kPAAAAgKBGUEMHyjSpnCYwa1n1rA1y582bl7hBopn+lSKWbOWBbqjL5QknnOCSZpLJdeRqfvV0qPrgj3/8Y/A9RaAPCGoENYIaQQ2AoEZQQ8vi14EDByKlC3wPyXHRYyNCf+3atc6PQzSmq+VxRBqrEd+mJ1cj8QEAAAAQ1ABthshpqfpdsGCBQ561PLv4xBNPjDdKdEOg2uajibSWTY3Zs2e7Xbt2kVFeQhBvZfVPf/rT6LW/6667OIaAoEZQI6gR1AAIagQ1lIljjjkm8bMXco+JJiRLW3Qd5ZQkpGs1XiFOo4oaAAAAAEGNoIYOYseOHe7www+PglfhlFNOIQApAa00nj9/fl5Vsl631cmVOCvNlw0ivuS+yZMnu507d7q0ymEqqHMr6GWD4+GHH3b19fXRcezUqZP79re/7dgAAQQ1ghpBjaAGQFAjqKH1XHLJJXnxlG35Xev454iaPD1q1KhYUtvKYcQ0pB0XqswBAAAAENQAbYIEqFI5bat8Jbg/7bTTaONcQuWsVBvbTenQhoC9XqmbJ/5jk+tSVW/bfSOn0/nJT34SbZ7a5IS6ujq3fPlyjhkgqBHUCGoENQCCGkENrURef9upivOh4r6X5DgdffTRcZyPoAWkPQAAAACCGkEN7SpTNfAQyThhwoScSl8VlBLELlq0KJgpW2tystDzlXnNWc3Y16r6iRMnxpLaD1r99ZG1oLaU5/PQQw+5vfbaK5ioIMfxO9/5Ts6GkP3dSdcBENQIagQ1ghoQ1ICghs95++23g12qOC8q7jtKY7tiYg5iFAAAAAAABDVA2SunJXvaF6v2tgi1r33tazUdkKbJafm3xsbGeKPMtvau5CrplkpqaWGuLeFCCQ+1sD6SugrIWpDK6W7duuXNHrfV89L2+6abbsqpSJfjRrcCQFAjqBHUCGoABDWCGoqP0bp27Rp/1/uxGBR+D0miuoz6KiYOJlYBAAAAAEBQA5SlElRmCh977LGx3AgJDg3w5WdETPpBaS0FqXrcfAE7Y8aMPBnpb05nbcP9mGOOSUxY8GV1loT17t27XZqw/ulPfxpv+Mhx0vUQWgfyMyKps155DghqBDWCGkGNoAYENYIa2ophw4blnXNnMQZry7FOIvnXrVvn0uJfkmkBAAAAABDUAK0WrML27dvdlClT8jLMrejwLzt16uROPfXU+Hf83//7f2smQE16rnPnzo2Pkd0I0Qr0LFVP+5uCMrO8ubnZFSPxa6GC+uGHH44rOOwakGPntxvUS6mklnbftfZ+AgQ1ghpBjaAGQFAjqKEc8a3EY7oeOB8qDSv2e/Xq5R588MGghK610V4AAAAAAAhqBDW0kVCTyulp06blzZv2JaS9zwb7IqmTKklr5ThKa+aZM2fmVU0nHcusbbartJYNIdumuhaSFEIVz48//nhOkkLSGvAr7OXn5L7bb7/dJUl+KqoBQY2gRlAjqAFBDQhqCCPn0fYcm+rplonqurq66Pq3v/3teJxTaO40shoAAAAAAEEN0CK2bdvmJk2aFLcg9mWZXtpNZ1sJrMH/aaed5mq14lMEZUNDQ1xVnlaBLsc4C7LargnbOk/ul0p8K6mtwM1KGzh/c8Y+r0ceeSRaB2ntvK249iW1rptrr73WJbVLB0BQI6gR1AhqQFADghrSz4f8uBYKf0/psZLr+r46+OCD3UsvvcR7CwAAAAAAQY2ghtYjmc67du2K2jJbYeoH8mmBvfw/K13PPPNMV2szqAWR06H23aHbWdsc8duY6+0FCxa4HTt2ZF6u2qQMeX6PPfZYtJGj742QkLZz3JPmvsnPS9XCrbfeiqAGBDWCGkGNoAYENe8hBDUUmUD65ptv5iQOU0FdfAKyjVH22muv+Php/CKd09577z3nx8N0eAIAAAAAQFADlFT1e/jhh0fBZqiVtw3kk8SrLyfl8pRTTqmp4PSEE07IOSb2WNp26FncGAkJME1qEKQyX5IgauX9JHLaVh3Y4+O3xvfXi01esO8v2RhasmQJmz6AoEZQI6gR1ICgBgQ1FIGMr0pLCIXiv69C8azEJ+ecc07NjHUCAAAAAEBQI6ihjMgMqWOPPTbOim5p4B6aRy2/66tf/arTKm2bzZ41ISnzlrU1ekjaM7vs/3Nz5swpeT55Ja0XrVgu9Jh+8pOfRBXP5a6Sl/dY165d3bJly5xfQe3PpNZ/o8oaQY2gRlAjqBHUgKBGUEMtV1JPnDiR90UbfYfp3kHv3r3d/fff7z799FNnu7QlxVPEKQAAAAAACGqoocA8JNWkJbHIaZXLcmnbD5cqp22QqhtDcjutkrqahLUfZOu84RkzZsTP22/ljBj6QpxdL8dDqsy1krpaXnv7ustjTpuvLpXTuv7LNV88JLpvv/32vPd0aBMIENQIagQ1ghpBDQhqBDXUYocwvb5ixYrgSCIoz/tMzqP0en19vbvwwgvdhg0bXFLc78cwdIcCAAAAAEBQQ42Iar3e3NwctV3WYNKXqS0N3m31sA1aZUaVFWjVJtOslLTHsbGxMT5WOtsMkmdTyzE6+uijY8nrV/z691fSe8fP8vdvP/roo9GmjBXT5RKDOsdaW+rJ37nuuuuix8SmDiCoEdQIagQ1IKgBQQ1hUb1169aou1EooRhaN97JJtLq+04uu3fv7ubPn+9++ctfpsYqaYm/AAAAAACAoIYMZpJLm2Wp+g1VQPuSudgq0NC8ZX8j9vTTT3fVHITa4Fqex/Tp02NhSOV04Y14u65E7Bdq912J4lW7EfhV1U8++WS8IVNuKWPb7quoluuy0XbnnXc6X5YjrAFBjaBGUCOoAUGNoEZQE/t+fn48YsSInORp3ietT57V7zKbjGxnU+t9Bx54oPv+97/v1qxZ42xnN7s3kdb1DQAAAAAAENSQESQAPOyww6Kg0d88VtlaavVnSEjL/7ViRC+lkrraWnqFZg83NDQEK83lthWKbIDkV1Fru2+ZB6ftvn3BWunrwm6sPPTQQ65z587R626fZ7nkjK6hUGW2VKRfc801bOQAghpBjaBGUAOCGhDUkIAkSusIHs6Lyhvb2ThFj68mJ9vj3aVLFzdkyBD3b//2b3EcFZpDjaQGAAAAAEBQQwZpamqKq36Tqqb1up1HXapIS7pfRcAZZ5wRi8lqQyqn582bFxSQ5WqTnvUZZbp5IeLspJNOctJuPkn+VqKU1uppeXxPPPFEtNkSeg+01esvx85uAnXt2tXdeuutLq1qBBDUfA4hqBHUCGpAUCOooVZ55JFHeG+0URV1UsK67QSlsZ+ek/bo0cNdccUV7s0334w6rCGlAQAAAAAQ1JBhRKpNnjw5tW13qF11MS2+7eyppGBV23zp71+0aJGrpgxplZLHH398YjWrLycR1LnHJyTKpAJY1mWlzp5OE9UPP/xwzpoOtbcrhxi0v9uuO399qeTw24/z+YegRlAjqBHUCGpAUCOoodbQ+EKSNjds2BCdExU7vgpKq6D2Y38V0/7P6WtgzxHkPOzee+/NqaYm0RYAAAAAAEENGaqcnjp1alCa2vv8OcGlCNZQG2K9bgWuvS6V1NVyDCVInj9/fk4bZ1/Mh+5DUidXFuulbFDMmjUrnkldDRsSjz32WFQ5bRMvfDFd7tc+9D61/yaPZ+nSpY5NHUBQI6gR1AhqQFAjqBHUtUyoI9O4cePi733eJ+WL70IxcdJ+g//ztgV49+7dXWNjo/vFL34RxYXEMwAAAAAACGqoogA8dL9kjk+bNi3eqFFp7Au19gxibWb1ggULnM4crqRqTz8gnjlzZhxMt2RONxTeqJ89e7bbsWNHUZXU5V4r/usd+v36M9IiUNZupckXbct/22230SYPENQIagQ1ghoQ1AhqBDWYaupnn302dQZ1WySYQnF7BDbOFjp37uwuu+wyt2nTpmCMlhTraNV8W8aNAAAAAAAIagQ1BAIvG3yJTJPM48MPPzxHTndE0K0tvmy2tD4O+bfTTjstfty2PXF7oX9TK3j9YLahoSF+DsXO3YaWtQCXFuo6n1xeF7uu7ezn9kr08O9buXJlNPM5qW1dR4sOOZb19fXuuuuuc8U+J0BQI6gR1AhqBDUgqBHUkDU0ZtBLkZ377LNP1AFJOxIldcTifdQxglrRhHaJa0aPHu0efPDBOJE5tG8QEtOhmJGqbAAAAAAABDW0g1hrbm6OKlJDc6FtQN4RLcBUmljJd8opp7g9e/ZEz0MvO0JW278vl9J6WjeRZV5yRx7DLGOTGObOnRuvhfbYTPAFeOg9JZseTz75ZDxPvZLm11lJro9L1uqdd96JnEZQI6gR1AhqBDUgqBHUAP8vtjv66KPzEkz9mI7zpo4X1XqfjlNSWS2J7X/729+cjDArpRMWMRAAAAAAAIIa2iFDXNi5c6ebPHlyPC/ZVk7b+bXtKVhtBbLdFLCV1CeffHJqFnR7S/4ZM2YEZ/6WOp8bik9gkOMqm4oTJkxwfkW7/1qVU1qntcnXymnZIPGFS1JlfUfP+dbKgyVLlsTHyn+ObNQgqAFBjaBGUAOCGkENWU/gtkmoK1asSJWjvH8qS1bbvQIbf/Xq1ctdf/31bvv27a6UuKa99xgAAAAAABDUUFNI6yuZOW0rUv2q347KDtcg0w84bXvir371q66jAkcNbCW7Xqp4Q5sV8lgrSUpmSU5bmSFyVeaTJ0nqcqMbV3ppNzkeffTRaA6aXbeVNqPOHjv7vpJK6ltuuSWxvV1HdSkABDWCGkGNoEZQA4IaQQ3tmcQtSGzRvXv3eBa1H+dRQV35XbdsPF5XV+dOPPFE9+tf/9pt2LDBkYALAAAAAICghg5CZvceccQROa1+rUizwXZ7tij2504ntfHSjYKFCxe6jpwPNXPmzOAx8qWkPl42C8qTuBBqnS7rWRMWdMOhLSqoQ9UWcv2RRx5JXbuVcPzsOrVt8Gy1/7Jlyxwz1xDUgKBGUCOoAUGNoIZaE9P+GJ8LL7wwsbsYgrryRhjZmdR+Mq4Iahs/ytgwmTUur7OfiNuWMSQAAAAAAIIaarqFmcycPvLIIyNB5Vcmp811ag9R7f8NeYyhwN+K7DPOOKPdA0j5W1o5LcFuUuV5KFCG1m9C+MdZjq9UAEtWvCRfpFVDtEUrwIcfftjtvffescCy1dOV2OI7aVNHrnfp0sXdcMMNVE0jqAFBjaBGUAOCGkENNSmq9Vz/lVdeic6N/RiU86XKQmLBkJgOvVY2XpP/c/jhh7v77rvPbd26NRbViGkAAAAAAAQ1tAHSqmz69OmJ7buTgrn2rqL2A0kr90JV1osWLWpXOS0iNClDOykYZiOjfbLmZ8+enVcB3JabDE899VTOGq30meN2LnqoY4KK9eXLlztfxgOCGkGNoEZQI6gBQY2ghiwmcYeuSwzRt2/fvO+ppK5f0PHJtklJ96F9Dnld9bWVfz/++OPdG2+8EXXlQlIDAAAAACCooYzIzOnx48fHFb/VnAFuW32rWDn55JNzhFprqz/9oFR/b0NDQ16FOZsTlYNU3UuHgJ07d7q22LSyPPTQQ1FVRVaknn0eMkv7qquuCs5nQ1ojqBHUrBsENYIaENQIaqgFJBnVjz194QnV/z2rr63EkpKUIO3d16xZ44rZJ2hJ8gMAAAAAAIIaMt2azJfTM2bMyGlHXY1yNWmmlMqVU089NXr+OotY8W8XOn72OOr/lctZs2bFlbJJVejQ8YJVNhsbGxujNm2lbgTs2bMnLzHBb+ktl48++mi8mVFJc6bLNeNbrkvb9BUrVuTMZQt9xrDZgqBGUAOCGkENCGoENWSVYcOGxXE0o5uy1x7cT3aWGEjPjSdNmuSef/55t3379igm1FjIjxkL7TEQLwEAAAAAghpBXXOiWsSSBE8TJ05MbEcdavNbDRLSimkrqxcuXBhXUodmibVU8k+bNi3+Oxq0InMqt8WbbC7IutfXs5gkhbQ1YiXtj370o5yWcFmT/HZ+try/lixZkieoqQZAUCOoAUGNoAYENYIaagE59/dj6awkqMLnnwW2Qt5e1/h/7ty57v33309N1i1UXU3rcAAAAABAUENm8Ss9pc3xcccdl9OSOmnmdLVtJIWyn/X5nH766TnHodRA0B5HEfwSjNrZvaF5vmxQVOZM6vnz57umpibXmveSzZRfuXJl1NY7bf54tWLnaNuNt27durkbb7zRpUl7QFAjqAFBjaAGBDWCGrLIZ599Fq0VSYCli1b2KqjTYjl5jeW1l5/Rz4uxY8e6u+66y33yySeJCbuIagAAAABAUCOoaxYVRzKLV4Oq0IZntQbYthWxL4lVHC5atKhVUlKPo7T1DgWvcl2FHhsUlSVY7esla3/q1KmuJTLVT/iQWWShFu9Za/fnb9Lo++qmm27Ka4FP9TSCGkENCGoENSCoEdSQ9dh66dKleQmdvIeyGfukoZ3UNEaSedWvvvqqk25dEiNpzKkxErESAAAAACCoEdQ1WUktlaNW2Fmx6wdh1SbXfLnuC0MJHOW2bCQU2945JNykXbgvPn1BjpyuzA0G+5pIxfM555zjit2ACt1/wQUXuPr6+rz3i782srI5o58T9vkddthhUVcG+15h0wVBjaAGBDWCGhDUCGrIeoeyXbt2uUGDBuUlxPI+qv7xRmkxfdK/636EfkcfdNBBUTLz66+/7nw5TcwEAAAAAAhqBHXNVU+LSDrkkEOKamtVrdnNKgxCgaTItNZUek6fPj3nbyZlVsvxY3OicjYYQjPKDz74YLd582bX0vfTJZdcEm9g6u/XS38+WdY2a3TG++DBg9327duDlQDS+pzPXgQ1ghoQ1AhqQFAjqCHL3HHHHXHsx3dXNhN0Q/8mr3fSmDQbM+ntAQMGuCeffDIaMxVKfi4leR4AAAAAAEENVcuGDRtc//7984IqX7JVUyVoSBSrJNSqz8mTJzsN/FqSrTx79uzo99jfm5RJnbU5xFnJgNdNxwMPPNDJ3LiWJHmIeP3mN7+Z08ot9Hey9trr89ONt5EjR7odO3a4tKoS5qghqBHUgKBGUAOCGkENWUXPdeV7izbf2Yshk0R12j6AL63tnovc3n///d1ZZ53lXnvttWC8RPwEAAAAAAhqyHwl9ZYtW6JKahtc2aA6JKurQUAmZTgfd9xxOW2I00Ra0sxpv2VXljYfCs3NDlUIV9rzL7RpoDOTpXJ67dq1rtBGk9+CTS53797trrrqqjw5nZUKAV8I+ZXn8u+yVoYOHeqam5vZPEFQIzEQ1AhqBDUgqBHUUPO88MILbq+99io46olzKrp6WY444gj3u9/9zkmr+LQOb/4MaxKEAQAAAABBDVWDBisa2GjQIq15+/btG23CJEnXamz1rSJSr48ZMyav0tMGd76E9DnhhBPyWjmHsqqrfZPbVocnzfKuxCrhtAQFP6FA5oBJckZS0F/ofXT22We7urq6TCYoFHscpfuCbqIwNw1BjcRAUCOoEdSAoEZQA0ng/+OmTJmSOGrKbw3N+wxJrQnfQo8ePdxll12WkwDs71GE4lXZ1yEeAwAAAAAENVStuJZ234MGDXL19fWpVbXVNmtYH/8xxxzjpOq1UMuspHm58+fPjzcR7Ga5rTLP0lzhYsWrHotK2GDxX3etXrDt1OS+Aw44wK1atcr5871s0J+0PuT/XHTRRa5r166Zq4KwiR26SRJa53I8R40aFR8/svMR1ICgRlAjqAFBjaCGWm/vraxbty7qsmS/v0Ldt2gBDrYjmR0f1q1bN3fOOee4119/3YWS6oupoAYAAAAAQFBDRUtpP5gW4TR48OAcUeW39q0WMW2fg4h32w5Lr/uCMmmjYcaMGYl/o5paoLekktoXvJUu5dNEubb1bmpqcmnZ5mm3Fy9enCOns/i6p81wl0v/GAKCGhDUCGoENSCoEdQAn1dR33XXXXnnTlmMG6F8SeK2+5uNx/v16+defPFFp4n0hWJXAAAAAAAENVRdxrdKW5nJK617tYrWr0qtlo1arZ49+uij40pP2w4rLZCzP9fY2Bj9HsmC94NHW1mepRbfodv+rGlfzlfCGtHHZ18XuzF04IEH5sgjP0EjNHPcJm+cd955rkuXLlXZ9r4lbdJtIoYe25EjR8Yz3NkMQVADghpBjaAGBDWCGkj8/t+KVntuvHXrViffYXoe7Sf7Uj1dW/K5mPg19LM23h43bpx74IEHgp2+it3nAAAAAABAUEPFoa2vNbCROc3Dhw+vOgHnP96JEye6UJV0koi098v/mzlzZs7mlN1ISJvTW+0txuxzkmSFqVOnBp9rpT3v0LxkfU5SRS9t7O3rayV1aBa5XR9XXXVVzgZTFisg/Ep53SzR4zpkyJCocrrQrHZAUCOoWTcIagQ1IKgR1FCLotrefuutt6JWzTbGqrbkb2j/PQx/z8FvAd6zZ0/35JNP5owvo9U3AAAAACCooWpajqmgs0GLn4m7ceNGN2DAgGhjppoErErEI444Iq709LOK0wI3FZezZ89OnL8dChqz1upZnpPMI1+/fn10PObOnRtXpYdEcCU9f32cirRFW7NmjUvrIJBUTS3r4cwzz4wq6P3Ng2pqf9/STH/dmJWEFUlcYdMDQc1GIoIaQY2gBgQ1ghog/XxYY8/zzz8/LzbJ4qggKE+isH6nh859NFFa15N0B5Mkao3RVFinjTEDAAAAAEBQQ0UF0mkBzJYtWyIxpRvv1SLXpK13KKO4GKEmx6OhoSEOEkPzpitVzJZzo1sqpzdt2pSTwCDSPklSV5pYlccnQk2ex6pVqxITMdKSF2QtXHnlldFzts9XNwyyWEVvJbwmZ4wePTpv5rS+l5KOHSCoEdSAoEZQA4IaQQ21KKnt7V27drlRo0YFY0mAUAyp9/ldu/z1o3HbAQcc4O67776c5HySiQEAAAAAQQ1VyZ49e/LafR988ME54sq2KGvvWbyFqlhFpqXNyFUhnxSwnXDCCZnfQEiaM6zV4J07d3aSnBASuccee2zesUkLrG07snIF8Pr3VaDqpT8zW7LKZS2UEpzbiupzzz03L1EhKxsg9vVJ+jd5zgMHDszb7AAENSCoEdQIakBQI6gBimPbtm1un332ic6lJLZIi40414KWdj+Tjl/33HNPzl6OHweHxlsVk7gNAAAAAICghnZDJa4GKDK7d/DgwVHLZz94DrXAbg+xGpKSxx9/vGtubk6snE5r5yzPubGxMd6IshsHWZ8VpsdSnnvv3r2dtHdPOlayJubNm1dQ4hcjsVuzUZiWuCDrVJ6HiCJdw/o8/GBdLv375Pa3vvUtt/fee7fr+m7PjVb7OvnvJb2Uag+/choQ1GwEIqgR1AhqQFAjqAGKR+KQlStX5rRwlvOqrI0Jgo7vgCVrbNiwYe6pp56Kk7S1ACG0LgUbD/tFCwAAAAAACGpoN5IybbU9mUjqUCV1e2V7+1Lc/v2RI0fmtPW2gjUpQ9jeP2vWrETpnqXNA/tc7POUY9mzZ0+3fft2FwpMbSt4Oc5Tp06NN+5CVbhp7bBb8/r7r5FkitvnJu24pc3Z1q1bXUvX/uLFi6Mq8qyuATvnLCkDX7om+DOnAUGNoEZQI6gR1ICgRlADlB5jSEwqo4PkfIrvNWgrSa3no4JU7X/44Yd5+yNpI94kFqY1OAAAAAAgqKFisr1tYC2VtX379o2koBUV7dniO1T5edxxx+W0IU5qXWWrgW2W8EknnRT/Tr/VcZaqp0PzheVSkGrh9evXu2LWgRxXkdcLFy4MVphrq/C23oy3r5X+TZHTq1evTg260zoHnHPOOa5r167t9lw64vW3x8/ONZPbwpAhQ5wkpBR73ABBDQhqBDWCGhDUCGqAdEktSb6HHXZYnOBLBTWUs8OcXU+StK3J24sWLXKffvqpK7TnU+z9AAAAAAAIauiwwFoqbKX1rwqt9ha4viycOHGiC7Wg8jODrWCz1dUzZ84Mys4sicmkKmQ9nv369cupOLbyPlRVb/99+vTpeXPA/dnT5dyACf0tTVbo37+/W7t2bfBxplXSa7W4VDVYEZLV198X1bqJIf82dOjQuE2+tr7n8w9BjaBGUCOoEdSAoEZQs2ag9UhC8IABA1xdXR3vMWjTDln+vPPrr78+7pAVivGskCY5GQAAAAAQ1NDhldMhSSX/JnNpBw4cmNMiuj0ywG21p/ztyZMn57T1Tsr09WdQKyqn/c1vK2JUxGdFVurrJM9HpKTMa163bp0rVGls5zNrUKvzqhoaGoLt0cu9JvzXwAbgBx10kNu0aZMLtdMrVAksP3PuuefG7cLt49a/mQUxF2rJb9e2yGn//UQGPSCoEdQIagQ1IKgR1AhqaH1srZfvvvtuWccgAWLar6TWcwMbo8t1GeP0/PPPu7Q9EiQ1AAAAACCoocPwRWSoGlX47LPP3OjRo3NmALdXACYceeSRiTIt7XGrXJ07d25w3rS/SZClFt8WkdMSoErb9lI3V/xgVY+nBsL+MS33Rrw8dr0t1QfS1vvjjz92fpBtX/ukdS0/e/nll8ebRCGpnrVKartpoa+VdEXQymn/NWZzAkGNoEZQI6gR1ICgRlCzZqA8cbbETi+88EI0VohzKyhnbBcavWXPFfTfL7jgArdhw4b4c83fVyH+AwAAAAAENVRMIJ1UhSqBTJ8+fdpN4GlLcZmDnVYpXQhpS+3PYQ5VzGZ1Lpg8ry5duuS09U6rLi7mOMt9Rx11VF4QXM5j6GeGy+vWq1evnESFYip99Wdkc0gqp3UOnP+4/czzrLT41uelm67SZlDbvfmvbSjBAxDUgKBGUCOoAUGNoAZoHcuXL89sMjR07DmB333OjwX1vu9///vOr/AnBgQAAAAABDVULDrvWQMYaQ89aNCgWPL6Uq8U0evPTApVsU6bNi0WkjaIKkZMinyTSl/5XVmVz3Yj33+OWn3cs2fPqK13uTOj5fc1NjbmSP9CWdyh19r+W5KYkN9/4IEHRpXTpbSjtgH4xRdfHIn6rEho+97T45+UPKL3H3LIIU7myvPZBghqBDWCGkENCGpAUEP78t3vfjc+dy8mPg3FVQClJiwrEhPOnj3bffTRRwX3Bvy51YyAAgAAAAAENXQIfnCya9cuN2zYsJxNZD87txRJ7Wf7qkw79NBD4zbEoXbToUxf++8nnHBCXitnG6BlZcawP4fKVoXvt99+bSok5Xgfc8wxeZsmVliHEhfsY096XnY99OvXL2fmdCkV33L7X//1X/MeU9YSFNKy5eVSEktsW28ABDWCGkGNoAYENSCooX0544wz4rFZeq7lJx1nKWaFypLUstYkvv6v//ovlxY/U10NAAAAAAhqqAhEAmqQopciCw866KC8mdSlVCsn/awETlOnTnU7d+50SVLUD5j81uSSGay/zz7GrAX5fhtsu8FWX1+fM2uqLYJL+Z1SZT9//vw4KzvtWCetjaTkBpFk0uI9JIHsOkjK6Jb7zzrrrLhyOqvrwG9Rbo+nvCbDhw+POhH4ySYACGoENYIaQQ0IakBQQ/sg8Ytw2WWXxeda/vkW51/Q1uj+yNlnn+38jnn2uu4fUD0NAAAAAAhq6PBg2r++bds2N2bMmGizVDd0WhJQ++2JrZyWoCj0t5OCJBFwJ554Yk4bq9A83qwF/tLKW4+lBJwHH3xwNHM6LRu6nEhgKxXr/oxvvR0S0P5sZH8DXu6Xyum1a9cWbOEdeo6ydi6//PLMJijo8Utqma7SesSIEU7eq3yOAYIaQY2gRlADghoQ1FAZsbUk0dpOWEmJvJyPQVsluMv6k3FgdoxWaL9AEyt47wIAAAAAghravXraBiq+IN68ebPr379/jswodnPZD44kKP/yl7/smpqaXKji138MIfk6a9asxA1dK/KSZvVWY3Bpj7e8DnV1dU5eFyuP2yt5QY+/L7f85IBQooC8JjZZoU+fPu6zzz5zSUI8TVbLv0tGuN8+r5T289VWPR2a5T148GDnHys2FwBBjaBGUCOoAUENCGroODTO1TFEmmxsWzH78B6FUvZXCnWys+OvpNvYsmXLnK7LpCIBAAAAAAAENXSYpNbgxG8TLDJUWgjbytliBbDdiJbKaduyu1AFt318IuEWLFiQU01sA7UsCOlCG9YiY6UdtpW69rWzwr/cbbr098l88jlz5sTH24pTv7I6KaGhc+fOrnfv3u6TTz7JebxJ2dyh53PFFVdEot7/21laB/6Mab1Pn6t0N9ixY4dry9cdENQIagQ1ghpBDQhqBDVA6Ym9evvGG290Xbt2TUzupZIaykUoFpZ1pfGjJHgzEgoAAAAAENRQsVnezrTSttJLxOTAgQPzZlIXs8kqQdGgQYOcn6kb+ltJQf7xxx+fE7j72eZ2Hm+WMqRtm2fZ2NiyZUtQ8LdFoJmWST158uR4LYQ2V0JJA7opKHJaq35DyQhp98v/++Y3vxlMUrCPIyvrwJeI+rzkvdjc3OzSEk34XAMENYIaQY2gBgQ1IKihYyS1PR9/+umno3OvtO9Azsug3OcSNuFZ48gBAwa4jRs3xmuUuBEAAAAAENRQFcH1+vXro7bM9fX1JQnWY445JhKSxbTwDj2OefPmpWYEhy6z1OZZNjJE6mrldFoyQbkDzCTxLX9HXhe/xba/sWJfM3lNZHZ2kvDxn1fo3y+++OKoAjuUEe4H4Vlq4SbXVcqPGjUqqpxOer3ZZAAENYIaQY2gBgQ1IKih4yuoLa+99lo0D9gmfNPiG8odP4bico2RdSb6vvvu6/77v/+bLlwAAAAAgKCGykYFpQYtu3fvdiNHjizYokxvH3bYYW7nzp2uGAHpB/XyN6dPn54o7LI4T0qFrr0tG/pSLVtp4lHWgrRtT6patpnbgswy37Rpk0urLnAprb0vvfTSOLjOwutvj5edEZb0M/JvMnN627ZtbCAAghpBjaBGUAMgqBHUUGW89957UcK3JJ76SbZp17M+zgrad4SUrCdJ+v7FL35R1GchldYAAAAACGoENXSoiLS3N2zYELUYlqBas3BDM3OPPvrouA1xWlZu0r81NDTEG0m+SMmSWLFznO0GhAaOcrz1GFVadrMkMJxyyimpbcXkNTzwwAPd6tWr87K0/ZnkoVnk8jNnnnlmPHM6S6+93zLfXwu6DuS9NmzYsKjVPp9JgKBGUCOoEdQACGoENVQn69ati5K4k5JU/XjHxlW8j6Gc5xoSiz788MM5c6n9UW/FFBkAAAAAAIIaQQ3t2rJMKmGl1bAGNyIPrZw+6qijnBXbNrBJC4D0Z2fNmhWLWivxslRB629GyKaZzZLv16+fa2pqqujWWzqf/MQTT8xrK6brQqoEPvnkE1dM67tQdfUll1wStZUPVepncd64vzZUTm/fvp3MdUBQI6gR1AhqAAQ1ghoy0KXsiiuuyIl1bSxtxxhlcYQVdAw6MkrXlK69O++8MyfODElp4lAAAAAABDWCGjpUSisyT1ouRZ6KRLXtyUSsjh07Nq709KVqMXOnZ8yYkVg1naXA3MpoWzWtldOSBFDJwaFf7azt2PW5yPMTGbFly5bU6m//+ej6kvvPPvts16VLl8RjV83o+8Y+Fyv49ThKa/SkWeAACGoENYIaQQ2AoEZQQ3UgsZ2NfZ577rkcUWhjQhsv0OIbyvk5aKv09fqECRPyYk6kNAAAAACCGkENFSeo7f3r16+PZlJLoCOB8zHHHBMHNmkBjZWV+nMitU866aQ4CPdbm1kRnkWxohsPUnG8ceNGFxK6lRgkqkSXy8bGxui1kuxsaeu9atUqF9qMKfRcZA1dfvnlcZZ3qB121l730H2HHHJIPMNd1gObBICgRlAjqBHUAAhqBDVULxrj6Xm9nGtIgrfGPUky2sbCAK35DAyNnZL1NXfu3MS9nErs5gYAAAAACGrIeIZ3MUGJBDEHH3ywGzx4sPPnVWtgU6h6Vi6lrXcocPIrp315Xc1tne2MbQkKZXNx8+bNzh7btFZblZTAoI9v4sSJkWQXsRqaKV0MF154YTCAztrs8ZCY1vulclrltH/82CAABDWCGkGNoAZAUCOooTrltJ7ba/wkidrSjUpiARXVttsS7b2hrbp46aXuR4wbNy6nixsJ0gAAAAAIagQ1VGwltft/LZlFpGog0xIp2dDQEAVHtko2adZ0Ftt8y0ZE9+7dnVSkFzpWldbuWTda5FKrfJMSFYqpol68eHE0czpJSGdtg8auc904la4Ezc3NwYpp5DQgqBHUCGoENQCCGkEN2Yqt5b7//M//dN26dYtloXwnaEU1359Qjriz0LgpuZSudn5yPKIaAAAAAEGNoIaKkdKlBipJ0loCn9DMaV9C+pnjWZCU+nzlUiqOt27d6qpVQBYjoP12dqGK/SuuuCLvtbXrIosV1P7l0KFDIzmdlATAZxMgqBHUCGoENQCCGkEN2Yi1/dioqanJzZs3Lyf2oYIayrn/4Mef9t+1gv+2227jcxIAAAAAQY2ghmwjldNaQZrlANyfJabPUTbK6urq3Lp161zSJkUWWtgV87PnnHNOXDmdJckg61pff72Ufwut91GjRuW09QZAUCOoEdQIagAENYIaaguJjX72s585fV8nzaUOJfL6XciSupIBFDoPfvDBB10xs6iprgYAAABAUCOooWIFZaiKVqplZ8+enTODOcsbzXaWtm4wiCA68MAD3bZt21xLpG414Lcj1xbg/n1SOR1qM1btSMv6pApwvyPA6NGjnVRM8NkBCGoENYIaQY2gBgQ1ghpqO4YWJIl5zpw5UVWrxkoqrEPtmotp7QxQzN6FrqlnnnnGJYlouZ21JHsAAAAABDWCGjIaYFumTZsWL1RtI5W17O400SoBn8hLK6ftnKcsBHhpz0HXhQjsr3/969Gstay3U9PEBE1U0OuyFgYMGBDN7a60+eKAoEZQI6gR1AhqQFAjqAHaP46yib0vvvhiTqcpK6SLSe6lihpKnVEt1+UzU3jjjTcym1APAAAAAAhqqIEA21bUSha4zpT2K0pta7IsZiCr9JDKacmIL1XsZq2y/rLLLnNdunTJZHZ/qCLcPj8V1iNHjkycOQ2AoEZQI6gR1AAIagQ10IFsx44dbsmSJa579+5xLKGEZDTnedDSGNbGr5IYIZ+db775pgt1SiNuBQAAAEBQI6ihKpAgRtp624Dabsja21kJqO1z0us9e/Z0W7dujTPibeV0lgM8P1Fh8eLFOaJCA2E/cSFr88ft+h84cGBUOe23SANAUCOoEdQIatYMIKgR1FC7yd2hzkrybxs2bHD9+/ePz+NsDEXFNJSzglrXlEjqiRMn5rXztvsYAAAAAICgRlBDRQbYyvz584NtyGzwk6UZxDbAkzbmIiT33nvvaFPBzuIOCdysiOqk53HBBRdExyLpNc9KBb3fEUDWgFZWDx061O3cuTMopRHVgKBGUCOoEdSsGUBQI6ihtiV1aL6vxFfCCy+84IYPHx6fs3BeB+XsAqZ7NDZOnzFjhkuK96mkBgAAAEBQI6ihYpFgxlaTymWonbcfBGUpA/mAAw6IKqdDEjLpehY3WS699NJ47ngoMcFPWMjCGvArHIYNGxa39UZGA4IaQY2gBgQ1IKgR1AAtSQJ//PHHXZ8+faLzFhtjA7Q2dg19fj7yyCOumIR0AAAAAEBQc0ChIpg5c2aOeE6Tj77Iy0qLZ5mzvHHjxqCQzGLltEWrxPfs2ePOO+88V1dXF6ycztq8tFD1tFyOGDHCyQw5//VGVAOCGkGNoAYENSCoEdRA5XSp8YG0A3/sscdcp06d4nM8qqqhHMnVNnlc1laPHj3cxx9/7BDTAAAAAAhqBDVUXBDti0mZOW0rY7M0XzppxrAV8fJvffv2dZs2bUqcL5yVGU5pa0E2Ta688socOZ2lCvkk4aIt0nSNjBo1KpbTLdl8QmIDghpBjaBGUAMgqBHUACEk5jz//PPdvvvuG4tFK6xD3cuS4nM7riiLMTy0/DxFKvaJTwEAAAAQ1AhqqIjKWJGPNjjRy+OOOy5nhlHSzOksCEoN1uzzFSlZX1/vtm/f7vxj5R/DapXU/uPVVnN+26+vf/3rUUZ/1jL5/TZ6oXWt9w0YMMDt3r07r4reXxNpUppMdUBQI6gR1AhqAAQ1ghogCYkXJCF28eLFeZWwmjTrd7HyY1w/dtcYFzhHEeSz9Oabb0ZSAwAAACCoEdTQ8QGwf12E2/z58+PAV+cNZ2m2sK2Q9Z+TBP5y3/777+82bNjgWhKwVVOQJ5I6qR2drIVvfetbbu+9906V+9XeAk2r5UPJChLAjxw50smxkGOVlCneotkAAIAASURBVIQQur/aq+oBQY2gBgQ1ghoQ1AhqgI5h165d0Xrv1atX/P2i7wNbPR0axUX1NCTFwLpOPvroIxKpAQAAABDUCGroGKyUlPnCen3GjBk5VcShdmJZCHJtAG833EX87LffflHldEsCtUIVtZW8DnwuvPDCaP52WoVxFl7/0Kxp/feBAwdGayHtWPnrJFSJbm+TpQ4IagQ1ghpBDYCgRlADJCW3+omuDz30UCSqNYnWJpHb0UShLmGcM0IoUX/ChAmu2vYuAAAAAABBDRkW1TJz2ga8Sa3B/LnNWZg9rRtfwvr162M5HWrRLPf5UrLaxbR9/JKwcN5552VWTqclWthNHK2cLkbqJ73+fpcC5DQgqBHUCGoENQCCGkENUEyXM4uMG3r++efd2LFj82RjISGdhfgdyrsPIp+p9913H/EpAAAAAIIaQQ0dn6GtldOFZlRlbQaxbencr18/t2XLlmCrq2ICt61bt7osrIurr746p+11aN5Z1uZP+y3fR40alVNFX0z1tP6M3Ldz505XbKU6AIIaQY2gRlADgpr3EIIaQGMGjdWTZPW7777rTj/9dFdXVxd990iCuX9+6I8xAs5RQtc/+eQTR4tvAAAAAAQ1gho6LADWyunQxrM/yypLUsTO2e7bt6/bvHlzcCPA3tZKWV84XnvttW7IkCFu48aNVZeFbMXq2Wef7Tp37pz4umetktquZ13/UjntC+ZCFQ26LmQzaenSpW7KlCmJkpoNAEBQI6gR1AhqAAQ1ghqgmE5NfrtvG0tIgvSKFSvy2n3b7+ssdsKC1se/sk6ERYsW8ZkKAAAAgKBGUEP7I62cTzrppJxNH5WRvvyQ2xrcZkGM6HPo1KmTGzNmTCwTQ/OEkzYM9PbNN98c/a76+vpIdFejFJG1cNVVV0XHI6llXNYktX0e+jxlLezYsaOo6mddK3opm0c33nhjlPAg76cFCxY4O9+dSmpAUCOoEdQIagAENYIaoDXCOnS/JMv+8Y9/dA0NDfF3kbxnkNPgx/KhBO133nmHz1UAAAAABDWCGsovHdMk67Rp04KSIyviI9TSzAbp8u/S1ruUVt5+FeySJUui46V/SwSviGqppK6EudRJUt2frS0zp7OUgOC/zkli3bb6HjBggNu1a5crJTnBcuutt+asOfm9Rx11VKKkDlVSI7ABQY2gRlAjqAFBDQhqgJbS3Nzsvvvd7+Yl40oSrf2+CsV+fryE4M5m5zD72srakHO8pGRsiU+JUQEAAAAQ1AAtEpN+MCGBhlR6NjY2xkGqL9WyVCGtz80PvCUQGz16tNu2bVtRIjkkE7/zne9Ev98XoCKphw0b5tatW+eKEZttnaCQ9hxkLVx88cWuS5cumZtTZqu//Zlbfga5tPWWzZxiJLKtmLaJCl27ds1ZZyq/58yZ43bv3k0lNSCoEdQIagQ1AIIaQQ3QLkj88f7777tvfOMbcZcsjY/0MilB2Sbxcs6ZzTnU9nWVfaG//OUvzu4R8B4CAAAAQFADtEklrd/6K4tZ0r4otPJdbg8fPjynsjUkDOW+UHW1XN5www0Fha5sNq5evdr5v6ej0cciz/9f//VfXV1dXc4xy4qAsGsgtMGia0HasvttvQslKVhJfffddwfXgW2JLu85+T/2dyTNk0NeA4IaQY2gRlADghoQ1ADlSFSXGENinWeeecb16dMnktWaZF2og5YV1ZAtQe0nbk+aNMkVk6QPAAAAAAhqgJKwIkwqp62c84PPrASgfgW1vZS23jJzWgIuKwOTMoX9+5cuXRplGWvmeei4qUAaOHCgW79+ffz/O6Ltd6hVtWTUn3/++a5z586ZnC9tZ6oniWl5rkOGDMmrbrbrIpRcYOX09ddfH1ckyO/Vv6vH0VbVH3300XEL8aQOB8hpQFAjqBHUCGpAUAOCGqC1cb8ft+h9f//7393y5cujDloax2qHMY2X9fvMj6UhOy2+7bmLvL7yGStzzNP2EgAAAAAAQQ3QompZuZw5c2ZiS+8sBp1+620JusePH583EzhJHIdaZN9yyy2JQboG9/Y+Edm9evVyH3/8cdxKvKMzkeV5XX311XliPYvCKzR/Wl4TuX/o0KFxW295Tfw1EEpY0Pvk52+//fa4Tb5tJ57WZvyUU06JJDWBPiCoEdQIagQ1AIIaQQ3QFonJSZ2Z7P0S17z88svu2GOPdXvvvXccG/pxDd/92a+kVsaMGeNCcTCxKwAAAACCGqDFVbNCSE6HREdIsmYh8JLAetCgQa6pqSlRQhYSx9dee21OW2/bEitN8EsLbdnYl0rq9gzuQs9H/v65554biVW/yjdLFdRJa13vEzmt1cyh45b2Osm/yfxx+X12DfibOXad2GMt7dNEhsvvUfjMAgQ1ghpBjaAGBDUgqAHaYi/AJl/7sY5c37x5s3vsscdcjx49grET553ZR/Ys5Dzm1VdfrYikegAAAABAUEMGAlMRsNrW299YroVAUwJred6HHnqo27p1a1BOa+WsDdT9gEwqp+V4acWsLz9tlbbf7lmPvUjRDz/80LX3poRtJ33ZZZfFLal9oZq1Nt9+2zJ9XpIZrpXTxUp+bQMua2XZsmVRS7zQ6++3yrdz26zIXrhwYdRmvlDFNgCCGkGNoEZQA4IaENQApSYo2+t2zFOSxNbbq1atchdeeKE74IAD4vefHWkUGm/FeWl1tvm2idR6e9q0aa6UJH4AAAAAQFADJErKGTNm5Gzq+HOn/XnUWamgtoJQZk63ZvazzBm2G89pIjetbbZIpW7durm1a9e2W5CnwaVsRkjltGwu2Kpf/3lkbXPBrxIfPHhwLKf9TRl/jei/2wSG2267LXEd+HOvk+ah6/WpU6fmzb+mmhoQ1AhqBDWCGhDUgKAGKGf1dEsEt8RAf/7zn6Mka7/bGoK6+gV16DXT85hNmzZRRQ0AAACAoAZoHXPmzImCjFqQGb4s1PlZw4cPj4RkMYG6ndet98kms9/KuTWb1lKBPWzYMLdmzZpWB3vFBIwiqKWd24IFCxIFarW377ZV62li+JBDDnHbt293pWzs2DUhLd6l9Vk5q/vnzp2bJ6lDjwVxDQhqBDWCGkENCGoENYIaoL27cImo/vjjj6NE3QEDBuR1hrKdpEJJ3X5ifJoYhY4/jxGWLl3K5ywAAAAAghogmVBFsJVqMnM6JCRbK1orWUjbVsoSBIuQlDnDhURukvyTwCzUCruYADokS/U+kdRSSf3++++3uHrWtu0u9P9PPvnk+HH7z6Wa0XbroWPsr3m/crqYdtp2Ttv3vve9+NiVawNF23/PmjUrXqNJrfaosAYENYIaQY2gBgQ1ghpBDdARldcSO2m88te//tWdcsoprnv37vH5qLYAt0nEfier0PdlVrq3ZQH72vXp08dRPQ0AAACAoAYoSqD5AWVDQ0NOxW5WW29pEOVX0Mpzl+zuLVu2lCz39GduuOGGaM6wyu5Qm+aWCkl9jNIubf369a6ls4dDz8cGkvJ7jz322GjDIJTBnrUZ06FNDrl/xIgRURW5f5w1yUPvDwXhcoyvu+66qHK6nMkddma5bLhOmjQpSqYotUIeENSAoEZQI6gBQY2gBoD2ltmS/PvEE0+4yZMn57UAt3GTTZAOxdVZSqDOAloV/+KLL/JZCwAAAICgBijc3llbAAsip217Jj9YzOpsYRvoHnbYYVHb5KSZwqFjaeXlTTfdlPM7ky6LeXyhmdR2ZrFs+H/00Uc5orQl+P9XZOfpp5+eI++TWqpVa+Cc9lrIOpDjLHJ627ZtqSI/JIL1eN59991xkkdbHTt5rJJE0NjYGEtq/zG1Zm0AghpBDQhqBDUgqBHUAFDqPkNS5y4/Tlm9enXUFrpfv345sWeoUtrKa6qnK+8zVpkyZYojaRoAAAAAQQ1QdAB54oknBuWFrTDNYiCowZQ8x759+8atnC0657dQgCXVsnJ89HfajO5SNub9Y5wmUg844AD36aeftjjw80W83J4xY0YsafxjlEUZ4Ld3l+vS1tt2GQhtrOhtFcD2WEoVvd+urpzHz64nraQ+4ogj3I4dO9gEAAQ1ghpBjaAGBDUgqAEqquW3xNI2XvJ/Rv79jTfeiEYY2XNWPW+VrlT2+9J2weJzrvLOZz755BM+bwEAAAAQ1ADpSNXlvHnzcuY/JcnSrAR/foW4BL/jx4+P23rbYFmltK1CDWWCL1u2LOcY2uxuG1gXK/j9yunQv2kLrWHDhrlVq1a51mwayGaBPFeZCWYfdxYz00Pzpu2MbZk/LokKodfc30Tx5z/L/xE5XV9fn1edX842dH7ygD7+hQsX5rX7poIaENQIagQ1ghoQ1AhqBDVARwnqUuIRia8kFnv88cfdhAkT8pJ8bSyXtQTqLHzOSqwhr8ttt93G5y0AAAAAghogPWicNm1aMODzBYa2Pc7SJrA+3yFDhuRJvVL4zne+kycL02RisW2o0ySSbVMtr41sTq5bty6vNXmxGweyaTBnzpzoMar4Ds3szuIasEjl9Pbt2xMrp0Oi2iYs3HHHHTkJEHbTpFwbKEm/W9+3Mjt8586drthqBkBQA4IaQY2gBgQ1ghoAytWdrdDP+HFo2gglOSe76KKLokRwjbNa2qkM2udcRl6fE044wRF7AgAAACCoARKZP39+wfZYfuVvVsSGVgdL9fHWrVtbXH0sldNy/DQw9qumS5k9HZKnVnaGqqptW+qhQ4e6TZs2uVKfg8hMWQt+EkKo3XsWK6l1g2P06NFxi+w0EZ202SKJCjJz2n/tk2aKl6OC2p/JJpfyGKQ1ni+p2SBAUCOoEdQIagQ1IKgR1KwZgI6W1qXIbKWpqck999xzUfc3Tc7l863y0GR3eY3Wrl3LZy4AAAAAghogP0tZ5gxnNaiz0i5JEgpjxoyJ2jiHWnoXUzmrbb3L1ba5tc9ZNt86d+4ciZVQa/JQ0C/P6ytf+UrOzOksvP7+/HT/NbJJGfJzocrppNfenz0tSAuzUOV5R4qOk046KZ6jXcwmEAIbQQ0IagQ1ghoQ1AhqAKh06S2yWt7P/fr1i+M6PYez8ZjtOOUnjrckkRyKG1GmsfdLL73EZy4AAAAAghrIWP5f+aQCSqork6RqlgI0fY5+FbJcHzBgQDxzOknih64r119/vevSpUvOPOj2On5Jf0MltTw3P1vZl48iLuU+aQdtpUFWqqTt+k6aAS4bFvJzUkUfavGeJnXt8bzqqquimdOVcuzsup86dWpcFY6YRlAjqBHUCGoENSCoEdSsGYBqT7jXOE06Rr311lvu8ssvz+mMJXFeXV1dMIE9q93BKuEcRtqw2/vHjRvHZy4AAAAAghpqEZWqEshpACeXDQ0NwQBCJV5WArVQ23IJWOX+Qw89NG5/rIFuMTJSL2+55ZbEOcPtnZ0cEk2yCde/f3/3wQcfOJuc4Av4r33taznzi7PYvjutXb0cp+HDh7vm5mZXKNEjVEUt90vltH0fVYqAsa3VpJLaT7JImlWOrEZQIzEQ1AhqBDUgqBHUAFCJctrGNHaPQ2X17373OzdlypQ4Pgud92Z5hFUlnMfYTmaSxF1MJy8AAAAAQFBDhjOMFW3rHcoezpKw0Oei4lhm8uptaQNmq2VDx8nKO1/sXXvttanBbHsfxyQRK891v/32c2vWrHGh5AWtnPblehbWgT8PPGlms0h8bYGdluSRtFZuvPHGnBnglbT+bYKGbNBMnjw5WCVuN3WQ0whqQFAjqBHUgKBGUANAte53KJ999pm7++6788Y92XORUIctaP15jI0z5Hj/9re/5XMXAAAAAEENtYxIOKmi9Ntd6+1KmKHcVgGSDUoPOeQQt3XrVpdWbZ52HJcvXx7LPzvLuiMzsP3HYeW8tq/++OOP4+clc5ZPPfXUPFGQper5tCBZK4tl/rgK29DrbuV0qHr6O9/5TiR+rZyuNFFt39fyes+bNy9RUiOoEdSAoEZQI6gBQY2gBoBK7xAXimH80WZ6KfsgTz75pJswYUJcVS2fB0jptu/0pp+7P/jBDxzxJgAAAACCGmqY2bNnx5XEaS2ustTq2Rfxo0aNcrt373Z+5agGumniTn5u6dKlidXmVkxWQrDrz1nu1q2bW7VqVfT8JFFB/z2UnJCFYD1U1azCXiuntcW7rSD2ryeJ6zvvvDMvG9/OO6uE9vb+THQ9JtOnT0+tGgcENRIDQY2gRlADghpBDQCVSKGxXGn//s4777g5c+bkCOosJup3tJz2E9+POuool5RcAAAAAAAIasg4s2bNCraz8gWFzgnKWotvCToHDRrkNm3a5IqpFvXnTQvLli2Lq2VtsOUf00oJcO3z1wBRKqnnzp0blKhZyyD3ky5ssoIkKuzYscMVU0GsgbSV2ddff32cfe8ft0oUf351vTxGafVvn1OhzR5AUCOoAUGNoAYENYIaADqKUEerQpXVIWSUl4zAuuCCC+LPBSR1+T5j/fhY4+YtW7bw2QsAAACAoIZayiyWQO3EE0/ME89+0BCS1Vna7B03blxe5XQpQu7mm2/OC1xDx8zO/K2k9s76eOS2L9hD2c5ZzeKWyxEjRrjm5ubg5kahOcxSdfy9730vp8uAPZaVdOxCj8+2O5e10NjY6GixhqAGBDWCGkENCGoENQBUo6RO+/dQrO///zfeeMNNmTKF8+I2iL39hPlPP/3UkRANAAAAgKCGjLa3CgVrIqdDc5KzFID5AtIKOZEw/fr1yxOSxQS5moV93XXXxWK3EmcM1/omvq1aD702tnJa5HSoxXvabZuNLzOnsyRX5LkceeSRiTOpQ50EaM2GoEZQA4IaQQ0IagQ1AGRFdkss9Pbbb7sDDzwwTua2LartPkMoqTvLyf6t6dzl33766acTK+BJmgYAAABAUEMGgiu9lLZVDQ0N8UZMFgOmkIy0olIYP358JKdDIj9JRNrg6IYbbogCUb9dVdbaYVf7RmPS3G0bGI8ePdo1NTUlBsEh8ao/I5XT3/3ud+O/l4UkBbvRsmjRoqCkTto0YAMBQY2gBgQ1ghoQ1AhqAMhKNbZcl3hwxYoVrmfPnqmdskLn0JxXJwtqvS6V6n5SOMnPAAAAAAhqyEh7K3v7hBNOiAMqnfmT1TnDfhCkmc1SOa1zhkOVoPZ2KDBasmRJTpY0YrqyN/STNhBExA0cONBJ0kZIrCZVUNuflRbv+vuzWkEvldShY1SMyAcENYIaENQIakBQI6gBoBr3VPy9gvXr17uJEydGnxd1dXV5ldQ2HmR29ReKlvVjxowJJjxL/E0CNAAAAACCGjIgqaV98bx582KxmuXWUyF5LMGiCPmRI0cG23oXmkml98nGsPwuv3KaDOnKq6D3xbSdty2XUjm9bds2V+i9ExKvcp9U0cvGRGjNZWHjQI/jXnvt5ebOnRuc1Q4IagQ1IKgR1ICgRlADQNYltXbPksTda665xulnq02I9hOWdcYyn7PpHHTQQdFxDR1zAAAAAEBQQ5UREqzHH398LOZ8OZ3Fyk99Trb18rBhw+LAx6ItjK2IDMm4ZcuWxbK7kBSHytnMD20S9O/f3/ni2Q+E/feR/fc777wzfj/V19cnthbPSqt8uT579uy43XehhA5AUCOoAUGNoAYENYIaALIoqiX++etf/+q6d+8ePG/OamettkiM1vObN954w4U6lgEAAAAAghqqPJiS6keVDmlyOmuBlD4fuRwwYIDbuHFjTsBjA82QuLbccsst0fGys6zt3Gk9roidjkdeI7/dmk0sGDFihNu5c6drScswkdrS4l0rp7P63rHr3D7HGTNmRMfOvo8Q1AhqBDUgqBHUgKBGUANA1pL8C8nSTZs2ufHjx8dV1HZ/IIud6tri3EZiTOGZZ55xpRx7AAAAAEBQQxUwf/78HFHnz2a2l1mRbPZ5iEgcN25cJCOVYoNRldYvvfRStHEllbKh4xSaOQWVJ1zldbIt3tPEqk1Y0Epraen2m9/8JmcDIoubDqH1bK8vXrw47kSgx5D50whqBDUgqBHUgKBGUANANSf2F0pUDu0jNDU1RXOpZSwSY79Kjzs1zlyxYkUcc/tFBaxPAAAAAAQ1VCl/+9vfXI8ePXIEU1rAFGqLXK3BjoiWvn37BmdOlxqorly5Ms7u9cW+nyVNsFmZCQsip7VFddpmRCgI1vuk9fukSZNyMuSz+N4JPS+5lI2XdevWsUmAoEZQI6gR1AhqQFAjqAEgExRKtvVlqR8vSox54okn5pzL+IUBkH5+I13/ionLAQAAAABBDVXG66+/7mRzKjSDulqlqpWBIUkswaFUTmsr59a2+pLg6IEHHshpf6x/N+m4QtsLVD32/v22vbtcjho1yu3YsaMsAa5sQEyZMiVv88GXuUnztSrl/RNar353BfszvXv3dhs2bGCTAEGNoEZQI6gR1ICgRlADAHgduBobG6PPk0LJ65xr55/jCHTlAgAAAEBQQwbbVIlk/eCDD1z37t1zWk/prF5ftFZrK2KVgHIpldMS4PhyupQsXG1jrP9Hfp9UUsvf6tSpU86GsT2u0L4JCkn363WZPy6Vz+XMwpbEB6nITmvtroI39Jgq7Vj6myTyWaDPSzZZ5LrMcGfeNIIaiYGgRlAjqAFBjaAGAMjfe5FE5j59+pDE3kKKqWYHAAAAAAQ1VCmvvPJKJKlVTCdVnVajpLaiWMThtm3bclpEtVSs2d+h1x988MFYUtDeuzJmjYeqquU1krUgc6yS5o+3prJeJPXUqVPjx6Iy2l73H2slrBH7GAq1nZP30z777OPWrl3LRgGCGhDUCGoENSCoEdQAACls2bLFjR07tuqS/yshrrcdz5hBDQAAAICghgwgcs6e5MtM6i5duri6urocwVdtkjUkJOX5iJC0MtJKyVKCm1BApBXVwg9+8IPo79lK02qsQq92MR1qq61rY9CgQVGiQrnfUzarWyT18OHDg4+rUqunbWV3kqzWdSyb2nbmNBntCGokBoIaQY2gBgQ1ghoAIJlf/vKX8V4Bn7HFIxXoLdm7AQAAAAAENVQYImbtSb2KJbnvnXfecT169AhWdVZiC+Ji5k9Ly+1+/fq57du3580uspK6tZXU9phKu28rR6uxAj0L86itmNbrkqhgEwpa+/oXSgI56qijcuZn+fO0KjH5I2kWvV5KEouV07T3RlADghpBjaAGBDWCGgAgvfOacMcddzAGrIRzHNlLsRXUxJ8AAAAACGrISHAUyj59+eWXo3bfuiFTDWI6VEUrj1uEyvjx46OWy0kBTanV03Z+d6iCWrn33nujwNOfhw1tH8BaiSavgWaojxo1KkpU0NeurbKv7dqQbO9x48YFK+lD1cqV3OZbrossWr9+vSNzHUENCGoENYIaENQIagCA0hDZOmHCBNe5c2fOrYtERqklFQcAAAAAAIIaqgy/ktg/wX///ffd3nvvHVUfV5Nc1ccpl7JhO2DAgLxsW/+52wrych/fH/3oR9HjkdbpBJYdI1p1TYwePTqnNVhbZ2DbRAZZD7IJoRLBl9SVlAiS1HpcRL9s0n722Weurd43gKBGUAOCGkENCGoENQBksUjAxk2vv/56VY1R6+hznIaGBj6DAQAAABDUkHWsqHvllVeiSmqV1NUkJkVKHnLIIa6pqalgxXhIWpfzWP7whz/M2eCC9ptDrdfHjh2bl6jQXl0K9D6R41ZS62WlJX+E2vrLY+zZs2dUOc3nJIKazxkENYIaQQ0IagQ1AEDLY0XZf/j617+e17EKwkyfPj3YyQ4AAAAAENSQwYBJ+fDDD6NKat2csQGUPz+3vQIrK/RC7bPlvv79+7u2kM4tPaY//vGP4ypU+1y0krba2qhXgjy1rdzT/j1URd9RSCv4IUOG5M3H9jcmtO233167rY+t//f0GMo63bBhAxsBCGo20BDU7ZooJ/Tu3Ts4p5G1iKAGBDWCGqB9v5vpnFReQS3njPX19XFBgN1X4Twn9zznS1/6kitUdAAAAAAACGrISNBkT/r/+te/um7durm6urrEgKm9qkD96lNfSMrtESNGRHOGQ3Oh2yt43717t/MD0JUrV0aP0x7HjhD81Y5tj53UjlqvDx8+PG7rXQmBrKxJWQtHH3100a99e82otu9rO8dbuihQOY2gRlAjqNsT+x1KBTWCGhDUCGpo69hXzs9///vfuz/+8Y/uhRdeiC5/+9vfRpd/+MMfaho5Bn7HMSpYyxcbzpgxI3E/hST2zxk5ciRrDgAAAABBDbUqqt944w3XtWvXKMPXF8K+NG7v+bgq1uTxSOBig+eOlpL270sgb9t92yCUzfeWidSQ4NW1UEmV0/6aaG5ujhIpfOGu7ylfAnbU5kSvXr1iOc1GFIIaQY2gbu8KarkugrrSRiEgqAFBjaCGbPHuu+9GXcOSkmJrGanu1cQxX66ydlq/R/Cb3/wm+h4PdQeDz+nXr19ehzwqqQEAAAAQ1JDxgMnelsB9n332SWy12Z7iQgM4G8j17ds3En8SuPhiuCOPn49UUutmly8nCT6L2yQMJUXI+lOBNnjw4Ipp8Z5WIThlypScVtr+Gk9qX97W7y05jnK5evVqgn5AUCOoO6SiSK/36dMneN4BCGpAUCOooVzId3eXLl0iGavnwfr5WutIJzWJp/W7GTFd3j0DuRw/fnzqWDNGfH3BHXDAAaw7AAAAAAQ11HLwJMLv5ZdfjrLLdU5SR8yC1I1YOx/30EMPDWZ2q6Rsb1lppbgNPvX+H/zgB9Hj100vAtDWtXrX+d7a4n3nzp3xBkqlVf7atShrVjckQtXToXnr7dE+vUePHlGbfFmzbEIBghpB3VEJXvJ5uf/++9NlBEENCGoENbQpH3zwQdQpjCrWfDp37uxakpQNxXPLLbcEK/ZZh58XQkh8ytoDAAAAQFADfOHjjz92sqElklplRXu2QLPSTv7uwIEDXVNTU06QsmfPng4JYKwMtSLSSj69/uMf/zh6/H5VMBTf5l3XgK6JoUOH5iQq2Ne+kgJZu05Epn/5y1/OeX4hMV2u9ZHU7cDOn968ebNLe8yAoAYEdXt9RkoFtXz+sfYQ1ICgRlBDW/HRRx9F46xsQpQmj9b6e0AqyzW+Qgy2Tbe1l156KY7ROqKDVrV8FrN+AAAAABDUkHGKrTR+9dVXo0pqyajuiABFRIkwbtw4t2XLFhfa2PaDv0oTbPL4VqxYEVX+MuOsZRvytg322LFj48pp/7WulNc+6XHI+27SpEnxOrAyptwbE0kzruVYyszpjRs3uqQ2/4CgZqMMQd2en5fy2bN8+fJ2HyOCoAYENSCoa4v33nsvim31XJwE4lxBrcnfxAgti/kLxaJr166NKvipnk6PXVlPAAAAAAhqqNGs3hDvv/9+FMh3RAAvMq1///4F5wy3t5hMkuNpx/iBBx6Ijh2SuvQqel1zQ4YMcTt27HCteU064j2m1fQ6100qwHUd2IrmtprlZY+nvI9FTvMZCAhqBHUlnX/ISAzdnGT9IagBQY2ghrb47pHvbnmtbYcwJOHngtqPuRHT5Tvn0cvhw4fzmVvgPId1AwAAAICgBsgJqt555x3XvXv3ePMmTaoVG+CntTSWf5OK48GDB8dCsloDZCvPH3nkkei52QpaexxrZf6mlfT+sUiS1GPGjMlr8V6tSPu8qVOn5jy/JCFj53CXIrGt3NfECNmgXrduHUE/BPnVr36FoC5BUEubUDZvW//dqJd3330366uIjVth2bJlrDlAUCOooQV8+OGHUWewtkgMzaKghvLvq1x66aUFk4prHc6vAQAAABDUAHlVyS+//HKOpPbn55ZS9eRXxsr/s/fJdRGSu3btymmVVW3zcTXIl0ttYyqV1PI8pb2XPV7+Mck6koBQzMxkOS62cjorwaq00BsxYkRBSR2qgi41EUDWlGxOb9q0iUAfqKAu02fXmjVrqDIqIzfddFPe9wKEE5Zuv/32WCJU23kRIKgR1ICgRlDXMi+88ELe3gnn3fmCGgAAAAAQ1AB5UljafYuklk3kpKCq2ADLyml7W+RI375981o5V+smrP+4RWI8/vjjOVJSr9di+29bGSzHwgp6OR4jR46M2mJnbcNE1oFWUmtFpq2QS9o4LSaBwb4H5f/J8V2/fj0yA1L5j//4DwR1CYkfr7zyitP2/dC6z0Lh/PPPp8Vqkd+Xcg7B2gEENYIaENQI6urcG5D1h6BOjmFZJwAAAAAIaoDEiuDXXnstmkkts7t80Vxqe2/b2lr+r9w/bty4SNyFNv6rMWi2c6dshd0999wTlI61sGFSTFtvQeT09u3bMxek2nUgXQLGjx8fPB5Jbb39hBB/U8O2jt9///1jOU2FJxSq6EBQF19B/ec//zkTSVSVIqgXLFiAoC4yse+ZZ54h4QgQ1AhqQFAjqKs0cb1Xr16swSJmUBO7AgAAACCoASJ8WSyzN7t27RqL5VBFdKmzcuWyf//+Tlof+0Gcva9aRaSdt6nXH3300fi42WNZK/iBuZ3PLW29/XWXpSDVbgDJ+j7ssMPiY+InLCRVmNv7/Ax8XU8bNmwIJkgA+Lz00kvRWkNQF/e59eyzz7pCHTOgeKZNmxYLIkifQf3EE0+wzgBBjaAGBDWCukr3B2SUGec8yQnYnFcDAAAAIKgBYoGWJLVef/11t88++0TVZFYylxKEqFiT3yGV0xs3bsyTaHq7WgMU+3yscNXnc//990dCKDTbO8sBaKjqV+W0BO3S4t1ukmQ9QJVK6kmTJsXHxbZ7T0tc8I+jHtuePXvmzcgFSOMvf/kLFdRFSgw5Pk899ZTzk49YRy37bhTkcx9hUFxlkQhq+/1I8hEgqBHUgKBGUFfP+c/EiRPzkvwR1J/HHpzXAAAAACCoAYKVnn5w9fbbb0ftvrXlaambrCqohw0b5kTQFbuRnZVjqpeyGWbFRy1ttPsMHjzYNTU1JVZOZ3UtaCX10KFDc+axl3Ls9P/U19e7zZs3x2vMVk+z8QRJn68yUxlBXdxnlxyfc845JzGhCkrni1/8YsnnErU6g/qtt95inQGCGkENCGoEdZWed0+dOjU+10ZQ5yJj5FgnAAAAAAhqgKJ588033b777pvXmrjYCupBgwa5rVu3uloQ02msXLmy5GOYtZnUo0ePjiqnk177rK4HW4Epklo2Lfys+kLrQt5Psrkqm26fffZZzb+foGWf5bT4Lr7CY+TIkTmfVby/Wp4cIZcip5OSciA3OSnU4Yb1BwhqBDUgqBHU1UFjY2NOUh6S+vMxOj169GANAgAAACCoAUrbYJZ23zqTOq31sF8FdMghh7jdu3c7V0Sb1GqVAIXavtoW5lpJrQGrv1lfLZsp/mttqw59Ka1IFb1fOV1LktU+L5HUw4cPDx5TvQzN75aW+9Imn88lKOU9pJ9R7733Xry27HsVWR3+fBswYED8/YWkbt1a/NOf/oQsKAE/kYv1BwhqBDUU953zz3/+M4pZNT7hHOdz6urqnIyj4rul7Vm4cGFUKYyczj/HPuCAA+J1x9oDAAAAQFADFM0HH3wQCTINtkIZwbY6Tzb3m5ubcwJfP2vbBiXVntEdEtUiIu1t2RR47LHHomOmklo37VXoVkuFmR9s6/Owolquy4bgiBEjYtETEvdZWQPFbp7Jc5bnOnny5JzXPDS3W+6T95xc37BhA4E8tFhUy6atrCcEdXF0796dSqMyrb+bb76ZtVYkUvkX+r5kBjogqBHUUBjpMiSdv/TcGjmYG6uxRtqHefPm5cR3nP98zkEHHRQlSpSS8A8AAAAACGpgozkKGv7yl79Em/aSge1X0Vrxcf3118czp23AUUiuZa16Oik7+N577402yvyKMl/+V8NGR0hy6f1yKZXCkqhQa2K1mOcrEuLwww/Pq6D223736tUrktME79CaNbhu3bpgtwNITsBhFnB50M85KEy3bt2cTW4jKQkQ1AhqKJ7169e7/fbbLy/5s9bPe+T5yzHxx27xHdM2591z586NE4w55/5CjqgfMmRITSWnAwAAACCoAVoZYPlSTCqpZQNVKz/9yt/LL7+8VUFHNQXKaY+1kEyUDTI9frZquhqC2FD7aSt1NFHBtshNO35+pXlW30t+JwG5Lcdn7Nix0TGzx9VK6k2bNhG8Q6uRRBHZoGezrDD6mXzPPfdQ4dEK5LNOktWYe/6For/jRawknTuxkQsIagQ1pJ9zq6Cmcjr83fPiiy86xHTbn/sceeSRJX331xLjx493Sd3UAAAAAABBDVCUqH7llVeiqk6/PfWSJUtcSNQWCoKrPTBJmq8dqh63x+L++++PNszs5n21BbC24tdW0Y8ZMyauoi92Uz0rAar/uofWvz0mMm9UNzJUHgpf/OIXnbQqJHCHcn2Oy+c2rQaL28SVy5NPPpmN3FZ+Fq5atSo6njrWAgq3vpTjRhU1IKgR1FA6mzdvjmbcSjyCpM7tDCM8/vjjrP926hwj5z1+Ujd8wR1//PEulMANAAAAAAhqgMTK4FDg8Pe//9116dLF6abYlVde6Uqp9Cnmb1Rr9XSSrPTnLQn33Xdf1W2iqOCykssG4YMGDXIiXUs5jraqOCtippT29iLzZVa3VqB37do1p3Ka4B3K8Vk1atQoNseKrKAWmSGfcU1NTbz3WrHmnnzyybi1KGurMLb1JZ//gKBGUENpbNu2LUr08WOrWk7M0wRiuX7nnXe6tORqKA8DBw7MWX8kS3x+HGbNmtWqbnsAAAAAgKCGGqt+Srv99ttvu3322cddddVVBStGk0hrAV1NG/FaLRwKuHxRqbf1uf/4xz+OAjaZ7V1tFYZa8avyQSqnd+7c6fzKebleKAjNSqtvK9v1tU56T+jPys/JejjiiCNcfX29W7NmjUtKagBoKQsXLmSDrEhkdqBcyliLLH0+tTdShY6cLj7pa/r06dF3KGIaENQIaigd+fz05WCtd45RQS3HxI7i4num7ejZs2f8mUPXotz9g6VLl6Z2mAMAAAAABDVAUMAmBQ4bN24sGFAkZWeLnFu9erWrNgkXOhbyPArJyDSkktpuoFXTHE3dBBo9enRe5bS/fpLmTcntBx980H344YdVH6BKwsY//vGPgmsh9N6SjTWZn8dnD7TFZ5ZsClFNVPpGGhVGLUOSbmQWqB5LKojS5bSwcuVK1hogqBHU0IrkaulIZFsr1/r5jhXUkqiIDGzb820599GRV5z75J/vaBIeAAAAACCoAdpN4oYCYbnv5z//edQaesGCBTnVtdWSTauP76GHHnLdu3d3DQ0NqbI9TXLI/3viiSfiyj0/819v2/t180UDYHu7NdUCoYA6KbjWxyabQaGAs9jXUiSQVJD37ds3Z+5ypbf+8p/XV77yleh5DB061DU3N6dK+WK6FACUM5FGPnP9z49yfGZkudW3tEXnvdmytff000+zMZsyCzS0cfuzn/3MUdkGCGoENbSccePG5XTu4Nzm8/M+eR/48QmUlxdffJFzn5T9BWnDT+wLAAAAgKAGaPPsdb2e1Bb14YcfjoI3mWMtAfM3vvGNxBbQ7R1A278nzyVtPvJjjz3mOnfuHD0XEcvnnXdearWd/2/2d0r1sfw+mT/sCyRfEluJbDde/P/Tmk0MvQxVS6u8kdsTJkwIyunQcfNlrdy+8cYbo7bWuoEorfmkxXWlBqx+pby28j7jjDPiDTE5LjIDTyupCwl72w4coNxiWpH3VVoiCuSPMZDvqLVr17KZWyLynXD88cfHn4k20arW5bR/W46Njvj485//zBoDBDWCGlrBvHnzSLwLIEnhcinngn7MzflN69Fjes0116R2Hqv18x/dM/BHoLGGAAAAABDUAG0WqPnXn3322ThIttVEixYtqpjgJDQz2a+Ofvzxx+NNLxW6cr2xsdGFxHySgLRzu+Vv/O1vf3M9evSIf59fPe1vuMj95W4N7ldn+39fr0+ePNnZ+dt+gGmfc6i6fPny5TlSV3+/VKSvW7fOdXSyQjGJBvKYZO3a4yXPSTj44IOjSoU0AV3pVeJQ/bLavm8kGcRWFtkkFwRirrjXz8F/+Zd/4T1awpoTtmzZ4vbee++c73rIbbfqV+vL/TIuhHUECGoENbScSy65JLFbRa1XUMvxkM5fSMG248tf/nLOOSTknv9IC3TWCQAAAACCGqDdq0wVma+om0R++zXZyD7ttNMiuVtJWbXyWPzH8Oijj0aVznbzXQNRqYQ655xz4nbfSVXkacJz+/btbvr06Xntu+3f8rOx/VmWxVQOpP2M/ZsqseQ10w2O3/72t8HXyK9A9yun9foNN9wQHT8r+K0YGj58eM5mfaXNKtfnceaZZ+ZUCVrhLki773/+858u6dggq6GtkoNCCSN9+vSJqzX9JBQqPPKPhyYJNTU18d4sgXvuuSenEwcJEF8IHguV1XIpXTfSOrYAIKgR1FCYH/7wh8ExSfC/HHXUUXkjqfjOKQ+bN2+OzrH97/paX4N6br3ffvvF+wB6vkMHMQAAAAAENUCbyWm9VEH71FNPxZuxSYGbyL1zzz032qT1q07bK3hO+zvyeH7yk5/kbHaFnocEpzKPuFDQlfS35P8JMpe6W7ducWu2kEBSIVquSjWt5LK/226m9+vXL255G5KqSTOXbcb0XXfdFR0///lYUS3PR577p59+6pISHjoS2dyRyukkqafyX46dSMH169enVuWzOQRt/Xkm7yOp7AjNn2bTNtziWz9XpfMH66m49Sbf+f3790cKFEiA8CusJk2a5FpyXgKAoEZQw+e8+uqrJN2ltFkeOXJkxSb/VjuvvfZaXrJyLa5F//nqcbjsssty9kaQ0wAAAAAIaoB2k9XPPPNMPKs5qSrYtlYV8WfbbHdEVZFtu62PQWdEq7RIqz6Unzv55JNzWlkVevy+lJfr8v+lXZ0f7NoK9HIHvyqpbWVw79693c9//vMcyarHpthqYLnv6quvjmdO63PR4ym37fOS+wcNGhTJ3UrboP/qV7+a1yo5lCWvSRnDhg1zn332mfNlPUB7fQ4LZ599dnBMgD/PvpYFon8cRGyMHz+e92yR3HfffTkV6KHve0RZfiKEJLUhqAFBjaCG1rFjx4687x3Ob3ITmj/66CNnR0xBefYNpHq/Vqum0/ZE9L14xx13xOutmA5zAAAAAICgBiiLEHnyySfzKnztxqydEaaCUu4/77zzXCVl1srMaZU4Nuj057fa236775YeQ+H99993s2fPjn6nHkttP6u3tVVoMRsxSa3AtY233h48eLB7+OGHc8S0fWxWtsrP+GJab8sxkMppldP+8bOy11Zxy3P74he/6D788ENXKWv71FNPjdetXQv+7G6/dblUn8vr2FFJF1A7m2T+54eus/vvvz+ekY60SK+e9lsw//73v+e9WoBdu3a5cePGRQlpoeMJ+bJexdn111/P+gIENYIaykD37t1zYgn4Xzp16hRd3nnnnXRwagMaGxuDHc1qQVYXI6h/+tOfOqqmAQAAABDUAO3aUvZnP/tZJFR9qVsoUFMpcNJJJ8VytyMCaJWIDz30UN6Guy8fkwSHBKoNDQ2upZnC/vOW3/PAAw8EK3VVPGkb9aSqSH090n7u9NNPd//+7//uipHoScGmlbDLli0LSrGkdWHbwAt9+/Z169at6/CgVqrcbLv1tMrp0L+L8G9ubiY4h3ZJEPLfm88//3zOXHk2bwtLak2ckhnBrK90dASGX6HPukrutKEJEKtXr2Z9AYIaQQ1l4Etf+lIcc9DBI/97SGJzSShjrZQPiVF1fFVSt7haFNS6PyGXL7zwQt6+AQkSAAAAAAhqgFYLkKTA4pFHHsmrlC41yBERKDOpNYi2fyvpemsrlUMb7hLI+9Wypcxekqrhb3zjG84XunZec7EZxfp/5JjILGhp/33MMcc4qRYICRZBq5bt/G9bdS2XY8eOjRIC/vSnP0UttUt5LP5jt7dFUt98881R0F5KoB46hgMHDnSffPKJ8+fqljvITfr9Z5xxRlk+pGU+q1ZSF1qDBO5QTqQTge1YYDfSkNXpn0fy+f/000+7UHeIYr5LskBodIM+902bNrlu3boF1xakizM5Zlu2bOGzHhDUCGooAzIqynaE4rsov9X3s88+m9ji22//TSySn3jtH5Mrr7wy5/ynFrvI+N3k7OU+++zjaOsNAAAAgKAGKDtJraufe+65OFBp6QwwW20rVavaSjpJHrZGRiYF4Y8++mj0HHRjqyVzTPVSNhDnzp0bieikv1dsK3D5Of9xS9D3j3/8w0nV+t133+2++c1vui5dusR/X65rJaC0eLv88sujSuxf//rXkVgIyeY0+atBeiFBLG29S6mi89uO2zUjklrQWc6FpEk5RczChQvLUgkox19+z8EHH+y2b98elO3MhYO2xP88o8K1eEEtn6M7d+7Mk9Rt8RlUyRu09vNJn/v5558fbG3JDNDkriHaLUa+F+y6AkBQI6ih5dx2220k4CV8D2t8PWfOnKKS64hH8mM0//jI3PMhQ4bk7V/U6rlN6BgMHz48GOPS8hsAAAAAQQ1QFuwcYqk4lg1XkaAt2RDwN2+1bfVpp52Wk3nbWiHgz2n1pbHMnBYZ0drNdRWScl0qsaUi3M8gbkkFdVKw7Etr/RmR2nI76RiGAu5i5K0Gmv7Py99bunRpTvV2a8SQ3WQcOnRoJKn9v9lWQa5UTpfaBeD/Z+/OwyUt6nuB53kSoizDBdmcAURZAqgsIiCCCsiqXESIIsgiCErQuO9EJaASRYLeIDsKCriAF0UREPWCogJhDYLs++oAAwMMM5j41H1+nadOqt/z9jl9znT36eXzx+c568zp5e3qqvpW/WqyM0hD3I/YEd5qYYJBPN3wute9rql0tQCx/XYo2p+99947Vd9/RmkCN9/X8j5fccUVTe+XAurJz6Auj9aIIzW0TQioBdR0pvrRr371q7HKV0p8jx9fx2KyZZZZpvZoCYtk21+gV15vMe9RPb6juqN4VK6v6iK8+PzVr351anchPgAAAmqYdpnPH/zgB2MT+XkwNtUzwKpn95b/9r3vfe+4YGA6oV012K0ONuN+5AF8dUfvdEtUl/cpAs+6x3AqEwLVQV6rQV++r+Xfm+hv1z2erW5X9W+WYfgJJ5wwNiGYr4F2At5WA9zyuojrISZW7r///tTpHYzVxymXCezGLtO4Hy996UvTgw8+OLJhF73fARILR+qqVQgQ26uKEe1aTEZ6rf73/Y9zF5dffvnGAqy6x4vx72+5T5Mfs2984xvafATUAmo61M+54YYbxh135HXwPwsTc79v1113TdUF23ZRtz8Gj8clxoqvf/3rm47Rio+tzmQehcWcdf2eqO420aJ6AAAE1DDtUld5gBGh7qxZs5oGYWW5z8UZnOXAOyZz//7v/74xGOzEDuq6UDImr2Kyrxqqliuh273NZVBfPg6x0yx24eWd550sDzvZwG+qgW7d/1Gurq/bxX344YeP7ZzOk4LTCfhbPd45pF5nnXUa4UindtVXxa79bgQu1cUba665Zrr55ptTq9eW3Qx0UuyYqZ5Jz9Qmd1daaaV07733plF+789t0j777DPuvV4Y0N4u6rz46Ze//KX2HQG1gJoOjIFCHF1UjttGtexyq6Oz8msi3qvz+0+r8Z4gceJF+qeeeuq4Ps8oVicq72d1t358fddddyXXFACAgBq6NlA755xzmkLc6gT1VEKQcqds+f+UE7qHHnpommggPRULFy4cGyh997vfbZToKm9vJ3bO1g1O435Eue/FKXdVXfFeDvrafSxarZqf7PGt+3n8X8ccc0zT2dd1gex0Hrd8LZTPRyxYWG211dI999yTOln+Ov6v/fffv2fl2fKihWuuuSa1+/jDdCdv4+zzFVZYYcLzgpm8TYpyhfFYdmuBzCA48sgja9tq18rkQVl+b4lwsTwmBQTUAmoWXywkUyGm9QLq/LqI3b+tqmwZd0w8Xo45hI033rjxOMa1Vr3OulF9axBKfJcLQ/JrMKqetTpaDQAAATUs1mDtggsuGNtV1qqc2lQHaK2CzBwcx/8dpZcj3J1OMFk9Azp85zvfaTo3Owab0w0n63ZN1z02Sy21VNptt91S3e1ZnJ3Tk4XPdb8/1YFidQd1TGgcddRRTTumy6C/3UUK5cTJRCuzy+dp9uzZ6ZFHHunYQHevvfaqHWh3aoKrvL7LQfxyyy2X7rjjjtSJ5wcmeu3mc6hzu23yduqTcPFxo402SqMYTIe8oKvdBUiusfHvY/H+tdlmm2nbEVALqOlwPyeqe3jvqX8dlNWoQhzL1MmFvsN8XZVVZOLInGq1tLoF1aNUrah6JE58XGuttVpeX647AAABNSzWIO3ss89uKlM52U6qdoPqyf5dLksWZ1KXO5DbCfHqfifuR5xpnM+MKgOIqZYsbSeYr5ZBj/sxnQCyrrz2dAd87Zw9XS3LVQ2nI6yoXgflooLFWYU90dnkcf2tv/766b777lvsQe5BBx3UshReN4KK8v7F/XnRi16UrrjiiqQEGt302c9+dqy9q3tt0V4bH23eO9/5zpErwX/WWWeNHeNQnXxt1QdwfTVP3ubH5kMf+pA2HgG1gJoO73L9zW9+YwFeG2PweP+OMXAskBUWtj9/8Itf/KJ2YV65IH2U+j7Vvk0ZUh922GETjmmNdQEABNQw4UChVfh5/vnnN+2S7eUkQP6b8fGAAw6YcAdbNUytfj92Tsft7nQA2U7AUQ7e4mzt6YTrM1naLDv22GNn9Hy3/PzFjvTYSV29HqqPW6v78va3v70vziaN4Oe2225rOZivK+FucM9U/PjHP25aiCE8nH6FjAipt9122yntpK5bgNLrieH8t+tu90RHP/z85z9Ps2bNcs0sRhtfVs64/fbbtd0IqAXUdCFEjOe9nfHdKIfY8Z4Uj9HKK6+c8vhisnmAVn2HYbyW6vpDcd832GCDceN5CyDGfx3X12mnnabdBQAQUEP7yrMQW01cf//732+c/9utEsjtllcNsQN5v/32qy2THYPLVgPofD+irHKvd3jVlfuOCf8497huILw451R3c+InbmvsxFx22WX7YmAck/3rrrtueuyxx9Jkq7Srj3M89v0QuORScXPmzEk33HDDpM+787yY7oRbTEjGxJEzGqcXTpe7hmNRyd57753iPMJ2wujqa7WXbXz1b7W7gCecfPLJjffcumMsRqmEZSeOd1h66aUbH+fOnavdRkAtoKYLXvWqVzV2B3sNTHwMVe4LRkWY8vErx9atxk/9Mkbthro5hGeeeSbttNNOTQGs66p5AV65AD/6Ok8//bR2FwBAQA2LF0aWg89zzz13bNAxnTOGu7VC9x/+4R+ayn2Xg8q6Cfd8P3KZ25kcYOb7EDvxDj744JQXCZTBRi/Dx+pj12r1+IknnjhWbr1fdmHGBMvyyy+f7r333tTOrsS4ZmJCpp/CubzwIhaB/Pu//3tf76xncG233XZ2EHX4dfva1742PfHEE9N6Pc7EDup2KjHkMxe/+MUvjl0j0T6N4tmKnQ6q4yz4UdmNhoBaQE2vF1t/6lOfqh2fjHJ/p9V9j8coXidxrnIeT0/UL+n12HSm5kDKxyA+/8hHPmJh5xTEWFabBAAgoIaO7Zg955xzGithywFZWTqtVwFl/J1qOB6DxT333LNpJ3WrVd3f/va3GzuW822fqQFmWeYz34YYyO21115jO7/LHe29DjCqf6/8OsKKchf9TIQU1fOuSuuss0566KGHJn289tlnn76aYCjD/vh8tdVWa5SArTtvvPq5oJqptOlxjnAu7WgSbWo7RKptRrkzNtqeiy66qO2y2b3cfdTu2fb5NsXvPfXUU+mNb3zjWJtU114q9z29ayh2pA/z7jME1AJqeq3sL8dxVK0CauFi6yO0jjjiiDSVhXTDNP4o72PZF4rvf+5znxsb+5bXlD5Q81xK2V9829veZnwKACCghsUvBRu++93vjhuA5AmfXg7MquF0Neg99NBDx5X7LgebsXM6bndZljyHC70OWVv9vbh973nPe2ZsQFe3kysP0uOx/frXv97Y7d0Pu+eqIXV8zOW+X/KSlzR2Ulevh3hc4/4ceOCBTYsU+mWCobye4/GNyZBrr702VcMloTSL44477mic2+4c6um1OXXtX67GEa/ZL33pS2nevHmpLoSONrYfdsxOdERAtJs/+tGPGscNVN/7q/e/LOlIe2IX+uOPP679RkAtoKZL49h77rmn5XuTkHri18o//dM/tVwgXfZfhnEcUr1PCxYsSJ/5zGfGqse4blr3a/Ljk6+jK6+8MvV6gT0AAAJqhmxwFh8vuOCCprNK68psz8QuvDw5XoaU8b3YSZ3PAi0H0d/61reaAu5y19tMl1arTpREcLTbbrvVnq09Uzuo41r46le/Ovb85+e8H0u8xnMbXvziF6dHH310XKm62KVeF7j0y+6FfI5X3lX/ohe9KN19993KwdJRL33pS5uuNabffueFMWUbNHv27HTjjTemVpUPZqIqRt0u6mp78txzz6Udd9xx7CiPia6Pstw37S9AWnPNNbXhCKgF1HSxxHdYf/31BYpTPEIrL0J+17ve1bL/MozzHnXVquJ7UW0rHp/8GFV3T+tDN49fc5941VVXTXFmtzYJAEBADYtVHu373/9+UxnqPAgrQ8len0FcDZbLEtl5YB2D6nLSPXaAL7vsshMOJHsVWLe7aj8m/uNs7ZnYKZuD8TzJE49llPWOSb7ycSqf+34ZoJfXZtzemJy67777xh6/d7/73U2/009nieXXWN0kyIorrph+97vfjcREEb0RZ96buJ36BG5eDNWq/clhSK7W8da3vjXdcMMNY+14fm+ayYnf/D6fP8ZtisU8sUsoAq+ykkOr97C6dor2qsDEgrl2S66DgFpAzdQX1ubFyXmcqL/Tfkid+zgbbbRR0wLZmVw43evr5+abb07bbbddU5WYunkQmq+f3N7uvvvudk8DAAioYfHKWp133nm1E9TlALbXu5DLAWL87bpzxfLgaL/99ks5nC6DhbqzkvqhXGx14iTvTH/HO94xI5PY+e9Fedrjjjtu3ARPv5QGrpt0Ks+Jjc9jAjdK/eVV8NWytP060VBez3F74wz4m266yWCfaSvLTUeJYRO203tN1n2sq8pQLjiJs5z/+Mc/polKa/d68j7Mnz8/feQjHxl33EVZpaRugrbVeyqt5Z1pt99+u3YcAbWAmi6PYZ588slGJaJyXEB7C/HKhWjf+MY3UnVh2zBVdKoebXbhhRem5ZZbbtxRUnVHnLmuxm9WiP7kJZdcor0FABBQw+QhdLWcd/74gx/8oFFmut8DvMl2IG+//fZp1qxZA7XLq3o74/ZHsFr33E036Kgr393q9w4//PDGYzkI10Crst0xUM7XwaBPAETJtHI35mSv75koJczg2HjjjU3c9rBtj4nyzTbbLH3ta19L9957b5rO63Rxdl6XE8w//OEPG++RUZ3B89O79/bXvOY12mME1AJqehQ4brHFFuMWBA/y+HamxtSvf/3r03/8x3/Ujj9afW8qfZRW8xPdujbq/v9bb721sfM3FpPNxFFgw3AETl7YEMfFaIsAAATUME6rlc7lpPU555zTtAu1umO235W3M3ac9ts5w9M55zTKk++///6p04HjRGFmfDzxxBMbg/RBLOFaXfE+DBMNuXJATBTFJFF5HdQtOlA6lskWqJx00kkC6h6/P+W2KMLqLbfcMh1//PHpwQcfTAsWLEh15b8Xd6I2nu84ruHhhx9Ol156aTrggAPGFuxEW6L0aW8D6qOPPjpVy6RqqxFQC6jpzrj3k5/85ITVwITU7b+OYkwYx0/lst+L01fp9PteeURZuwuxy0oyxxxzTKNvlPtFro+pH6+V29o999xTeW8AAAE1TH1wGJ//6Ec/akyaxwBjUAdndYH6IN7+chVy3kkdq7rrAoyybG+7A/hysULd/3nkkUfWntU8qAH1MInXaOx6jLO1y4kYkwFMtf2PUsNl6WG6f8Z8tY2P99sll1wyrb766o3dte9///vTueee2ziWYKIgc6LXe4Td11xzTWPCdeedd07rrLNOetGLXtRo08vjMerKdtO9Cdx47OO5yc+fYBoBtYCa7i64jffSPI4pj/lRnnnqi7/jcYv+YrQ7b3vb29Jjjz2WclnsmQyq6/6PPLat6yvln8VRN5///OfT7NmzmxZkV488ob1FeLmt/d73vpc6+fwCACCgZsjkCe9qeeg4q7l6nmSsIh6kAXz1bMzqucmDXjYr7k+EF/k5jF1xU9lVPVFp2LzjNkSokZ/7CEMH8bEaxqC6uuMjQq3rr79+3MSQ4IN2SvtnL33pS4d+UUc/L6DJIXXdTvaYMH3Zy16WXve616VddtmlMSH8oQ99KB122GHp05/+dPrYxz6W3vWudzUWL+26667p5S9/eaPiRrXNyDuflDeduec6Huv11luv8f69OGXaQUAtoGZqfZ43vOENY+953vcW73UU/Yr8GMZ729vf/vZ05ZVXpjjve6JdzdUxZzcW1bb6f8u/v3DhwsbY6cMf/nDj2KRqAF9977aAr/1+Tlh77bXH9XMAABBQw6QD+J/+9Kdj5YPzxHUeiJZh76CVmhrkQWXch7j95Y67+Bghw2677ZYmOkOr3aA6fyzPiYryo9WgpLwWBnEX+jCG1HknSJwVf//99086IQO5vS+rJ8TXv/71r8cd6UB3j5/Ir+VqW1Vte3NJ/2iDY7FQ/Dx/zAF2/Kz8vVi4Ut0ZXV18Vv3cBGxvFiNEX6tcRKSNRkAtoKY7/ZsyII0KYXWLtPR5pje2KvsWeTwSfY9YMBdHELWzOHKyn7d6f5zq+2a+JqKM9xe+8IW00korNdqEvBC72kerhtWukanNveywww7aWQAAATVMHkzmnbfxdZw5XQbQ1dXDgzZ5XTfJP6i7ZFv9PCYBDj744FTdBT/d0u55Z/0RRxzRCDzL2zGIYf+wBm11k0MRVq2wwgqN3QD5uVTqm6lO6s6ZM2csMDUZN7PvT+XEed3vlsF23c+rAXd1ArH6HNtN1ptdRVGpoHq8BgioBdR0v2LMvHnz0vLLLz+0i1d7HULWVXXKfZPod6y22mppr732Sqeffnq66qqr0tNPPz3uyJJOL6qN467KeY44wubHP/5x+sAHPpA23XTTxngpblu1ulp5P8qxr0UMU+/rxOMXCxSmOz8BAICAmhH0f//v/22avClLUVYnuAdhgFYdLE9W/nnQQuryPsTK7/322y9FqbLFWayQnXDCCU3Pdd0gnf4L3+M5y+W+L7/8cjvymNLrPodlMYEnoJ7Z1/NEi4DaeV7KydTq/zXZAiMhdfcnbT/5yU+mdo/cAAG1gJrp923qAuudd965duGtPs/UFslWA91q/6RVf+XFL35x2mOPPdJxxx2Xrr322kZJ8AULFqRnn322MZaN5zD6pK2C7PyzCKJD/Jv49yHOkv7JT36SPve5z6VNNtlk7DzpPK4tj6vK1cmqz315XQinp35t5Me6rMoGAICAGiYUO6eXWWaZph1W1cnyQdxBXbcSelAGmJMNiKsTALNmzUoHHHBAY6A+3esgBvxHHnlkU1nYQXze6x63VuVsh3GSKCZWYqL6N7/5jYkBJpzAzTsbcjgdX99zzz3jjhQY1AU+g/De1Kqtqk7s1pUBbxVC17XZ5e+V74et/h7dC6gffvjhVN3dZzc1AmoBNb1x2223NVUf0beZ/rijblFb2d/Ii91z+e/8++W/i4XWUQEqzixef/3105Zbbpm22mqrtM022zR2X7/nPe9JBx10UHrve9/b+BjHW2299dbp9a9/feN3N9hgg8ZO7RVXXHHs78b/GZ9XjymrBtOt+liTVaFh4kWOMZ+grQEAEFB7QGk7lNx2220nPIfSmZT9U8a5bkIgl1N7xSte0Vg9vjhl8GLSbqJy3oN2BvUoXBvVcCmeu5VXXjk9+OCDTSFk/miHHpN585vf3DSx6H0Apr8jPl5D+XW0/fbba38RUAuomeEFem9605sGqjLYsL5P5tA6h9jxGg25KlSr4Lj6+5nHtXfjz+pi9vwxFgdEKXftDQCAgNoDStuD9CiN9YY3vKH2rKVB3UE7TDvtynC6OkiP0mXx8ZWvfOW0SnxXd1zHgoXvf//7jb+V/+88gZMn2K0i76+V6tXXZpSvyzv0FmdHPaPr/vvvb7z+W51b7LUHE7fL+XWSX0O5nb733nu1yQioBdTMsPPOO29cqGms2z/HFlXPB2/n5x7H3i+er6vE8w//8A+priqMBdIAAAJqmHAXdQwadthhh5ZBqHMpZ76MWl1ZtfjeRhttNHbOUzyPUx0A1v2bU045Zaw8Wjlhk0Nr+usaieclrocob5fD6fLsNuVjmerClTi7r+54BxO4ML1jRnbddVftMAJqATV9IBb1Lrvsssa5QxBkMzOL58vnIeYM8mvozjvvTIJpAAABtYCaKZV1zp9HoBVnP7Uq5WzwPjM7p+vOx8plzV72spelHEROdQBYPvd1TjvttLHSa+VOSgFV/03SxPMT5s2bN+5amOx5hjrnnHPOuPONTQrC1M9ijKoW8fEPf/iDthgBtYCaPliYHR9/+MMfjuvn0N8BdKufC65n5oipXIo9fx7zSK12TwuqAQAE1ND2btqdd955bCInh6J58BErZA3Qel8qtFwwkEvSxWTkLbfcslilnMtzieuCzFNPPXWsjHS1lBczvzMvPsa1EK/LRx55JFUD6fK6cAY1U20bXvWqV41boGKhEkw+gVs9u/11r3ud9hcBtYCaPjriKmy88caN68L4ZmYD6U48/p6/3s5NlAs78jjh5z//eapbDKLvAwAgoIa2B+wRSoQYsJcDjzKYttK89yvI82R3LrEdz8dvfvObjgz2WgWa2UknndS4Lc6e7s/zp5dffvk0f/78VD531YmAmCBQ5pupuvjii5smnuoqawATB2LRTts9jYBaQE3/7J7OOzpjIW7ZzwHam5+oLlhdZZVVtKsAAAJqATVTUwZa1fAqQsttttmmaQAimJ6ZMlrl4x/B9HLLLZeuvfbacaHyVHfIls95GVLnRQrl75xxxhmNyZtcqpT+2KEX18NDDz3UMpieaNcITNY+RNsyZ86cpgVKdqhAe6W9c+Cx4447pnyMirYFAbWAmv7ZQb1o0aK04oorCqidQc0U5NdLWentZz/7WdNi6Pw6c9QUAICAGqYVVuXd1G984xubQgmDwpndLbv00kunSy+9dFwQ3Y3BX/l/lrsMlHnvjxLfK620Upo7d27TmV6tXtMmB5iuG2+8cVyZb2DySfR4r4zXTT6KwyIhBNQCavrPBRdc0OhXO8Jk5st8ezwG7yzqaFc32GCDNNECeH0fAAABNUzbggUL0hZbbDGulFM1sLa7ujNlsuoG53ll8jLLLJOuvvrqng/wynDzrLPOatyevJO6XEHtOe38GdN1ZdTiMV9yySXT448/brBPT+y1115jr/WyrS/PQrfDmlGcmK32gcqP8bO3vOUtycQsAmoBNf27OHvhwoXpla985bh+TjU0NdaF8WPS+HjJJZdoUwEABNQCaroXSsbn22+/fdMZyK0maw3epz7BXT5m1V2KeefirFmz0q9+9auer0LOq6DjY1wH8bdPO+20pmuhGqYKqDp3fVRfT3EtxJnT9913X1K6m15M5Ibbbrtt7IiBusUUrc6jg2EPunJ7Xb4O8tfxennwwQdbHqUCAmoBNTMjH4+U+88//vGPJ1x4Z3wLzfI8wP777689BQAQUAuo6e4q85hUjbMT11tvvaYJ2DKMKCdrmVoAmc9vqtuNHN+LxzafOT0TZ1hWy0PHdRGTe2WAXh2s0rld1OVrrNw5nV+f7ZT4hukuTsmf77LLLk2BdHUxjfKYjGo7XfaLytfGvvvum5zBiIBaQE1/76DOgfWOO+44YV9GHwd9nuaxaRw99sgjj6gUAwAgoBZQ090BfP48SqDF4L0coMRkT3WVuR20Uy/xXQ2u8yRITDheccUVaSYnt8sgtLwuYid13lFZ7i4wgdMZ5YKFeJ3F13nndN354yYH6OYClfnz56d11123ZRtmFzWjNkFbPfak/HqNNdYYe9/OO/UE1QioBdT01wLs8vu33nprY6FttOXVvoyxLfzPayHGpPFaOfTQQy2SBgAQUAuo6U0JtHIn3WabbVZbjlqJ56mHj3Vf54HfUkstlX7961+nfpjEKSfWc6nv+Pykk04am8hRAq/zAUjeybHccsulp556qmknnnKx9Gondb7mYlFKnD9flvoWSDOqE7QTncH+y1/+MtVVH9GmIKAWUNN/gXWuUHXggQeOG8+2OnYHRnkHdbwu8tjUmBQAQEAtoKbrwXQ5sRqD+B122KGpvKXB++KfY1null1mmWXS1Vdf3RclnMu/WV4XeTB65plnNgL16lnULJ64FuIxjeshyqeVYUd1IsDEAL0qhbnpppuOa+tzSK39Z1QWmOVrvgwwYuFGfH+dddapba8F1AioBdT0V3WY6hhr0aJFaf31129aiGcXNTSfPR19nZ/85CfaUQAAAbWAmt6G1NVAbMstt3T+9GKWx6oLd2Ln9GWXXVY7oV0ts90vTjjhhMZ14Fro7Lmmq6yySnrooYfSVALEiV63sDgTuPHxrrvuSiuuuGLjOs0TuHVhNYxi8DVr1qy0YMEC5zEioBZQ08f9mrJvU+3rXHzxxWPHNuRQ2vgG/ru/HzbccMNkkTQAgIBaQM2M7aArg9Jc7jsG7rnkpRXm7QXU1QFfBNZRPvf6668fFwoNwgDwjDPOMInTwQmAJZdcMv3pT3+qvRaqFQ20VfTSpz71qXFtmWCaUXv/rlaOiY9HH310arcfBQJqATX9Mcat9q/33Xffxk5RJb5hfBv6hz/8QWUYAAABtYCa/tllvdNOO40LKOrKPY/awL7uXMq67+VgPyYXf/vb3w7czqtyN0JM+lV3VtbtFqc57Civj3iMll122fTAAw/ULlConmsKvRbXYrT7rc7hhVHZRZQ/j0nbOPpE+4CAWkDN4IvFn+uuu25TP6fVmK7ud2DQF9BXNx3kr4844ggL8QAABNQCavorqIiQOgbx1cFMDiOrZzWO0gAvB475cajbbRifR1nv3/3udwM3uMvlpHNoGl/nndSxG3yi87b5q7Hgvgw84lp48sknmx5X5dPoN7fddltjl395DZefwyi023kBVuy0e/zxx5X2RkAtoGZIdlZfd911jTFatPF1Y9j4Wd24FwZZXMflmL2cv4gxarU0vpAaAEBALaBmxnfN5q/rdlLX7RAdlaC6urOwuqs8n2+2/PLLj4XTg7g7tu42f/vb3x4LXMvrQYD1V+PO6s07L8IyyyyT7r///pYr0w3+6Senn3762GIUE7SM2g7quOZjEjeu/6h+ok1AQC2gZrgcdthhY2OXVkF1XdUwGPTqb2V/Ppe7v/nmm1OrDQvaCwAAAbWAmhkNJiM4i92zW221VcswdpTKn5XlP6sr7fPPY1I7SmH/+te/TsMyyCvPQz7hhBMakzl594Gd1K3PII/rYIUVVhg7c7p8jVWvh7xrHWZ6d1E49NBDx9o1C1AYRe9973vH2mmLiBBQC6gZnn5OtO2bbbZZo2JMtXJG3dFWMCztZDWovuiii1LdHJCjpwAABNQCavoqsF60aFHabrvtWu6kHrXddfn+lsFNhJHxWMyaNStdf/31A10eq7pIofrz73znO007K+0uGL+QIa6H+Pjoo49OeC1YnU4/vvajHH1M3OZz52EU3tfzgrM43iT6PdoEBNQCaoavnxN974cffrixiDSun+o4RvUYhnUBdd5cENf2WmutlSarngYAgIBaQE3f7Kh77rnn0jbbbNM0GTRqwWS1tHVeWZ/PZY5w+pe//OVA77iqKztd7qDOgeopp5zStNPAJM7/DPrjY0x65XA6744uH1M78uh3Dz74YIpwRHUERmnhWRzPEeH0ZAu1QEAtoGbw5HFMtPG/+c1vxsZwMaZpdXwTDMMYNV/Pca1vuOGGqa56V+77CKsBAATUAmpmfOBeNyEbA5mNN9543BnMo1QCNt/vMpgNMcFx7bXXpmqgO0yT23mwmq+ROJM6Brt2WTaXgI8zp+fOnZtale529jSDsEAl/P73vzdJy0jI/ZgLLrgglW2zKhcIqAXUDK+zzz57bBxTrQo1ilXCGG753Ol77rlnrL9fju+NTQEABNQCavpy93T1+9tvv/2486dHIcCo3sc8kRGTY+eff/64FcfDuPq4Gq6eeuqpYyXO7cD767TUUkulBx54ILXzesrfc/40/dzmf+hDHxJQMxKiMoi2AAG1gJrh7+eUn++zzz6N/nu509T50wzb/EWuEhBt5URHTgmpAQAE1AJq+l4Eauuvv37TTuJyIF9dbT5og/w8kKsr8VZ+HpNi8Ts5nB7VSZ7TTz+9aZKwuiNtWEoEV0O68vqIz2MiOc7uHcbd84xuUB0Lbbbddtuxa746cWsSl0Fqv+vOGo0+yxe/+MWkpCUCagE1oycqX73iFa9ojFsmCqfLMsmjtECbwTxruvxZXkj+qU99ShUvAAABtYCa4SjzHCH1jjvu2FT+rBzUl+fxDnIp7zJoLb8XE2Lx/Z/97GdpWHdLT7RAobrqOkrkxXWw5JJLDnVInRdg5PuVr/0omRZn9gqnGcbXekze5va+bqJWCUwGbRdRvmbjeI7ddtstlX0b7TcCagE1o+Wpp55Km2yySVO5b68vBm3Ooq40ff75EUccYZwKACCgFlAzfEH1a17zmqYJojLAqNuBPKjnUpZhTHwv7u+55547siWa4/mvnld70kknjU3qDOMOy7gf1QF/WGWVVdKjjz7atFBh2Eu9M/xte3UCa8GCBY3KGSZtGZYqGPH1i1/84hTBRPW9PF/38XrQhiOgFlAz/B555JG02mqrNR1bpEoMg7SAuuzf5Gs3Ps6aNSuVi06F1AAAAmoBNUNR+jV2zsZg541vfGPLncbVUG8QBnetSjnnElkxGXbJJZeM5KT1ZPf5O9/5ztgO42HaNd1qF3VcDw8//PC4HXf5cTLwZ1CU58+1Cuvmzp2b1lxzzcZ1b9KWQQ6zwvLLL5+eeeaZ1Kqvo/1GQC2gZrT6QXFUz+zZs5vGg3mR8kQllKFfFuKV8y7RPkaVryeeeCIZnwIACKgF1AxtkLFw4cK0/fbbNwZFOaQuV58P6u6q6gr6GODF9374wx+O9I6q8r7XTeSfeOKJY7uoqwPlYVmZHtfBcsstl2K3RXn/47VRHfSbBGBQFyLVXbu/+93v0rLLLttUKcFELYP0/h79lAj+HnrooXFtdd31rw1HQC2gZnTGtXfccUdaaaWVGkdATHYGNfRTKF3t68R49f7771cJBgBAQC2gZjh3UJdfx+D+Fa94RW2J70E6y6sM2au7quNjPnM6W7RoURrF57/8vNxpmT//1re+1Xgcq2c1D8MkQN5FP3/+/FSWOq8O/qsTXjAMr/n4eOutt6all17aRC0DF1BH2x3vS7FLrlXw3CqoBgG1gJrRGOPed999Y0f5TGVxM8z0Irw8lxEL66PKV93xUwAACKgF1Az87tnq+UUhArmddtpp3EreQSoFWw1UY+IrxNfnn39+GvXgsbzvdTupSyeffPLQlfqO+7Pkkks2VqO32lVeNwEgrGaQKiO0+l4ZUl911VWNXagxAWZykEEQi4vq2u+JrnltNwJqATWj0//JbX58vOeee9KLX/zixjXWKogWUNMv4XSew8gfb7nlljSVRRkAAAioBdQMZIBRt8sudlKXA6RBL5kVAftPfvKT1O5jMCq7C9r5ndNOO63x+A1DSB3XQpT1fvzxx5uuhboysOWuchjkSdqJXuvXX399Yye1CUIG4f181qxZKc5Rn+j6Ltt1k7cIqAXUjPZu6tiBuswyyzSNaYXS9Ovu6Vz17c4775y0D6OPAwAgoBZQM7TiTOqdd955XJnvmV55Xj2Xqfp5/nn+GIO82B144YUXpqlMaJQlnycKefptYFjenmoQ/8wzz6RWt7nue+W/P+uss8adRV19rKvfq14XnbpO4nqsntNVd41WF1fEBGicRVfdeeeMUkbdtddemzbZZJNxpfyHrbw/gzVZWxW74PKZ0xYQIaAWUEO7YmHqmmuuOW680GosUze2gU6J67BuziK+H1Vi7r77bm0hAAACapR/jpB66623bgyWoqxmWWKzekZ1LwOM+Ftl+JhvQ1keK08uRDh97rnntgxfW4XP8f0ILI8//vi00UYbNc66nCjM7bcSomXAHt797nenTTfdtHHm8mQ7h6vl8fIZzbGTulruu5zomYkJnPI6yNdg9drIA/6VV145PfbYY033X8jBqO8uyh+ffvrptNZaazVex/lIhPI1PujVNBiMCdvqe0kuyxpVXfL7l0VFCKgF1DDV6jIRUm+22WZN48hyEVR+H6r2ewTUdLuvU86jxNnpk1W+AwBAQC2gZmTC6hgYbbnllk0lp1qFFb04p7pccVwd0FUnFCJI/9WvfjVuInuycs7PPfdc4/MjjzyyEXDH/7f++uunCHD6faBYd/ve+c53jk0ArrbaaunRRx+tDdurk/11Z9eeffbZ4xYp9DK8ys9xtdx4dSd1PlM3Xx9LLbVUeuSRR1Kr+yjoYJTLX5bt4DbbbDP2eorXWS/adah7T8+l5w877DDtMwJqATUstieeeCK98Y1vbHq/KXewVssse33SjUXVdd9faaWV0rx584TTAAAIqKE6KIrQ4v3vf39TaeU8oM8rzdsZxHdioD9Z2eg8oRClQC+77LL0/PPPp6mEufl7xxxzzFjImXcUxg6uWH0/CLu34rbFfXnXu97VKBWWw9sIljfffPPGTuLy9tftAC/vZ7kjO87yXmGFFcYem+qAu668d7dD67qSffl2bbXVVinOn6s+z9X7bDc1o2Cy6zwW6Oy5555jlQeU+KbX4XR8zIugjj766HHVTuIarrbfJnIRUAuood0xbry3lAtay5C6OoaxUI9OzV+U/ZxyvBxj1VhIXfbRLZ4GAEBAzUjvnK4LKSOYrNvlNNE5wN2cxK47jzp+ts4666S8C7rdcDrKmefPv/71r48NGsuBZPi7v/u7xuBxorOe+yGcDnnndPk4xXMUkzGrrrpqU9nyiXZT5/tX3s/4t8stt1xTmbLqNdGtkLquvHue4CxDtfDJT34yTbZztN/Ks0Ov2/vqayK+Pvjgg5teT3YS0ctJ3Ph4wgknpMkqe2i/EVALqGE6i7B/9rOf1V6H1bLf0OkF9rkaWXw/xqp1VcuE1AAACKgZ+Z3TdYOjP/zhD2nbbbcdFxT3cnV5dTdf3mkV3//MZz4ztrOqulOwvG91k9rx+1HWO+84blXyLXZSz507N5U7i/tlAJnv43ve856m0Li6y/mFL3xh40zqvLO47vbXlUCvnlEepVfzhM5kuyy7OdFT/dvrrrtuuuCCC9JEu0XtuGNUxWt7sh2oUX3iqquuaixoyQt0TDLSi5Bq7bXXHjueYyqLqEBALaCGqVSQueaaa9J6663XuAbL8Wy+Ju2eptNBdXlNnXLKKWPh9ETzFgAAIKBm5MKLiQK9GEB94hOfaAQXuZRyWaqqFyvOc1nnPMhbffXV04033phaTUC0Omu4DGlOPPHEprOVq5MSZdm3DTbYYNwu7X4ZSL7jHe8Yt+ux7rnJZcvnz58/7dsdj9+1116b1lxzzdpy3+Vj2Inrovz/q+eh57KwO+64Y4rwvCxLXrfDXAk1tPV/SXXtVvmaePDBBxtn15tYpBc22mijRvtdt7O/rqqHCVwE1AJqmE6VsHLB7RZbbNEYTyjvTTfnLvI1FuPv3/72t5POTQAAgICakd5BPZk//elP6YMf/GBtCNqtkDomsfJEVpg9e3b6wQ9+kKYymKsGl/Fvv/CFLzSVdqsLpctgNILQ2KX7xBNPpH4KOOPM6epzUFcSvXw8o2x57AhfnAUMsSggSuUttdRSTX8vBuKdLhGcg+hygULcj9133z3deeedteHzZM+R86cZ5YVIk7X7sZv605/+tAlGuuqII45IixYtmnThl0VFCKgF1NDJXdXxXnPWWWeNjTPL8YuQmk7uno6jyJ599tnUTh9dfwcAAAE1tOG+++5LEYzGjurqTte60Lc6WKv7WQzg6s6Bzj9bf/3109lnn107eJvKYC4mJo477rhGWe92JiCqZx5vuOGGE57l3KvV/zGxEs/BdHclv+Y1r2mE7XVh7VQfz3hettpqq6bnsfr41YXW5UKHut3febFAWWp4hRVWSDvvvHO67bbbDOChy0499dS00korjVv4UteGV1/bznIcjd1BdR+r7XnuH+SPUQHliiuu0IYjoBZQaweY0YV7N998c1prrbXGjUXqxrJ1v8PwnyFd9mnrqq1Vv18upv7+97/fqPwigAYAQEANHdx9l8ujRano73znO+llL3vZuHOBY8drTEaH6ur0EF/HucjxvXzmablDNjvooIPS//t//29sx3RZ4rPu/OxWO7FyCPuVr3xlymerludHxe19+ctf3lgJ3WoXdydLkLYa0O69997jymtPFCBUd4nHx5iQqe6knk4p7Fw2+PHHH0//5//8n7TqqquOex5zcF29HuJjvlbyeXB1k0N77LFHOvfcc8fOmLYDGnoj2vnY/RHtRrUcZrkgpTp5ZwJ3tELquvfL8r02B1IHH3ywthsBtYBaQE3fiDHdYYcdNtanyWPSurCyuhCX4VXuqq8Lr6sL6vP8R/6YjyKzSxoAAAE1dDiorgazEU5G+e9vfOMbac8992wEuK1WIFcH/dWVx1tvvXU65JBD0tVXXz1up3I7u3zrbl/+/r/8y7+M7fqOv9tOUF0tl51D4dhJPW/evFR33nE3FwfEfTvggANqw/x2VoCXZczDa1/72sZz1+7j2+6u6kceeSSdcMIJad99903bbbddWnvttced913ums/fX3rppRvXz2677Zbe9773pSuvvLIRfJehtIE99LbNj3buvPPOa2o/y7Pgq22l8pijG1BXJ/FjIVp8XGWVVdLJJ5+s7UZAjYCavhRHF0XFrryQuuzbtLMomOHcQV23EK96tFa5iPNTn/pUYxF/pxetAwAgoBZQM9IBRd3O2ghLy5+VZz1HQBnhYpwXHZPSEQ4ffvjhDUceeWQ66qijUuxmPv3009Ovf/3r9Mc//jHFuaeLs8O4VVgctzPC8zzALIPSdgepdUF77Crs1s7pVmFxLACoOyd7sonA/G+qOwJiMD1nzpz0zDPPNP5GPg90KiFwOyXX43sPPfRQuv7669Nll13W2BUfz/ull17a8Lvf/S7dcccdYwP6/LxN9e8A3fP000+n7bffvnYXkbLeozuBWy5SKMt9559//OMfT88995z2GgE1Amr6Rh7HVsdwxx577LgjKsqwcqqVuBiOxXd14++YU8jXw4orrphikUM5/1B+NG4FAEBADR0MStv5WTsDsamUu2oVlNeVey4HhxGIx5nT05lQaHUWWQxcY1AaO4M7vQO51f8VO6fb2bnW6vbXTQ7G/xGTL6961avSY489lqoTN9O9Phb3emh1O6xEh5lt++M1+L3vfS8tv/zyY5N1eQK3VUlMhn8Ct9xBn99fNttss6azpk3OIqBGQE2/hNPVSjHlmPSmm25Ku+yyy9jiu7Jylf7NaKg7X7q6Yzp/7/3vf39jsXc5Tq0bs051bA0AgIBaQA1TCCDbDQ87HVxPNPlw3HHHpVmzZk16PmY7u6fLz8vB6iabbJKeeuqp1M3B5z777NO0M63dErrlfayWVy9F6d5XvOIVY7vcpvq4t7uLuhPXhrADZla09QsXLkyf/exn01JLLdVUmcLE7WhO4ObSlnnSNhZUlf0Ci4sQUCOgpt8XX1ffsy6//PK08sorj42V9HFGp0JMdcxfrUQWn7/1rW9Nt956a2o1dzHRYnoAABBQQwd31E03NCxXrC9O+JgHfhGa5O994QtfGAtPqqH0dM5IrSuRHZNs8XG99dZrhNSL81i08q53vavpduQV2+1OktSt/K4L3+O+RNnyKM8+3ds/0crxqYbPE/2+FegwM4uS8us6fx0Tc29+85sn3XHCcE7gloug4ut//Md/TI8//njL95D8Xm2BEQJqAbWAmplebDfRAqo81liwYEE67bTTprxImMHv45THleSFmNF+LbvssunMM89MEy3S7sacAAAAAmoBNSM/iK8GFuVq4cUdfE3l30+0GyvOsj7++OPHJsAWNyyp7rSulnjLZbI32GCDsZ3UndotFrvQ6s70nI7qOWp1YvAdZVmffPLJ1Olrp9O7HID+CbKvueaa9JrXvEYJzBEtfxmlUO++++40UV+grh8BAmoBNQzCQr1nn322Ucp56aWX9joesWNM8hh6zpw5jTmGKOfdzji1nQpjAAAgoIYBmRyYbNd2Xun+pS99aVrnTS/uADZKv8VO6lhpP9EgtN3vR1nvcpdzN29/uZM6vl5rrbXGzqSuPv4G10CrHdZRDnPNNdcca1vyOdXVnUd1RydMtDCI6e3+aaciSLWMZd2iqPz7+XnJH3ffffex8pbKeEP6qzhWxgKdidulHPbErlTXDIMkxprz5s1LhxxySO0C4OprPx9/Ub6XVn+v7r1XW9H5cfpkC86rH/OO6byo5qijjkr6OQAACKhhhAOQycKRGDR+5StfaQwo29kt3MkzqspJhQ033HAs3G13FXU1cD/wwAPHyof3ckdLOYkSuyGfeOKJ2lDaAB0oq1aUi4Ril1EE1VtttVXLQLRuklYwPXMTt/l5qHv8q++n8R678847pwceeCDl5zx/jPcKRzAwypZZZpmxNm6UtVokk4+UEVAzyCF1fIwjkT72sY+l/JrP13X1+Iuyf1O+Jqq/Uz1Kis5UeKlbEFD3PJSLZ3I4vcoqq6Svf/3rY0eXOEsaAAABNYyoVmdVl5PjJ510Us8H9uXOs3Jg+3d/93cTljwvB7hl2Bv3Y6+99mprB1wnz9eqBhYxWI+Jlpe+9KUpwqbysQZo1xVXXJFyyds8eVtOyrY6uqBsl3pRScIO6+av8wR7nqTNE+tvectb0n/8x3+MC6UtWoL/Cai1L+2V+BZQMwyLphcuXJg+/OEPNy3mKvs5cb2XfZrquKsMtBf3OCf9mvELZMrnorrgrvydF77whWPhdHz/uOOOm7QqGgAACKhhhOWQNybJv/jFL46VUet1ebTqQDifSb3uuuumuXPnjpu4n2iQGzunZ2IHYV1ZuXw/Xv3qV6c//elPqd2JGmB0J2xbtXe///3v00c+8pGxSg3RvuSQYrJd1SZrO1/iu7pIqdxlVH6dP8bke+wWq1s85j0BBNTttkHRpuSFLwJqBr3vk98DFy1a1Ph40UUXpU033bQpaM59nbo+T/U1Ygd154+vmqhtym1R/nq11VZrLHiPOYbqcwwAAAJqEICMfZ0nAmLQePLJJ487H7OXk2/VMmLlmWOvfOUrU6ysr9tlVt6vKJH7zne+s2lldy/KlFfPE63brRg/23jjjdP8+fMN1IFxi4SiLau20+Xu2vL8+iiTGAuKVl555abKE+VZf+ViI7obUJelLavnhK+xxhrp/PPPb5y3OVlZy/J9wXsEo8wZ1JO3S3ZQM6y7qbMbbrghbbLJJinag3ifjX5N3Tg1VyepVjDRVnQuqI7HPj/uue0px9jxvb//+79P11xzTYrxeB6vW3QHAICAGhg3CVD9/Atf+ELTwL96htRMhgB5IuIVr3jFuB3I1UHvfvvt1xRwz0TQXg0pygF8lD17yUteMnYGlwACmGjHdN0Oo/L7EXj+8pe/bEwK5nYntzd2EHU/oM4T4vGYl6XXY6HAP/7jP6arrrqq5VnSeYFYq8lbk7oIqAVMdccGVPvoAmqGbTd1tb8TxySdddZZafbs2U3juxe84AXj+jrVBWN0pjpYfkxzCe8sxudf/epXG9XOyr5q3cJ41zkAAAJqMPhvKqEW4cbXvva1xgC/HMiXJb16EXK0CnbLUqnx8VWvelV68sknx01cxNfvete7msq+9TJcr97m8nZUJ03iZ1G2LofUgHB6Ku133oVb/XfRppxzzjlp2223bbR/dW1gtfQ0UzuPsVrusjoB/qY3vSldd911te17q6C6+vyWk7gWMTHqAXX0m/jrsXY772Isj3cQUDNKfaJ77rknvfvd704bbrhh05grV5Bx/vTi93Wqqgsfo3pPVPG56667Ut2CglbBtD4NAAACajDgH/sYk+VHH3302KCzuts4T8b3eodIufK9DFjyIHm99dYbK02eB7777LNP0+2fbOd0pycuynNGyx3orf5OTKLETurHHnvMQB2oFSUSJwo3J9p5+8wzz6Szzz47rb/++uPa9Bx4mMCd2vtTfuyqk9//63/9r/TDH/5wwkVHdc9Vq4la5zWCM6in0n8VUDOM1b4mE/2iu+++O33605+uPSaq1WJhJu7nlP3E8ucvetGL0uGHH54uuOCCVPZLJ6rQZvc0AAACahjhQf1kE+Kx8nnJJZcciJCinHCI0mIRUj/xxBON+3LwwQcPZHnGGPhvscUWQmqgq6I05re//e2077771k7Y5tA17z6aaHFNq5KPddU2ysnNiXYdt9qxU70d5f9X9/fLCerq36hOXtctvqoeD1E34R3/7+qrr954LOOcxaefflr7DV3ov2611VZp4403HnlROWgi8TvnnXdemqgSAwz74uuoLPPUU0+lU089Ne2+++6NM6ur/ZOyn1P2E+r6PBMt0G7VR6pWA6t+b6K+Vavzsye6jZPdjrr+VrmIuqzs1aos+ute97r0T//0T+nhhx9OuXoPAAAIqIHaVeST7bwqd04ff/zxA3dGaXU3dZx5FeeuDlrZtOrK/pe//OWNSZXp7iAAmEhZEjzaluuvvz4deeSRjQncsmxjtE8xeZurV1RLhFdLg7czCTvZe0w7C6QW5/8ob8dEtynf57KUbvnv1llnnfT9738/XX311WmyUt3A9Kv7TFZhgNYhv74j/LdYxHzDDTekj3/8442+Tvm+HuOvsiJKuzuuq79f7UtUF8dNFnJX+1TVyjat+jatFti1OoKk+jH3dXJYX1ZSi0Xg++23X+O4mHvvvbdpp3TuQ7q+AAAQUAMThtQTBZ0xuIxgIgal1fOkBmEHcrUceZydPQjhdN2ERllGbaONNkqPPPJIsvsF6PYOxfz5woULGx8vvfTS9OUvfzntsMMO4yZpqxOo0ebmdrc8BqLVDuVWu37qdi9NtIO6uguq+nn++/EeUX1Py/82bnf8bKmllqr9/8v78853vrPxXhlnXUbAH++vAjPobWjN1Nv3yc6DhWG9/vMijep4OL4X/Z1f/epXjb7OdtttN25cWfZ5oq+QF+zV/U61j1Mthd1qEVzu97SzMK8aNEe/rO7f1VWMia/jPsTtyv218vaW9ycWex900EHp9NNPbzxGuV9Yffy0KQAACKgF1ND25FS1BFe5c/rkk0+uncAfxDP36sqvDsIO6vK+xHORJzeiVGPspC4nVkwIAN1awFT3/ZicvP322xsTudtss02jwsNKK600Vi6zlCdM827raMfKRURlG50X40znSIlWpS/LCdpqOfGYWC5vXzWAzu3vGmuskV75ylemD3zgA+nyyy9Pt956a4qS6O20v8pdQmd3/1b7shbqAVMZA0+20CUv4HjuuefSHXfckS688MK09dZbN/oBs2fPbhx9VRcAl/2cvAO7LJNdPb+53TLh1ao01a/L/kv5vfy3Qv46L8Kr2w2+8sorp5e+9KWNo6XOPPPMxhElUba7VV9woops2mUAAATUQFshdXUV+Ze+9KVxq7vrVoX3e0hdDtQH5fbXTTpUJy9iYiEmD/LZ2gDdDoQmmnQsf+eZZ55Jl1xySWOR0+c///n06le/uvZs6HJitK7dywtyor3LIfJkop2P342dz+VkcbUNrSvPWb5X7Lnnnulzn/tcY6fQz3/+88b50fEeWTfZWpayrNt9/vzzz2unoUs7pi3OW7xwTrlvRvX6r2s7Wi3Qy/+27AcsWLAg/eIXv0hnnHFGo7+w/vrrj/U3qmO3yUp0513M8e9zXyYrv879obywL/+sujAv/7yuZHf5e2uttVY6+OCD09FHH51+8IMfpLlz57bcWV4+fosWLUpTXQQAAAACauCv2hmYR0mzXNa0GigMwg7ksjRZq7Kxg6LuDLN8X2KC4rWvfW1jMsEkLdBp1V2/rXbN1IWy1e/Fbusnn3yysQsnSmH/9Kc/TYceemijPPYuu+yStt9++7TpppumjTfeOK299tppzpw5jfehxWk786Tvqquuml72spelDTfcsPE3dt5550bZzv333z994hOfSLfcckvjNj366KONRT+xW2qi98l2Jl8n2lEEdL7Cg1CkOztLYVjHvxMdk1S+d+c2p66vU/08FqTNmzcv3X///em+++5LP/7xj9MhhxzS6G+8+c1vbhyPEjuToz8S4XD0T8q+TqujTlqNY8vvr7766o3FyxGUb7LJJo0x4o477pje8Y53pPe9733pj3/8Y6PqTdyu6OtEBZhyAV31cSnPk27VVrTTbugHAQAgoAYmnNzLA8f4eMwxxzSd1TxIZ0/XhdR1YfUglyqvC+FjMiJ295lcBLoVXNRN0JbvHdNZFDXRDpwQ7drdd9/dKKWdJ1ZjN/NE4vduuummRuh85513No5CmEqQXN6/VoF8NbzPn0+2O1EbDZ1RhipeV4tfEQO8Lv6S2glUy9fPVBewtfpZBMV33XVXo4x49F2uu+669Jvf/KZRiebiiy9uuOiiixrHqfzsZz9r7Nq+4YYbGn2im2++ufGx0xW12um3tFosBAAAAmoBNUw5rI6PUdY7wulqMFotVzYIu46rO7+rZWUHqUR5XdBelsSN52fzzTdPjz32mIkCoOu76qazG6b8N60+r5v0nerfmsru5naD44nKgtbdZuEP9HYHtdfc9CsnefzQt5n679Qtamsn7G71s16/Bqfz98o5g7r2eKL+ol3UAAAIqIEJJ+hPOOGERsnoagg6aDunR0G19Ho+12yDDTZolNB1fQMAAAAAAAiooW93UNx2222NcDrvxi135+azjsud1PSPagn2PfbYQ0ANAAAAAAAgoIb+dsEFF4yF1HUlsVt9n5krY553UueQep111knz588XUAMAAAAAAAiooX93UuePl1xySSP0zCF0fF7upKa/ztguz6V+yUteorw3AAAAAACAgBr6Xz6HOlx88cWNF9ELX/jCcedRl5/TH2LX++qrr56eeuqppsUGAAAAAAAACKih7wLp0qJFixrfj3Lf1V3TuaS0kLo/LLHEEo2Pc+bMSfl5AwAAAAAAQEANfWui3bYHH3xwI5Qug2rhdH/Iz8ns2bPTvHnzhNMAAAAAAAACahiMXdStQur4+S677DJ2BnUOp51HPfPiuVhzzTXTn//85zTRjngAAAAAAAAE1DAw4fV//ud/pv3333+sxHd1F28Orf/mb/6m9ndY/CC6+nk8xquttpqd0wAAAAAAAAJqGL6QOnbpvu1tb2sEozmILndRV0uAKwPeWeVjHp+vtdZaaf78+WMLCCbaBQ8AAAAAAICAGvpeBJ859Mwh6B577NEUmOYwOgfUf/u3f+uc6g7vnM470pdYYonG56uuump65plnmp4XAAAAAAAABNQwdLupIxA98MADxwLTVmdRC6g7Ix7fCKXz4/mSl7wkPfbYY6n6vFTPoRZcAwAAAAAACKhhIFVLR0cIut12243t7o2gum7HL4sfTufP4zGdPXt2qgbQ8XX+nmAaAAAAAABAQA1DuZM6Ph5wwAHjwlThdGdFyfQI/iOcfvzxx1MZQJfBdN3zAwAAAAAAgIAahspb3vKWRoAau6jLst5KfHduB/Xaa6+dFixY0FboLJwGAAAAAAAQUMPAyuW9WwWf8fN99tlnbPd0BNPC6c6Ix3PVVVdNTz755NhjXy3hnZ+fdnZWAwAAAAAAIKCGoQiw99prr0YwnUPqunOUQz6vmuad5vlxyh+jtPdaa62VnnrqqWSHNAAAAAAAgIAaKELTCKrf9ra3jQulcwAbwXT5/b/5m78RUNcE1blcepw5/eyzz6Z2drEDAAAAAAAgoIaRDKr333//pnLfEUTH52XZ6uqu6lE/Z7rcPR1WX3319MQTTzTC6GpJbyE1AAAAAACAgBoowtPtt9++aVdwDqtzEOuc6npR1jvC6YULF44LoXNQnR/jvKsaAAAAAAAAATWMlOou3+effz4dcMABY0F0LuctlK4v6x2PT4TTq6yySnrsscdSO4sAAAAAAAAAEFDDSO6YzspdvfH5W9/61vSCF7yg6czpspy1kPq/d03Hx7XXXjstWLBgbJd0Vj7O1Y8AAAAAAAAIqGHkQ+scVP/5z39O++yzT9POabuo/0cO7ddYY4305JNPtgyd8+OprDcAAAAAAICAGijC6eru3kWLFjVC6nwWtWD6f8Qu8tg5PW/evNqd0XW7qAXVAAAAAAAAAmpgArGTervtthtX4ru6mzqfWT2sZ02X9zHu/5w5c8bKepehtGsGAAAAAABAQA0sZkj9v//3/268MPO51HVnMQ9bGfDyrO0o6R33LXaSr7rqqmnu3LlNu6OdMQ0AAAAAACCgBjrgP//zP1NYd911m8p9l2W/yzB32Ep5l1+/7GUvS1H6vAyj47HJj5US3gAAAAAAAAJqYJrKwDWC2B133LEpnF5iiSWaAuthCqrL+xK7xKOs9+OPP57qHhfXCgAAAAAAgIAa6KAo9R27hrfccsuxstd1Zb2HIaTO9yk+Rgi/+uqrp2effTZVd5bXPU7KfAMAAAAAAAiogSnI4WvsFC53C0f4+vzzz6ett966KaTOYW5Z9nvQA+p8X9ZYY400f/78CcNpu6gBAAAAAAAE1MBiKHcC55A6B7Gxm3rbbbdtBNTVkHqYzqCOc7fnzp2b8uNRDaLrzpwWVgMAAAAAAAiogQ7vro6d1K985SsbL9gXvOAFQ1fiO8p6L1iwIE0W3gukAQAAAAAABNRAD8RO6h133LE2nM6fl+c591MIXd6+/HmU9Y4d4bNnz06PPfbYpLulAQAAAAAAEFADPZAD29hNHDupI+StC6GrAXVZErwf5NuTb3/snF60aFHKAXx1xzQAAAAAAAACamAG5OA2yn3vsMMOY4FvNYzOX/dL+e9yx3S+fUsssUSaM2dOmjdvXqrbMS2kBgAAAAAAEFADMxRMVwPbCKm33nrrxgv4b//2b1uW+u6nM6ojoI7bFWdof/CDHxw7c7rujOn8PaW+AQAAAAAABNTADMkBbojS2LvvvnvjRRw7kvstkK6KYDpu38c+9rHUTggPAAAAAACAgBrosfL86bpg98ILLxwr8V2e8dwvgXXchhC37d/+7d9S3gHe6n7lrwXWAAAAAAAAAmqgz0SQe8cddzR2KOedyuWZ1DMhSnlnEU6vssoq6eqrr24Ezn/+859rA+lyl7hwGgAAAAAAQEAN9IGyzHe523jhwoXp4x//+FgwPJMhdRlQf+QjH0nPPPNManUfyvtRnjnt/GkAAAAAAAABNdCHyjD3xhtvTGuttVZj53IExH/913/dFBpXg+R2Gon8f9T9u7xLuty9Hb+/6qqrpuuvv17IDAAAAAAAIKAWUMOwKHdRlzuTr7jiivSGN7yh6cUeO6rzmdCtdj1Xv1f+bg69y/+v/H/j89VXXz1dfPHFynQDAAAAAAAIqAXUMKxalc2OHdW77rprmjNnzli4nHdEx8fJQulqGF3++/jdJZZYIq2xxhrpPe95T7rzzjtT9e8DGbW0iQAARmNJREFUAAAAAAAgoBZQwxApS3yXwXD+fnyMAPuyyy5Lxx57bFpqqaWaynbnULoumM47p/PnEUjnkPrwww9Pv/3tb5t2S9f9fQAAAAAAAATUAmoYEjkUzruo6wLj+Fh+/uyzz6Zbb7017bXXXumNb3xjWnfdddOLX/zihtVWW61h9uzZja832WSTtPXWW6cPfOADaf78+WnhwoXpz3/+c+2ObbunAQAAAAAABNQCahihsHqincvxszKobuf/zMF3/n+r5cRb3Q5BNQAAAAAAgIBaQA1DuHt6olB6stC6U7fB7mkAAAAAAAABtYAaRjS07qTJAu5W52ADAAAAAAAgoBZQAwAAAAAAACCgBgAAAAAAAEBADQAAAAAAAICAWkANAAAAAAAAgIAaAAAAAAAAAAG1BxMAAAAAAAAAATUAAAAAAAAAAmoAAAAAAAAABNQCagAAAAAAAAAE1AAAAAAAAAAIqAEAAAAAAABAQA0AAAAAAACAgBoAAAAAAAAAAbWAGgAAAAAAAAABNQAAAAAAAAACagAAAAAAAAAQUAMAAAAAAAAgoAYAAAAAAABAQC2gBgAAAAAAAEBADQAAAAAAAICAGgAAAAAAAAABtYAaAAAAAAAAAAE1AAAAAAAAAAJqATUAAAAAAAAAAmoAAAAAAAAABNQAAAAAAAAACKgF1AAAAAAAAAAIqAEAAAAAAAAQUAuoAQAAAAAAABBQAwAAAAAAACCgBgAAAAAAAEBALaAGAAAAAAAAQEANAAAAAAAAgIAaAAAAAAAAAATUAAAAAAAAAAioAQAAAAAAABBQC6gBAAAAAAAAEFADAAAAAAAAIKAGAAAAAAAAAAE1AAAAAAAAAAJqAAAAAAAAAATUAmoAAAAAAAAABNQAAAAAAAAACKgBAAAAAAAAEFALqAEAAAAAAAAQUAMAAAAAAAAgoBZQAwAAAAAAACCgBgAAAAAAAEBADQAAAAAAAICAWkANAAAAAAAAgIAaAAAAAAAAAAG1gBoAAAAAAAAAATUAAAAAAAAAAmoAAAAAAAAABNQCagAAAAAAAAAE1AAAAAAAAAAIqAEAAAAAAABAQA0AAAAAAACAgBoAAAAAAAAAAbWAGgAAAAAAAAABNQAAAAAAAAACagAAAAAAAAAQUAMAAAAAAAAgoAYAAAAAAABAQC2gBgAAAAAAAEBADQAAAAAAAICAGoCR9+Mf/zhtsskmHXfNNdckjy9oK3rZTixcuDAddthhHb2N+++/f3ryySc7ejvj/4v/t5O3M+533H/XKsBw+7d/+7eu9N27aY899kj77bdfw4EHHpiOOeaYdOKJJ6bzzz8/XXnllemBBx5ICxYs8B4GQF+4++670y677NLx98N4D/f40g3dmAsxxyCgFlADIKAGBNQCaoNHAAY2oG7XFlts0Xh/jPsYfYSnn37a+xoAAmoQUCOgBkDoJKAGbYWAWkANgIC6N/bZZ5/0ve99L82dO9d7HAACahBQI6AGQOgkoKZ9Dz74YPr2t7+tc6utEFALqAH0GQTU03LQQQel3//+9+m//uu/XBsACKhBQI2AGgChk4Caes8991z65je/2SjZqHOrrRBQC6gB9BkE1Itrt912S5deeml6/vnnXSMACKgRUAuoEVADIHQSUPPfYsLwJz/5SXrTm96kc6utEFALqAH0GQTUHRfvpVdccUX6y1/+4loBQECNgNocAwJqAATUAupRdtNNNzVKMOrcaisE1AJqAH0GAXU3bb755unLX/5yeuKJJ1wvAAioEVCbY0BADYCAWkA9amJiMCYIY6JQ51ZbIaAWUAPoMwioe1n2+9prr3XNACCgRkBtjgEBNQACao/vKCjPjNS51VYIqAXUAPoMAuqZ2k19xhlnOJsaAAE1AmpzDAioARBQM6zivL/f/va3jR0rOrfaCgG1gBpAn0FA3Q++8pWvpGeffdb1A4CAGgG1OQYE1AAIqBkmDz74YProRz+qc6utEFALqAH0GQTUfeczn/lMeuqpp1xDAAioEVCbY0BADYCAmkE32ZmROrfaCgG1gBpAn0FALaQGQEAtoEZAjYAaAATULJY4y+/8889PO+ywg86ttkJALaAG0GcQUA+Ez3/+82nBggWuJQAE1Aio9ccRUAMgoGaQ3HTTTemggw7SudVWCKgF1AD6DALqgXP00UcLqQEQUCOg1h9HQA2AgJpBMJ0zI3VutRUCagE1oM+gTRNQ95vvfe97ricABNQIqPXHEVADIKBG5xYBtYDa6wvQZ9CmCai7b5tttklXXXWVawoAATX64/rjCKgBEFCjc4uAWkDt9QXoM2jTBNTd9/a3vz098MADrisABNToj+uPI6AGQECNzi0CagG11xegz6BNE1B33+GHH+7aAkBAjf64/jgCagAE1OjcIqAerYAaQJ9Bn6GfAuqYhI/J+MW9bU8//XTjPTO7884705VXXpkuv/zy9M1vfjMdddRRac8990ybb775jAXU8bd/8YtfuLYAEFCjP64/joAaAAE1OrcIqAXUAPoM+gyDHFC367/+67/SXXfdlU4//fS0++679zyk3nvvvdOjjz7q+gJAQI3+uP44AmoABNTo3CKgFlAD6DPoMwx7QF36y1/+km677bb0iU98oqc7q0855ZQUQblrCgABNfrj+uMIqAEQUKNzi4BaQA2gz6DPMCIBdSlKgn/wgx/sSUC90047pdtvv901BoCAGv1x/XEE1AAIqNG5RUAtoAbQZ9BnGMWAOjz//PPp3HPPTVtssUXXQ+pjjz3WLmoABNToj+uPI6AGQECNzi0CagE1gD6DPsOoBtRZ9BG6EQ7YRQ2AgBr9cf1xBNQACKjRuUVALaAG0GfQZxBQj/OHP/wh7b777l0NqU844QS7qAEQUKM/rj+OgBoAATU6twioBdQA+gz6DKMeUIerrroqbbPNNl0LqCMAf+CBB1xrAAio0R/XH0dADYCAGp1bBNQCagB9Bo/vqAfU4fzzz0+bb75510Lqc845x7UGgIAa/XH9cQTUAAio0blFQC2gBtBn8PgKqNNfLViwIH3+85/vWkD9vve9Lz399NOuNwAE1OiP648LqAXUAAio+9+f//zndOedd6bY1XHMMcekAw88MO2xxx7jHostttgi7b333umDH/xgOumkk9Jll12WHn300fSXv/wl6dwOZsc/nvef//znjQHme9/73sbzG89z9T7Hbp8999wz7bfffumoo45KZ555Zvr3f//39MQTT/T18y+gFlB3Q5zxGW1ftIHRFkabWPfaya+beG0df/zxA9Fmaq/QZ9BnEFB3V7x+uhEWhNe//vXphhtuSMP2nnvTTTelb33rW422f4cddmi6z9H+RDtz6qmnNvpjsQhgUNrSKMl++eWXp29+85uNhQvxvlXXnta9t8W/+f3vf99oV5093lmxyOP6669v9B/y81K97kJ8L34WvxO/G/9m1BaIxHt69K+in1U+XrvuumvtdZwfs3jNRt84+nXRJnqfFFBT3xbdfPPNjdfJiSeeOPb62nfffSc9MiS/1srXW7xG430j3nv6+b2yH/vj8+bNS1deeWWjrzHZ2D/GRjFGyu1bvN+7ngXUAAioBdQVjz/+eGNyOSZ6FrfUYHSO//mf/7nRYVu0aFHSue3fCYQHH3wwnXXWWWmfffbp2OMRHfOPfvSj6ac//WmaO3duGsW2QkA9/GIQH5PIca3XhaJTERMG//qv/5puu+02gan2Sp9Bn0FAPWIBdTjttNO6tos6/u9huD6izxITwVM9tzvaqJg8jvfsfmpjYoL6D3/4Qzr55JPTO97xjo4+53GfDzjggEaIf8cddwisp9HniBAhnps4y70T58HH/xX/5zD286JPHO/h8V4+1dfnZI9bvC/EIhuBjoB6VMc+3/3ud9P73//+jr62JhqTfvzjH2/08eNv90t71S/98XhMOvG+EO/RMYaK8ef8+fO9bgTUAAioZzZ46uTtnOqgIDqcsQMhJue7df5ddKRjdWYvJv7juel2p30YAsJnnnmmMeiI1Zy9uJ8RJsXfi78roB7ugDr+v/h/hznMue+++9KRRx652KF0K/G6vPDCC6c0id7Ja7jfHm/tlT6DPsPoLCoa5YA6di91Igirc8ghh3R8ArSTz1W0a5PtmP7JT35Su2N1qt70pjelH/7wh+m5556bkWsi7suNN96YvvCFL/QkbCjb1njO+j0g7XR/d6r98eh7RR+sm32O6fTz+jU8i4WV3ewTV6/heN1YzCmgHnYRgh533HEdec/rRGAdtyVu06gG1PG+HbvMDzrooK48xjGmirHVddddp20TUAMgoB6tgDommWPCqled2xi4fvWrX22U/DLZPDOTzfHYxwCjF5MIra6B+Pv9tktRQC2gbney4BOf+ETXgrmq3XbbLV100UXp+eefT728hvvl8dZe6TPoMwioRymgjgnQY489tmtlvmOn7iAG1E899VRXzuiO99jf/va3PZsMjkVPEYxHQD7TbUkEpJdeemlb/YtRCajjsYhFEL18fuJvxd/sx+dhsmD6iiuu6Hh/f6rvhxEYqQwgoB6m3dLRXvWyrz1VUYnklltuScPw3tDOmDc/J90KpuvE34q/KagWUAMgoB7qgDome7/85S/3LGSpW4UZu9O6MRg32VwvdonEuXQzFfTUBQ+nnHJK30y0C6gF1JO9fqJtnak2MyYDJlu1PkwBtfZKn0GfQUA9igF1iBA5wuRuXD9RInTQAupof2JXUTdfV7EQqZsTwRFMx3taL3dLd2Mh3DAH1LEAq5cBRF0gEbdhENqomX6shDkC6mF06623NsZ7g9AXjfFAjAu6uYC0HwLquH9HHXXUjD3O0fd5+OGHvZ4E1AAIqIcroI6BW6yW74dSQbnT1emdaSabx4sygm9/+9v78v7HwLiXu1cE1ALqqbr22msbE7j9UF4tJpFbvVaGJaDWXukz6DMIqEc5oI5zXOPsx25cP7ELuZNBZLcD6l6E0+Hiiy/uyrURj3UsrumXNnRQAtJeBtQzvQCxGvqcccYZfbubup8eqzoRJPU6MBNQC6g78T5x5pln9s2i3E6OTQc5oI7qDN14ffT7YyygFlADIKDu6qAgzriKHQL9NqiMIOL2229PJpu7M+CJiY5+nUioTipECUcBtYC6XwLTfpwwiNdytON1ZxYOekCtvdJn0GcQUAuo/9s555zTletn7733Tn/6058GIqCOoL4bZb2r4szvOPu708/hH//4x77aZdpuHyOOVXj22Wdn9LXSq4A6KtP0Yyndf/7nf57x56Aqzi3fb7/9+v4ajrY+giXzYALqQdCt4yt67Stf+UpP2qxeBNT9Oh7t1WMsoBZQAyCg7tqgoFc7EBZncigGviabR3vAExMfnboOBNQC6sXdwXb00Uf37WulbvJykANq7ZU+gz6DgFpA3Vzqc/vtt+/7c6i7FVDHmbInnnhiT15TnX6/G+TdcOX7WwTswxxQX3fddX2xO26iagfRF+2H9ujXv/71QFQBGJSd6AJq8gKZAw88cODD6bLKUbcrGHQ7oO738X8vHmMBtYAaAAF1VwYFjz76aHrPe97T953auI2PPfZYMtk82gOemAC58sor0zC0FQLqwQyoIyz9zGc+0/evlc9+9rNNIfWgBtTaK30GfQYBtYC62dNPP53e9773deUauuCCC/o+oL788st7tnup1dnXo7wbLsR52RdeeOGMlBXtdkAdO2z78TzwqlikEYs1Zqodir8d1RwGobLNoOxEF1AzSH3tfgtQuxlQD8r4P8bMMXb2OhJQAyCgHpiAetA6v51YLT7qk8133XVX357fOpVJscsuuywNelshoB68gHpQBqd1beYgBtTaK30GfQYBtYC6Phjq1i6er33ta30dUN9zzz2NKgm9Kgfcqevi3nvvHYgSyIOwE7WbAfWghNP58Y8zzGeqDTrllFMGNpzOok8/k0eyCKipisWVwxhOZ4cffnjXxpDdCqgff/zxxsLvQXmM4/qJMZvXk4AaAAF13wfUg9j5jUHwT3/6U5PNIxz2lKHPVVddlQa5rRBQD1ZA3avzLru1w2bQAmrtlT6DPoOAWkDd2nnnndeVa+jTn/50eu6551K/PVfRrvX6ffjjH/94R8ooD9P7WZ2vf/3radGiRT17/XQroI736UEJp8sjLWLRhnB6OMqlC6hHW7RtEeAO63tFp/rmvZwLiWo1H/7whwfuce5UJSkBtYAaAAF11yabBzVoCXvvvfdirQgc1cnmYVyN28vQR0A92gF1L8+77NYOm0EKqLVX+gz6DAJqAfXMXJv77rtvx0pwdjqgjveyXoZiUb54cR+DO++8s2c7vmdS7OjvVcjXjYB6kJ+nr371qz0t9d3r16GQWkA9KobxtVUnFmw98MADKQ1AQK1dE1ALqAEQUHfhdv7rv/7rwAYt2fe+9z2TzSOw87PdnQMxqSSgFlB3MzAd9AmDCEff//73D8Tjrb3SZ9BnEFALqGcuPOjkY9HJ5+rLX/5yTwPE7bffPt16662L9TgMY1nvfjgTudP93ThLe5AXxe20007plltu6Un7NYi7zAflTG8B9WiL8UE3Hu9+dfrppwuoB/RxFlALqAEQUC+2LbfccuBXZsbujrlz5yaTzcO987OfVocKqEc3oB61CYOZfLy1V/oM+gwCagH1zL2Xdrp/0o3nqlc++tGPLlZbPezniLaq2PKjH/0o/eUvf0mDFFC//vWvH/jH/thjj+16uDrs1QB6fRyLgJpRKu1ddcghh6T58+cnAXX327VOzzkJqAXUAPz/9u7316oqvx/4f2V4QuMDSEMaNUpkQsAEgmBCEx84OINNc9EhEgYJd5QMFuT6k2L8ESwDMRISpEGJpqmQe4cWKdNhKqP8ulRAqRLIaj5neluGInLvWWv/fD14Jf3OV+CcffZee631XuuzBNT8j/3795tsvguHDh3qRamoYXbICagF1HfazfvUU09pcyu63torfQZ9BgG1gPruxDnRcV50ifto7969vQ+od+7cOdTi0M2bN/eyrY2w9/Dhw60KqLtg/vz56fTp08Wu+5UrVwaLNrp+HYc9FkRALaCeiY8//rgX459b3xVHjx4VUFe0GCDX0S0C6hm7u//QhQcQUAuo22Xt2rXp2rVryWTzD4uzfeKMnz7cD6XL2wmo+xlQ79mzp3cTBnVdb+2VPoM+g4BaQH33vv/++2LHIQwTznYhoI6J84mJiaTv0MzjLIQQeRdi3Y0oE9uX61j1md4C6n6LxdCrVq3qZZuVq6/h3VD/4mgBtYAaAAF1JRMNW7duTUeOHEkXL178s0Fb/N/xv33yySeDibJZs2ZVtsL57NmzJpvvsHsjBthVlA365S9/mWLnY5QzvDkAiBJ/UbopJvni/pk3b14rd3UKqPsZUMcOimhnqm5n43mJ5+bmEplT7Wy0wfHf1F1iMff11l51K6DWZxBQC6jbey1yBghtDahXrlyZLl++PKNr8Pvf/77Sd/SiRYvSjh070rFjx/5f3+Hm99rLL788+G+rLJEeu267GFDH4oMVK1YMyplHEH/rvRKf76uvvkq7d+9Oy5Ytq+xzbdiwoUiwGgvqYmFd6c8f1yoCqztd0wjhH3/88aILQGKBilLfAuqu7J5esGDBoP2PPnnsor3dYs14vqLvGM/egQMHBm3J3LlzKzn2KBbbdSmgnnon364di2sf488YA23cuHEwLq3qc8Ui8FgM7pkTUAMgoG7VZHN0lJ988sn0+eefT+sssZiMGBsbKz7pHJ9vJte5L5PN4+PjRTu9DzzwQHr//ffTd999l6YTQv3TP/1TscmauCcieBJQC6hziJXGVTzjMdH229/+dlrtbPy38Wfiz3YhoNZetT+g1mcQUAuoqxfPTpMqDnQloI7rOtNd7c8++2zxzxft5fPPPz+jks7xZ9avX1/J4qDYddulgDr6KS+99FK6cOHCtL7XH/7wh0rKYy9ZsmSwACx3pYaS93S8m+Ps3bhG0/lc8Rts27at2H1ccoGFgFpAffPz9cwzzxS7h6fbJ791rBl/Pvr2pQL03H3Wut4NM23H4vf/8MMPB4sIqvic27dv9+wJqAEQULdnsjkm5CP8GOYzx58vXa51165drZn4KLlbrsrOeXTAY2AZZx8OMxh75513ikwqlJpQEFD3K6A+d+5cWrx4cdH2K1amx6B0phMHU5MHH330UZEJpKqut/aqHe2VPkN3+wwC6vYG1KWe9Vz3XxsD6mHOxYxFR6VLe8d7I8dZw/F3lF7kVuo4i6pDiPhNI9Qf5gzPWPT27rvvFl0YEJVfcpdWj53E8UyU2tEXCxSH+XwRCMX5qm1aRCigFlBPOXHiRPbqBNHGRFuTq5pCjDVjV3WJhcS5+151BNSPPPLI0GOgGGu+8cYbxReORXUXu6gF1AAIqFsx2RzlT7/55pssnz8GySXL3I2OjppsrnAyIQYmH3zwQbbv8Nlnn2Uf+MaEQpTKElALqIcR93nJdnbp0qVZJphvDtSr2J1T4nprr9rRXukzCKgF1P0Zx8T7JM7F7GNAHWFXlMWe7neNPxOlwUvums4ZOkxNir/66qtFQ/USbVmVIUT0JaICyzCLCW8WZb9LXu+cpalLXudoY4YJ/G8WbVWUJM79GeNc4BztoIBaQP1DoqR97nFFtDElPmuptivnfEjVAfXTTz+dbQwU4jiO0keEvP32254/ATUAAurmTjZHh/P111/PfnZVDJRLlW5dvXr1UDvjujjZXKpUVPyGhw8fzv75Y+Vw7o54fP+c5xkJqPsVUMdkVExKlTzbMs6fyv0sxQD5b//2b1sVUGuv2tNe6TMIqAXUzRM7/JpcdrONAfVMS2DG2bilgseouBJnVpa6j2IxV6l2t8RCrKpCiGgXYnFazs8e78wXX3yxFZVCopJAiQWE0VfNGepM9Se3bNnSmGoKAmoB9Y+J84lzL2qKtqXEOfQly/3Hu7ONAfWvfvWraR0d1ZTFujNdhCegFlADIKCuZLK5ZIc2ziBr01mLbZ5sLlEqquRq3BKBRHz/uA4CagH1TFcvlypnuHz58iLh9JSvv/46PfXUU60JqLVX7Wmv9BkE1ALq5il1RnqbA+pon+MM7bg28R1u3vkaC9Bi8nfHjh23PfNxpmfVl9w9Hd8n567YH3Lw4MFiIXXunahVhBAlr3vJ+yVX+Bfv902bNrWqHxz32MjISNbPG9egVF9HQN1vx48fT3PmzMkaPOaqSlDlopUYs7QtoI52pmR1hZIhdd8X3gioARBQN3iyuXQnK846KXG25Pz587OWye3CZHPs/Mh9nWO1bO4dfqUDibGxMQG1gHpG4t5p01mMtzpz5kxauHBhKwJq7VV72it9BgG1gFpA3eSAOkpgR1t65cqVu/7ccX7tmjVr/nfn85IlS9LFixen/b1jh3CJ3dNVhdOlS7jm3kVdOoQovdCt5I77WJxx7dq1lOM9nDsgift52DOnq+4/lOo3CKj1ZaLUctvOTC+x6zvn/VBFQF16sfnNFXJKVWXZvHmzZ1BADYCAulmTzTHwiFV6pa91dITaMqHY1snmWJEfq2dzfu4Y5Mdgv/T9ceHChfToo49mLaMcgygBtYC67oH3lDfffLOyMUfJQW2u6629ald7pc8goBZQ9yegvv/++9OpU6daE1BHkBbVT2b6OSOAijNxZzJpW+qoirBt27ZKd2/Gv/Xcc88V+S45j7MoHUJEJZrSZw/HQohYENHUBYRR9j33Z4vFfW2c38lZglhALaCeEtU9YkwcizZiQcy6desGlT1mMn6L99d0FmcN847Ifd57mwLqKhbZVPE+VuZbQA2AgLpxk80zPWttJpNouQOTKFEzzIRU1yabS1zjqiYTck+G5L43BNT9CKhzl1ubEmFmhJpVPUulzgnLeb21V+1qr/QZBNQC6v4E1LmuRxUBdYTTOY5JiLBgJhP8JY6qmFq4VMcEcqkqLDmPsygZQlRZ/rTEQqwcC95KXN+qFhCWWACZa1e6gFpAPZ0F08eOHUv79u1LGzduTEuXLr3jEQwxJqnqs+3cubORVR+qCKjjnPsqF42VegZLjYcE1AJqAATUjTn78k67E6JMVtOvdZsnm3OXJo5Jv6omE8K5c+fS4sWLs33+GEAJqAXUTWhrc56vdbdihXep8yRzXG/tVbvaK30GAbWAWkDdtIA6FrHs2bOn1t+txFEVMXlcZWnvqspP53rPlQwhcp+X/WPXuYnl+Uu8f6ta3FaifHIs2Dh79qyAWkBdu2iboorRgQMH0q9//eu0YsWKtGzZskrvz9xjjJz93ZLvhjr6iRGGRyjelbkJAbWAGgABdfFya3WVzjXZ/H8Dlijv1Nb7o8RugpzXXEDd/YC6RNmyECFmhJlVv99Klh0d9nprr9rXXukzCKgF1ALqpgXUdT8nJY6qqOt9duv3KtH+5jrOomQIUeVOxNjBFosRmtZvj2Ni2rorvUS4Gos1SvQdBNSYP21PQL1p06ZKd0+Xru7W18oQAmoABNQ939UXEy0jIyMmm1s0iKxjZWXOSZFY/R+7AATUAuo6A7G6BrQlJhlzXW/tVfvaK30GAbWAWkDdpIC6jtCrioAxwrCPP/649nuxxBnEMckek+1NDSGqbgfinPc4771p/fbcpcfjrO04c7vqnaY5F0JG1R8BtYCafgbUdS5SibYsKnvk/k5RNt451AJqAATUtX/OOs4eKTFRVWLCvI2TzbmDqFyTSHVO1sRg4siRIwJqAXVtE4V1TzRHybcSZ0kOe721V+1rr/QZBNQCagF1kwLqKksx/5DcZ3GG2JHdhEnjUv2HHG1wqRAi1w7vOvvDwz67JSrcRHWiOhZq5iyNGwvm6qxqIKBGQF3fu6GORTal+xpt7fcKqAHQwepYQF3HeUolOlcmm/8k93mudZ23lXsX665duwTUAuraJvpz7oqdiSjdFSW8mhZQa6/a117pMwioBdQC6iYF1FWWYq5yIrwpOzUjUIwKME0sK1rq2lcdpJYIg4d9dkucP53r7PHpynnGdxzXMzk5KaAWUPdWHFf12muvpXnz5vUuoK5rkU3Jai2lqkoJqAXUAAiopyUGxFXvPCjxPUw2lymFWsf9UeK75BpQCKi7H1CX+I1Xr16drl69WutYI0LPJgXU2qt2tlf6DAJqAXV/Aupci6tKBdR1L/4qFeTVUamiymonuYK+UiFE1UFqie8xbFsWlVyiokvOzxT3UR33b87vUlelHgE1dS5S+uKLL9KOHTvSggULii02a0NAvXfv3lrv2XhnxruzzUc3CagF1AAIqIutYDfZ3IzJ5qYGfk2Y0MwVqgiou3+/5iwFOCX+zrrfcyUmG4e53tqrdrZX+gwCagF183z66adFxjG53v2lAupnnnmm9nK7Jd6tdZcRTQWPscgZ9JUKIWLHbd8D6jaMd+oKWOsK2gXUVOHGjRvpzJkzg3bwpz/9abr33nuLhdJtCqibsHCs1DuvCfMUAmoBNQA9D6jrGByU2OlhsrnMBFIdYUSJsq65ytIKqLsdUMcq8di92rUV16Xah2Gut/aqne2VPoOAWkDdn3FM0wPqukoGd3EhUNUlqHMEfaUm6+sIUnM/I8O2ZbkXa9YZ7uQ+R70J7Y6Ampx915MnT6a33nqr0kC6bQF1Eyq2lFpIX3fpcgG1gBoAAXW2sy5NNtc/2VziXJo6B4857/c4JykGXwJqAXVfJjubfr21V+1sr/QZBNQC6v6MY5YuXZouXbrU2IA6do538T5sYgA2OjrauO9Zos3N9f5tc0AdiyNikURX2tbc/d94FgTUAuo2imc7ynXv27cvrVu3Lj300EO1hNFtDKhz9Yea2N8z1hBQAyCg7mSZS5PN9XQAS5V47Iocz6OAutsBdQw8YwDahcnOprdn2qt2tlf6DAJqAXXz5KzgUOL+6+pvVWpRWxNLCMfipKYFVE0sjd2FgPrq1atp9erV+mLeywLqDoTRu3fvTiMjI+m+++7rzXPV5f54iTHRypUr0+XLlz2PAmoABNT1fc46dh+YbC7TuS11H3dFjntEQN3tgLrEZ2pK4FGifPkw11t71c72Sp9BQC2g7se1CDGpneOM5xKfr0S/ZLpiQjcmdnN+rzjPOs61bto9FqF50wKJEm3u4sWL0+TkZK8D6hJ94S5pQtsjoOZ2gfSJEyfSyy+/nJYsWTJ4l/R14UeJd0NTymCXqEDWtzZNQA2AgLoH4ZjJ5vomm0vsbuiSHCUTBdTdDqhjUjImJ7s66Ms9ATrM9dZeaa/0GQTUAuo8k9K5y/HmDhBK/FaxwzN2enbt6Iym3oMl2uE41zrOt+56f7dtAXWJvnCXxHnWca61gFpAXbeo/HXgwIFBWzpr1iyVCQq+G5pyv5Z4HgXUAmoABNS9nGyOcrdR9tZkczt20HRFjoGFgLrbAXXXB31NCqi1V9orfQYBtYC6uWWmc56FXOK3yrW7exinTp1K999/fy/Cryb2j7oUUOdetDdMW1YqkOyKtlbaEFB3QyzqOXjwYFq2bJnS+T0MqE+fPp3mz5+vTRNQAyCg7k5APWfOnHT8+PHUhYGOyWaBz48ZHR0VUAuoex1Q575/BdT9aq/0GQTUAurmKVmOd+/evY0NqJswWdynnUx9CaiH3dXdlPe1gLqcWDAXC+cE1ALqKv3xj39Mzz//fOt3SguoVW4RUAuoARBQN6IzYrJZQN3WgY+AWkAtoBZQ97W90mcQUAuom6fELt7c/ZMSv9XY2JiAWkDdmTZXQN0udVSTEVD3U5TcX79+fevOlBZQC6gF1AJqAATUJpsF1AioBdQmmwXU2it9Bn0GAXWHJ+kmJibS7NmzG30tSvxWJZ5hfQYBtYBaQC2gFlA3QRxhsXv37jR37lzjHgG1gFpADYCAWkBtsllAbeAjoBZQC6gF1AJqfQYBtYC6Wfbv31+kDcr57hJQC6gF1AJqAbWAWkB9d77++us0MjLSq2dqw4YN6fr16wJqAbWAWkANIKAWUJtsFlB319KlS9OlS5cE1ALq3k42b9myRUCtvdJn0GcQUHdoki53uz4lJsdjB1dTf6smBEQCagG1gLqf9u7dK6AWUBdx+vTpwRigb89UzvtBQC2gFlADIKAWUJtsFlA3Uo5JPwF1twPqEmd5Lly4MJ09e7YR44zcbYSAul/tlT6DgFpA3SxXr15Nq1evLtIG5TzjuasBdZwNunjxYgG1gFpA3TNNqOAgoO6eM2fOpOXLl/fymRJQ1zd/0qS5CgG1gBpAQC2gNtksoBb4CKh7HVB3fVXy6OiogFp7pc+gzyCg7khAHROKMbFYog06dOiQgNpE8f86efJkmjdvnoBaQI2AWkBdwPnz5xsdTt9zzz1pyZIl6eWXX07/9m//lt59991eBdRr165N165d62S/o6kL4wTUAAioBdQmmwXUAh8BtYA6gzlz5qTjx4/XPs5oWnumvRJQ6zMIqAXUw4n+Q0waN/065P6tZs+enSYmJmr/nS5fvpxWrlzZi3sw7rXc99mw7ZuAWkAtoBZQd0Gcvfziiy826h6fO3duWrVqVdq9e3eKBUq3hrO526ymB9RN6Y/36WgRATUAAmoBtcnmFnZud+3aZdJAQC2gHuL5KlUu9dNPP619nBHnGec+02yY6629ElDrMwioBdTD2b59e5H2J0LXCF+b+ls15Xcq8czHgoMjR4407h7cv39/9vts2B1pAuoyz0iJ0vUCagG1gPqHHT58eLDwqu4w+q233krHjh1L3377baq6zWp6QB1j6BhLd/F5jLmPmAPxLAqoARBQm2w22dzI+7gJJRS73lYIqJvzfH3//fdpZGSkkxNZJc7XHuZ6a6/6NeGtzyCgFlDnX3T02GOPFRm/bN68OTX5t2rK7xS73jZs2NDo8uq57Ny5s3EBlYC6zDPSxP45AuquigUhpd7ltzNr1qzBIrRXX311UInkbsJoAXVzjt+IBWy5K+donwXUAAioTTabbM4mdmlaIS6gFlAP93yVCD3i7GcDWu2VgFqfwaSRgDqXo0ePFtlxFe+J3P2SrgbUYWxsLPtvEGFw08rPlgjih22HBdRlnpES1YSUkBVQC6irnYe82YMPPpi2bt2aTpw4ke0c5b4F1E05sisWsHkWBdQA6BgKqE02N3biI1bB5p6sFPgIqPsWUJf4jZ944okZr1Bv8u6nYa639kpArc8goBZQzzww3LRpU5GxS5T2PXfunIC6xaWvcytx1naO/q+AuswzEvde3IMCagTU7a2EEovN1qxZkz7//PN048aN1PQ2q+kBdVOqm5QYzzdtUZyAWkANYBJXQG2yucUTHyVK+Bo8Cqj7FlDH75H7N54/f346ffp0bc9SqYH6MNdbeyWg1mcQUAuoZ+aLL74Y7IgqMXaJ4DsCcAF1fYutlixZki5evNiY+7BEGxzv/+gHaHOb+b7esmVLb6tTIKCuyscff5y9ulV4+OGH0/j4eGpTm9WGgDoqpnSxmkkstNPWCagBEFCbbDbZnG0V7tKlS7N+3jiPN87l1U4IqPsSUJcITutedV0qzBjmemuvBNT6DAJqAfXMvPLKK8V2XOXuk3Q9oI7FZ7EILef3i8A7gu+m3G8ldonHjuzYma3Nbeb7eu/evdnbljhqxrtLQC2gLlsJZfny5enMmTOpbW1WGwLquvvkJaqZNK2/IaAWUAOYxBVQm2xu+cRHiZJsUepxcnJSH0lA3ZuAulQpy1jxnHtX2t364IMPirzjhrne2isBtT6DgFpAPbMFR7E7qkSbHqVGY/FQ03+rHLtvc4njO+IYj66W3Cy1Y2vz5s1Jm9vc93WJygC7du3yLhNQC6j/R1TJiGoZuc+aPnnyZCXXNZ7nvgXUdVdEK/Es1v2dBNQCagAE1CabOzjxkftcGqsqBdR9C6hLTcbGpEEEC1Xfs1euXCkyeZ7jemuvBNT6DAJqAfX03k/PPfdckfY8vP3226kNv1XTzrPNXQ655GKB6Tp79mxauHBhI6vKCKjLtWUlfvemna2OgLpOx48fT3PmzMl6Td98883U1j5YGwLqusthl1hwHnMEsdBOWyegBkBAbbLZZHM2n376aWd3cQioBdRVPV8lylmWnPy/k5gELnG+WY7rrb0SUOszCKgF1Hfv8OHD2Xc1VrGIqusBdbxnS5Rbj/NJ6/5uJSbEc+3YElCXa8uuXr2aVq9enfUzReAdwbf3l4BaQJ1/rFll/6VEFay2BNTPPPNMLcdJxb8Z/3bu7zM6OqpNFlADIKA22WyyOa8SZ+FVvbLy3LlzadmyZYPzaTdu3Jh27949eJbOnz9f+8p7AXU/AupSkzGPPvpounDhQmX3cOy+KlGuPNf11l4JqPUZBNQC6rsTZTsjRC7VnsdZmKWOoeh6QF3iXVbnRPjNfYjYyd3U7yWgLtuWjY2NNXLn/HTEwtCHHnoorVq1KsX3iX8/2tJhzz8XUAuoh5X7+aryvVjiOKy2BNR/+Zd/mU6cOFH5vRsLCEv0AevcES6gFlADIKA22VxT5zZCjJIl+0p85titc/To0cruk9gxcqcdn3Pnzv2zMGh8fDzFOU5VnO8roO5HQF3qTMmqy6/Fv1UqzMhxvbVXAmp9hnr7DALqdgTUMRlaMpwuPeHa9YC61M6meJ9FpZE6d/iVqMASu7ItCmr++zrGJ7l//yoXXURfPoLpO1UpWLBgwZ+F1xECKXcroG5jH6bKtqvEPdGWgDrEUStVjONKj+nnzZtX2ZnlAmoBNQACapPNHQ/6brdavGlB1N2Kzn7s4pnp54wwaMWKFYNBzr59+9KxY8cGk/u5BhEC6n4E1KWeo6kg4F//9V+LP0sxqX3vvfc2OqDWXrWrvdJn6GafweRucwPqGzdupA8//HDQVpRsy0tPtnY9oC5VCjvELrU6FqmcOXOmyNnTixcvTlF5REDd/Pd1/E7xe7V10UUsuok+90xL7Ed4PTIykt544430ySefpK+++qqX4bWAusyipri32rqgscTYrU0BdYyvY8Fx29/Hzp8WUAMgoDbZ3ILJ5pis27BhQ+sm1YYZkN9poF5FWbZSg+Dt27cLqAXUtT9HU5YvXz4oAd3WUrA5r7f2qj3tlT5DN/sMAupmBtSTk5Np/fr1RXawVr1oqg8Bdaky32Hbtm2V7taKfysWLZT4LrnebwLq8m3ZsIvw7hSKXLlyJZW+h7ds2ZL9s0ffOnZZC6gF1E1ru+L9E++htoalbQqoQxx/Ef20Kt7H0Qco8R2icoTxhIAaAAG1yeaGTza3dVLtx0qazVQMRmJQ0rbJhJwlfwXU/QmoS5XsvHlXVImQOgLfhx9+uHg4net6a6/a017pMwjiBNTlxe/90ksvFa+AMSXasdLhZx+ei1Jh3tRurSpLfcdxFCUWRuQuJS+gLt+W/dgxJk097qZUqFr3ufACagF1Fccn3Ok99+KLLxZ5z7UtoA5xLUr3n0pVRIvx5sTEhPGFgBoAAbXJ5j5ONkdocvbs2eLXvFSpwShHVaoUUJRKKtEBj/Ar12cWUPcnoC45MXfz6uucq93jXioxiVT6emuv2tFe6TN0t88goK73Ho9nPkrIPvnkk2nWrFmVteGlF/L0beFGqfdClSH1wYMHi32HCPBzTuYLqMu3ZVEyOPqqbbqfI0B+9tlns3/mGA/EuECJbwF1EyvuVFGdoNTipbYG1HEt4pq0sSKa8t4CagAE1CabezzZXNU1L3Fu2JRf/OIX2Tu0sZM0yh6X+Lw5VxMLqPsVUMfEXOx0Ljm4jTbho48+SnHW6Ew/59WrVwc77kqXgi11vbVX7Wiv9Bm622cQUJe93tEGxTsvxIRjhNFvvfVWWrduXXrooYcqbbdvnljds2dPauNv1dSAunTllTiLPO6dNobTJZ4tAXU117vEebNT93OJkLpUiBZBfR3nwQuo9WGm47333st+XWOMGs9VyQV0o6OjrQuoQ1yTEn2pWDxYaqwZol03lhBQAyCgNtncksnm3CVcq1x9Hee8lerUxqrLCJVyTdzGTscSnzNCr1yfU0Ddv4A67N+/v5LgN56pCC6m89lilfy7776b5s2bV0vAkfN6a6+a317pM3S7z2Byt19KVpjoc+n7kruop3aeRlCQcydyBOuvvvpq0b7OK6+8kv33ElBX876OM5dL7eKL+/n9998fapFmFeVw+xzolAqou+pux/W7du0q9kwdPnw427369ddfp/Xr1xcfC+dse6sMqKf66vEOzVX+/9SpU+mRRx4p9nmjPY923VhCQA2AgNpkc0smm0vcG2vWrKlk8qPkhEJ44IEHht75GWFMhEelPmPuM84E1P0LqKvYRX2zRYsWpR07dgzC6suXL6dbf9uvvvoqRWge37XKUrClr7f2qvntlT5Dt/sMAur+iLb297//fWrrb9XkgDqC4+eee66SRW05jgiJv+Pxxx8v+lmXLl2adfGVgLr693XJRYQR7kQANjk5OePPG327CLpLhdNVHYcgoO5PQB2LKUouZBp24UeErR9++OFg/NS2MWXVAfXN7+Uvv/xyqHYsrnlUlyj5OaM9N44QUAMgoDbZ3PPJ5hiIv/7663e1++HChQuDUk0xcJ/JTpfYsVBFZ/zzzz+f1iDou+++G/xmJTvgJSYTBNT9C6hDrESfPXu2iZfC11t7dUafQZ+h1j6DgLr74n46dOhQavNv1eSAOkT4X3LB1c2lRZ9//vkZBdXxZ6KdKL3QreT9JqCu7n0diwgffvjhovdK9LHeeeedaZ+h+4c//KHo4sESCwgF1ALqKq5rPBfxfEy3OldU6ViwYEGl1y0Wg9+6MLttAfXUe3nbtm0p+uPT+cyxML10O2b3tIAaAAG1yeaWTjbHb1hy0HD06NF07dq1NLVqMibcjhw5krZu3Zp+8pOfDD0ZF4FHBB9V7ciJzx2f/+LFi382mT713eJ6bty4sWj5w5L3hIC6nwF1VTui+h5Qa6/6NeGtz9C8PoOAuvtefPHFrOWhBdS3FwtFqvxdp6qvHDt2bHBO7s2LsOL/jv9tYmIivfzyy4P/tgv3m4C62vd1hLRVBTzxvtu3b98gSLl1sVX8PvG/xzO2bNmy4p/n0UcfnXbYJKAWUP+YCGOrqNAVi4RWrFgxeJ6iCtet7Vt8jnieIpSO566u6lw53+t1BtS3Xvdop27XjsX/O/73eG9X+U4ucdyGgFpADYCA2mRz4cnm48ePpzlz5tQ+2Bnmt9qzZ08lZ+g2SQywprsCX0AtoK5790jfA2rtlYBan6Hdv5WA2rnTAur/m3yO693n+2358uXp/PnzxX4nAXW174Aowf3YY4+pOCGgJtO4fmxszDX7H/fff3+Ks5e7ElA3UanjNgTUAmoABNQmmwtPNkcJvPnz59feoYzywrHzwSTZ3Z27ND4+3pryrQLq9kwsKvVd/nprr/QZ9Bnq7TMIqLu7EGaYM14F1M0t9d3Uc86jZGnJ6yugrv59HefmVlFVpimeffbZFGfxCqgF1CXG9dFPM678k1jcGYs8BdQW2wioBdQAAmoBtcnm24QlVZwHczdiUmCm3yMmifoySVaydJGAut8BdZSpjHKVbQ0nHn/88VZcb+2VPoM+Q719BgF1t0QZ0ZI7WQXUAr1bF15V0f4IqKt/X7e5HzxdUTXJWa0C6pLjekHqn8sVoOa+rvfdd1/rr20cVVb18S4CagE1AAJqk80Zbd68uREdy2G/Yx92f5YuXymg7ndA3dYdvlFmMybZ2jSRq73SZ9BnaO53FFDbOS2gnt7RFXWd61m1+J7xfau4rgLqet7X0W956qmnLLIQUJNhXB/3mV3Uf7Jz585GBtTvv//+YCztuA0BtYAaAAG1yebaJmJjNWcTOpdbtmwZ6jvGqslt27Z19nzXKjrfAmoBdYj7rC0D1ficZ86cSW2byNVe6TPoM9TbZxBQt9/TTz+dvvnmm9S136ptAXXYvXt3Z99nN5cQje9Z1TUVUNf3vv7d73432GHsPhZQM9y4PtqbNWvWtHZB0l/8xV9k+/vWrl2brl27lpr2bojftK3Vvao4bkNALaAGQEBtsrmCyeamnCk5OjqacoQ+XSzNVlXnW0AtoG5TSP3II4+kU6dOpbZO5Gqv9Bn0GertMwio27uL9Y033mjM2akC6u7vpK5y57SAuhnv664exxL9TqVwBdRVjuvb+CxFlYGodvX3f//32f7OhQsXprNnzzYyoG7jkR0qQQioARBQC6g7NNkcg9RNmzbV3snMNWny3XffpV/96ledGQjGvfTZZ5+ltrYVAur2TixGSB1nezbxuVi6dGmKoKztE7naK30GfYZ2BS0C6voXJv32t79NXf6t2hpQh3/8x39Mc+fO7Vw55IMHD1b+ewio639fT0xMdCqk3rBhQ9GjVwTUAuouVNm4uc2PNiBXifL4/jnmRUoF1OGDDz5oRUhd13tZQC2gBkBAbbK54GceHx+vvTMagdOlS5eyfM/YVbN169bWlxuMSZEYGLW5rRBQt3ti8euvv27cmdRx5ui5c+dSVyZytVf6DPoM9fYZBNTt2ME6NjaWrl69mrr+W7U5oJ7aLRcLCbpw30WZ57oWRAiom/G+PnHiRCfKfcdiyFgUaW5MQF3HuL4tVaNuXWgbO55j53Ouv3/79u2NDqjbEFLHZ4vPqP0SUAMgoBZQd2yyOQYNzz33XK2dzVxlj27+TrFat02lin6ofLGAWkBd58RiBKjvvPNO7aU7I8DdvHnzbSfY2j6Rq73SZ9BnqLfPIKBu7nmp69atS3/84x9TX36rtgfUIc4GjzaizQuvfvazn/2/xXAC6n6+r7/88sv0+OOPt7YNff3115X1FlDXPq6P3fu/+MUvGj2WufWIojgzOs6OzvVvPPbYY0MvriwdUIdPPvmkkdVQ4jPFZ9N2CagBEFALqDs42TxVzrfOM2dL/V7/8i//0rqdHDEZGztXu9BWCKi7U9I2nqVly5bV8kw88MADg7PAuj6Rq73SZ9BnaPbvJaCubsf0+vXrGx1MC6h/3D//8z8P3t9tuvdiAjwWjNV9xrmAulntfyyOfOmll1q16CKu0536zgioqx7XR0gdpeab9r2iWtgPjWVytl85ynxXEVA3sRrK7RYQIKAGQEAtoO7YZPNUR7TOs7Zy31NToiRklIasewfo3UyKffjhh+nGjRupK22FgLpbZ67GhO1vfvObNG/evEaVde3SRK72Sp9Bn6HePoOAuj4LFiwYhINXrlxJff2tuhRQTwV70Sa14WzqOELk9OnTjbj2AupmLlCKku91LdacbuA2OTkpBxBQN67fFWPJV199tRGLPaJyVfQ57lRh4Pjx42nOnDnZ/s1NmzYNVdGgqoB66qivWCxY929V12JoAbWAGgABtcnmGiab614tuX///qLfMyadYvKpiTuFohRi3RMJAmoB9XQmnN9///1BmFBqwiB2qtzt71LivhgdHa31Wmuv9Bn0GertMwioqxELnrZu3TrYGVPXghcBdTWLr3bs2FHZArfpiMBxfHy8UfefgLq5FTQiYItQq4mLLqJf/tFHH7WyLRVQ9yOgnhK7++ussHG3C5IuX76cVq5cme3fjYWdX3zxRSsC6hBtSbQpdfxW8WxqzwTUAAioBdQ9nGwOdZ0dt2vXrsp2fT355JO1rwZtWglLAbWAerpiwBjPU5wNfd999w39PMRzGWdL3e6c6arviwgdmnCNtVf6DPoM9fYZBNR5PfTQQ4PdMLHAoM4zfgXU9S1wO3jwYCN2oca5wp999lkjJ78F1M0/4iEWXbz77ruNWHQRwXRUtam7NL2AWkA9HbErNsaQVVaNindPfI/ptPtR2SrnZ3jzzTdbE1Df3N698cYblSzMudsKagioARBQC6g7PNlcdTASg+roqF+4cKHS7xn/Xvy7pXaB/tj3bdoEpIBaQD2sixcvDgLmGFSuWrUqLV68eLAb+tbvEmH20qVL08aNGwe7UGIleZPKnTUpoNZe6TPoMzSjzyCg/vHKF9Hmx476qfY9KmEcOHBgsDs13g/DtPMC6u6J3Wuxe77KowIiTHzllVfSl19+2ehrLKBufkA9Jdq1GO9EWe0qg7b4t+LfbOoiCwG1gPpuxWK1X//617cdM+Y6+zl2TM/0WZmYmEizZ8/O9nmirzTTBXp1BdRT4giWUgtzIvyO8u996QMJqAEAphmMvPbaa9kmkGLw8dOf/jTt2bOnMbtn4nPE54nPlXtwFBMIURpq586dg1JSJhGg+RO5EbI39ftqr9BnALoi3jNnzpwp8l7zTqNK165dS0ePHh0scvzJT36SPcCJBZ4bNmwYLAb99ttv3ct0rsJG3Ns///nPs7wHFi1alN57771OL2isc2FOLD5cu3btUL9V/Nmnn356EJRH++naCqgBAO5qh+ShQ4fS3/3d3w1K48VOptvtlooVkLGLZsWKFYNB+ltvvTXoxF66dKkVfZL4nPF5Y3dnrOiN7xrf54fKGMc1iGsR/02sZo9wK85Wigm3Lu4Ygq4H1HXtQtVeoc/Qvj4DkDewnpycHExYR1sQu/FjV/7ChQtvu0PVO40mB9ZRJSjeg3FfxvEGcZ/+0L18u/dh9O2OHTsmkKZ3AWi04XEkxFQf8ocqc009M9H+xzsjnpemVx3r2m8V7dy+ffv+t427tRT41Ht6ql2L/3bYCmoIqAEAABrh8uXLgx1SOQPqvXv3Gj8BAAAAAmoBNQAAwJ8rceZ3qXPWAAAAAATUAAAALRalQKPsW65wes6cOen48ePGTwAAAICAWkANAAAM6ze/+c3gHKg4zyvOLI5zoGLH8Pnz51t5Zte///u/p7/6q7/KFlDff//96dSpU8ZPAAAAgIBaQA0AAAxry5YtdwxoZ82alRYuXJhWrVqVXnrppXTgwIE0Pj6eYqfytWvXGjeuOHLkSLrnnnuyBdRRLjzKhrtXAAAAAAG1gBoAABjSCy+8MFSAe++99w5Kao+MjKSxsbF06NChdOzYsXTp0qV0/fr1yscdu3btynr+9N/8zd+0cic5AAAAgIAaAABonAiVcwa6N4vgOnZaV/Vdvv/++/TMM89k/Q4R4LtPAAAAAAG1gBoAAMjgH/7hH4oF1HPmzEnHjx+vbOwRpcdjR3fO77B3715jJwAAAEBALaAGAABy2L9/f7GAOrz99tuVjD2iDPeaNWtaHbADAAAACKgBAIBOO3LkSLrnnnuKBdQrV64cnEdd+nvs3r07+/dYsmRJunjxorETAAAAIKAWUAMAADmcPn06zZ8/v1hAHaFxhMclv8MHH3yQvbR32LRpU7p+/bqxEwAAACCgFlADAAA5fPvtt+mJJ54oWuY7wuODBw9mH4NcuXIlvfDCC0V2gMff+fHHHxs3AQAAAAJqATUAAJDT2NhY0YB6KvBdt25dih3bw3zWGzdupP/4j/8YBNMldk0r7w0AAAAIqAXUAABAQRMTE2n27NnFQ+opixYtSjt27Ejj4+NpcnIy/dd//Ve6XRAdZ1fH/3/8d1EmfGRkJM2dO7eSz7h9+3ZjJgAAAEBALaAGAAByizLfq1atqiygbroHH3wwffHFF8ZMAAAAgIBaQA0AAJRw6NChImc5t9GWLVvS9evXjZkAAAAAAbWAGgAAKOHKlSvpiSee6H04/fDDD9s9DQAAAAioBdQAAEBpcdbzvffe2+uA+r333jNWAgAAAATUAmoAAKAKr7zySm/D6aeeeirFedzuAwAAAEBALaAGAAAqEAHtyMhI78LpBx98MJ08edI4CQAAABBQC6gBAIAqnT9/Pi1fvrw34XSUNf/000+NkQAAAAABtYAaAACow5kzZ3oRUgunAQAAAAG1gBoAAGiAycnJ9MQTT3S6rPfExISxEQAAACCgFlADAABN8M0336Rf/vKXnQunf/azn6Vz584ZFwEAAAACagE1AADQJDdu3EgfffRReuCBB1ofTM+dOzft3r07ff/998ZEAAAAgIBaQA0AADTV1atX09jY2ODc5rYF07NmzUrbtm1L//mf/2ksBAAAAAioBdQAAEBbXLlyZbALecGCBY0PpufNm5dee+01wTQAAACAgBoAAGizKP198uTJtHXr1vTggw82JpSOHd5r165N4+Pj6fr168Y+AAAAAAJqAACgay5evJgOHTqURkdH06JFi9I999xTWSD913/912nnzp3pd7/7nVAaAAAAQEANAAD0cYf1pUuX0rFjxwbBdZxf/cILL6QVK1akRx55JC1evPhHz7OOkDtKicd/H38u/nz8PfH3xe7tb7/91tgGAAAAQEANAAAAAAAAgIBaQA0AAAAAAAAgoBZQAwAAAAAAACCgBgAAAAAAAEBALaAGAAAAAAAAQEANAAAAAAAAgIAaAAAAAAAAAAG1gBoAAAAAAAAAATUAAAAAAAAAAmoBNQAAAAAAAAACagAAAAAAAAAE1AAAAAAAAAAIqAXUAAAAAAAAAAioAQAAAAAAABBQC6gBAAAAAAAAEFADAAAAAAAAIKAGAAAAAAAAQEAtoAYAAAAAAABAQA0AAAAAAACAgFpADQAAAAAAAICAGgAAAAAAAAABNQAAAAAAAAACagE1AAAAAAAAAAJqAAAAAAAAAATUAmoAAAAAAAAAAbWAGgAAAAAAAAABNQAAAAAAAAACagE1AAAAAAAAAAJqAAAAAAAAAATULj4AAAAAAACAgFpADQAAAAAAAICAGgAAAAAAAAABtYAaAAAAAAAAAAE1AAAAAAAAAAJqAAAAAAAAAATUAmoAAAAAAAAABNQAAAAAAAAACKgF1AAAAAAAAAAIqAEAAAAAAAAQUAMAAAAAAAAgoBZQAwAAAAAAACCgBgAAAAAAAEBALaAGAAAAAAAAQEANAAAAAAAAgIAaAAAAAAAAAAG1gBoAAAAAAAAAATUAAAAAAAAAAmoBNQAAAAAAAICAWkANAAAAAAAAgIAaAAAAAAAAAAG1gBoAAAAAAAAAATUAAAAAAAAAAmoXHgAAAAAAAEBALaAGAAAAAAAAQEANAAAAAAAAgIBaQA0AAAAAAACAgBoAAAAAAAAAATUAAAAAAAAAAmoBNQAAAAAAAAACagAAAAAAAAAE1AJqAAAAAAAAAEoG1P8NLVXWCAvHh4sAAAAASUVORK5CYII=;clipPath=inset(6.52% 3.67% 1.45% 5%);" vertex="1" parent="1">
          <mxGeometry x="1400" y="330" width="1940" height="899.1970802919707" as="geometry" />
        </mxCell>
      </root>
    </mxGraphModel>
  </diagram>
</mxfile>
